<?xml version="1.0" standalone="no"?>
<!DOCTYPE svg PUBLIC "-//W3C//DTD SVG 1.1//EN" "http://www.w3.org/Graphics/SVG/1.1/DTD/svg11.dtd" >
<svg xmlns="http://www.w3.org/2000/svg" xmlns:xlink="http://www.w3.org/1999/xlink" version="1.1">
<metadata>
Created by FontForge 20201107 at Thu Dec 15 03:31:56 2022
 By 
Copyright 2010 The Allura Project Authors (https://github.com/googlefonts/allura)
</metadata>
<defs>
<font id="Allura-Regular" horiz-adv-x="0" >
  <font-face 
    font-family="Allura"
    font-weight="400"
    font-stretch="normal"
    units-per-em="1000"
    panose-1="0 0 0 0 0 0 0 0 0 0"
    ascent="800"
    descent="-200"
    x-height="287"
    cap-height="601"
    bbox="-674 -612 2763 1101"
    underline-thickness="50"
    underline-position="-153"
    unicode-range="U+000D-FB06"
  />
<missing-glyph horiz-adv-x="484" 
d="M49 0l-9 9v564l9 9h387l8 -9v-564l-8 -9h-387zM56 16h374v550h-374v-550zM87 45v488h310v-488h-310zM153 107l83 150l85 -150l19 32l-86 151l86 153l-19 33l-85 -152l-83 152l-17 -33l83 -151l-83 -153z" />
    <glyph glyph-name="f_f" unicode="ff" horiz-adv-x="572" 
d="M-71 -340q-9 0 -9 6q0 5 2 9q4 7 18 40.5t34.5 85t44.5 111t47 118t42 106.5q-18 -3 -32 -4t-20 -1q-9 0 -18 6t-9 16q0 9 12 15.5t26.5 10t21.5 3.5q11 0 16.5 -8t12.5 -8h2q11 28 18.5 46.5t9.5 26.5q8 21 22 54t31 70.5t35.5 73t34.5 61.5q15 23 35.5 46.5t45 39
t52.5 15.5q12 0 23 -2.5t21 -7.5q30 -17 30 -49q0 -13 -4.5 -28.5t-12.5 -32.5q-13 -29 -42.5 -69t-68 -83t-79.5 -83t-79 -70q26 2 53 4.5t54 2.5q7 0 14.5 -1.5t7.5 -4.5q0 -2 -4.5 -4.5t-17.5 -6.5q-8 -2 -32 -6.5t-55.5 -8.5t-62.5 -8q-14 -36 -32.5 -85.5t-37 -100
t-33.5 -90.5q-12 -35 -15 -51t-3 -24v-7q0 -4 -0.5 -8t-3.5 -11q-18 -46 -24 -62.5t-17 -23.5q-8 -4 -25 -11t-29 -7zM216 -340q-9 0 -9 6q0 5 2 9q3 7 17 40.5t35 85t44.5 111t47 118t42.5 106.5q-19 -3 -32.5 -4t-20.5 -1q-10 0 -19 6t-9 16q0 9 12 15.5t26.5 10t21.5 3.5
q13 0 18 -8t11 -8h3q11 28 18.5 46.5t10.5 26.5q7 21 20.5 54t31 70.5t36 73t34.5 61.5q15 23 35 46.5t45 39t54 15.5q12 0 21.5 -2.5t20.5 -7.5q17 -9 24 -22t7 -29q0 -25 -16 -59q-14 -29 -43.5 -69t-68 -83t-79.5 -83t-79 -70q26 2 53 4.5t53 2.5q8 0 15.5 -1.5t7.5 -4.5
q0 -4 -23 -11q-8 -2 -31.5 -6.5t-54.5 -8.5l-62 -8q-14 -36 -33 -85.5t-37.5 -100t-33.5 -90.5q-12 -35 -15 -51t-3 -24v-7q0 -4 -0.5 -8t-3.5 -11q-19 -46 -25 -62.5t-17 -23.5q-7 -4 -24 -11t-28 -7zM163 172q37 28 76 68t76 85.5t67.5 89.5t50.5 78q17 28 17 53
q0 27 -19 27q-16 0 -38 -18q-19 -14 -45.5 -46.5t-52 -72t-44.5 -74.5q-22 -42 -40 -80.5t-29 -64t-13 -30.5q-3 -6 -6 -15zM448 172q38 28 77 68t76 85.5t67.5 89.5t50.5 78q17 28 17 53q0 27 -19 27q-16 0 -38 -18q-19 -14 -45.5 -46.5t-52 -72t-44.5 -74.5
q-22 -42 -40.5 -80.5t-29.5 -64t-13 -30.5q-1 -3 -2.5 -6.5t-3.5 -8.5z" />
    <glyph glyph-name="fi" unicode="fi" horiz-adv-x="511" 
d="M-71 -340q-9 0 -9 6q0 5 2 9q4 7 18 40.5t34.5 85t44.5 111t47 118t42 106.5q-18 -3 -32 -4t-20 -1q-9 0 -18 6t-9 16q0 9 12 15.5t26.5 10t21.5 3.5q11 0 16.5 -8t12.5 -8h2q11 28 18.5 46.5t9.5 26.5q8 21 22 54t31 70.5t35.5 73t34.5 61.5q15 23 35.5 46.5t45 39
t52.5 15.5q12 0 23 -2.5t21 -7.5q30 -17 30 -49q0 -13 -4.5 -28.5t-12.5 -32.5q-13 -29 -42.5 -69t-68 -83t-79.5 -83t-79 -70q26 2 53 4.5t54 2.5q7 0 14.5 -1.5t7.5 -4.5q0 -2 -4.5 -4.5t-17.5 -6.5q-8 -2 -32 -6.5t-55.5 -8.5t-62.5 -8q-14 -36 -32.5 -85.5t-37 -100
t-33.5 -90.5q-12 -35 -15 -51t-3 -24v-7q0 -4 -0.5 -8t-3.5 -11q-18 -46 -24 -62.5t-17 -23.5q-8 -4 -25 -11t-29 -7zM163 172q37 28 76 68t76 85.5t67.5 89.5t50.5 78q17 28 17 53q0 27 -19 27q-16 0 -38 -18q-19 -14 -45.5 -46.5t-52 -72t-44.5 -74.5q-22 -42 -40 -80.5
t-29 -64t-13 -30.5q-3 -6 -6 -15zM484 348q-13 0 -27.5 2.5t-14.5 18.5q0 3 13.5 14t28 22.5t17.5 13.5q18 14 22 14q6 0 0.5 -13t-5.5 -23q0 -5 -6.5 -17t-14.5 -22t-13 -10zM374 -10q-17 0 -31.5 8t-21.5 30q-1 3 -1.5 7t-0.5 8q0 20 9.5 49t22.5 57q-7 -8 -15 -19.5
t-24 -29.5q-4 -4 -8 -4q-7 0 -7 8q0 6 4 10q26 33 46 59t32 44q-2 2 -2 4q0 4 3 8q8 24 16 40.5t18 18.5q2 0 4 0.5t4 0.5q11 0 20 -5t9 -15q0 -9 -6.5 -22t-14.5 -32q-23 -46 -40.5 -83.5t-20.5 -61.5q-1 -4 -1 -7.5v-7.5q0 -40 28 -40q15 0 40 18t51 43t47 48.5t30 35.5
q3 3 6 3q4 0 6.5 -3t0.5 -8q-9 -17 -30.5 -42.5t-48 -51t-51.5 -43.5q-13 -10 -33 -17.5t-40 -7.5z" />
    <glyph glyph-name="fl" unicode="fl" horiz-adv-x="521" 
d="M391 -10q-43 0 -60 21t-17 52q0 29 13.5 73t35.5 95t47.5 101.5t51 93t44.5 68.5q19 25 41 50t49.5 42t61.5 17q23 0 40 -12.5t17 -36.5q0 -22 -16 -51q-61 -106 -146 -196t-179 -167q-4 -15 -7.5 -27t-4.5 -19q-1 -5 -1 -11v-11q0 -23 8 -41t27 -18q18 0 44 17.5t53 43
t49 49.5t32 37q2 3 6 3q3 0 5.5 -4t-0.5 -10q-9 -17 -31 -42t-49 -50.5t-52 -44.5q-31 -22 -62 -22zM-71 -340q-9 0 -9 6q0 5 2 9q4 7 18 40.5t34.5 85t44.5 111t47 118t42 106.5q-18 -3 -32 -4t-20 -1q-9 0 -18 6t-9 16q0 9 12 15.5t26.5 10t21.5 3.5q11 0 16.5 -8t12.5 -8
h2q11 28 18.5 46.5t9.5 26.5q8 21 22 54t31 70.5t35.5 73t34.5 61.5q15 23 35.5 46.5t45 39t52.5 15.5q12 0 23 -2.5t21 -7.5q30 -17 30 -49q0 -13 -4.5 -28.5t-12.5 -32.5q-13 -29 -42.5 -69t-68 -83t-79.5 -83t-79 -70q26 2 53 4.5t54 2.5q7 0 14.5 -1.5t7.5 -4.5
q0 -2 -4.5 -4.5t-17.5 -6.5q-8 -2 -32 -6.5t-55.5 -8.5t-62.5 -8q-14 -36 -32.5 -85.5t-37 -100t-33.5 -90.5q-12 -35 -15 -51t-3 -24v-7q0 -4 -0.5 -8t-3.5 -11q-18 -46 -24 -62.5t-17 -23.5q-8 -4 -25 -11t-29 -7zM390 180q37 26 78 67.5t80 90.5t72 97t53 87q11 19 11 34
q0 20 -16 20q-12 0 -35 -15q-38 -30 -74.5 -75.5t-68.5 -99t-57.5 -107t-42.5 -99.5zM163 172q37 28 76 68t76 85.5t67.5 89.5t50.5 78q17 28 17 53q0 27 -19 27q-16 0 -38 -18q-19 -14 -45.5 -46.5t-52 -72t-44.5 -74.5q-22 -42 -40 -80.5t-29 -64t-13 -30.5q-3 -6 -6 -15z
" />
    <glyph glyph-name="f_f_i" unicode="ffi" horiz-adv-x="798" 
d="M-71 -340q-9 0 -9 6q0 5 2 9q4 7 18 40.5t34.5 85t44.5 111t47 118t42 106.5q-18 -3 -32 -4t-20 -1q-9 0 -18 6t-9 16q0 9 12 15.5t26.5 10t21.5 3.5q11 0 16.5 -8t12.5 -8h2q11 28 18.5 46.5t9.5 26.5q8 21 22 54t31 70.5t35.5 73t34.5 61.5q15 23 35.5 46.5t45 39
t52.5 15.5q12 0 23 -2.5t21 -7.5q30 -17 30 -49q0 -13 -4.5 -28.5t-12.5 -32.5q-13 -29 -42.5 -69t-68 -83t-79.5 -83t-79 -70q26 2 53 4.5t54 2.5q7 0 14.5 -1.5t7.5 -4.5q0 -2 -4.5 -4.5t-17.5 -6.5q-8 -2 -32 -6.5t-55.5 -8.5t-62.5 -8q-14 -36 -32.5 -85.5t-37 -100
t-33.5 -90.5q-12 -35 -15 -51t-3 -24v-7q0 -4 -0.5 -8t-3.5 -11q-18 -46 -24 -62.5t-17 -23.5q-8 -4 -25 -11t-29 -7zM216 -340q-9 0 -9 6q0 5 2 9q3 7 17 40.5t35 85t44.5 111t47 118t42.5 106.5q-19 -3 -32.5 -4t-20.5 -1q-10 0 -19 6t-9 16q0 9 12 15.5t26.5 10t21.5 3.5
q13 0 18 -8t11 -8h3q11 28 18.5 46.5t10.5 26.5q7 21 20.5 54t31 70.5t36 73t34.5 61.5q15 23 35 46.5t45 39t54 15.5q12 0 21.5 -2.5t20.5 -7.5q17 -9 24 -22t7 -29q0 -25 -16 -59q-14 -29 -43.5 -69t-68 -83t-79.5 -83t-79 -70q26 2 53 4.5t53 2.5q8 0 15.5 -1.5t7.5 -4.5
q0 -4 -23 -11q-8 -2 -31.5 -6.5t-54.5 -8.5l-62 -8q-14 -36 -33 -85.5t-37.5 -100t-33.5 -90.5q-12 -35 -15 -51t-3 -24v-7q0 -4 -0.5 -8t-3.5 -11q-19 -46 -25 -62.5t-17 -23.5q-7 -4 -24 -11t-28 -7zM163 172q37 28 76 68t76 85.5t67.5 89.5t50.5 78q17 28 17 53
q0 27 -19 27q-16 0 -38 -18q-19 -14 -45.5 -46.5t-52 -72t-44.5 -74.5q-22 -42 -40 -80.5t-29 -64t-13 -30.5q-3 -6 -6 -15zM448 172q38 28 77 68t76 85.5t67.5 89.5t50.5 78q17 28 17 53q0 27 -19 27q-16 0 -38 -18q-19 -14 -45.5 -46.5t-52 -72t-44.5 -74.5
q-22 -42 -40.5 -80.5t-29.5 -64t-13 -30.5q-1 -3 -2.5 -6.5t-3.5 -8.5zM770 348q-13 0 -28 2.5t-15 18.5q0 3 14 14t29 22.5t18 13.5q17 14 21 14q5 0 0 -13t-5 -23q0 -5 -6 -17t-14 -22t-14 -10zM660 -10q-18 0 -32 8t-21 30q-1 3 -1.5 7t-0.5 8q0 20 9 49t22 57
q-6 -8 -14 -19.5t-25 -29.5q-3 -4 -7 -4q-7 0 -7 9q0 5 3 9q27 33 47 59t31 44q0 1 -0.5 2t-0.5 2q0 2 0.5 3.5l1.5 4.5q8 24 16.5 40.5t18.5 18.5q13 2 25.5 -2t12.5 -16q0 -9 -7 -22.5t-16 -32.5q-22 -46 -39.5 -83.5t-19.5 -61.5q-1 -4 -1 -8v-8q0 -39 26 -39q15 0 40 18
t51.5 43t48 48.5t29.5 35.5q3 3 6 3q4 0 6.5 -3t-0.5 -8q-9 -17 -30 -42.5t-47.5 -51t-52.5 -43.5q-13 -10 -32.5 -17.5t-39.5 -7.5z" />
    <glyph glyph-name="f_f_l" unicode="ffl" horiz-adv-x="806" 
d="M676 -10q-44 0 -61 23t-14 57q2 30 15.5 74t35 93.5t47 99t50 90.5t44.5 67q19 25 40.5 50t48.5 42t61 17q24 0 40.5 -12.5t16.5 -37.5q0 -10 -3.5 -23t-11.5 -27q-61 -106 -146 -196t-179 -167q-4 -15 -7.5 -27t-4.5 -19q-1 -5 -1.5 -11t-0.5 -11q0 -24 8.5 -41.5
t27.5 -17.5q18 0 44 17.5t53.5 43t49.5 49.5t31 37q2 3 5 3q4 0 7 -4t0 -10q-10 -17 -32 -42t-49 -50.5t-52 -44.5q-31 -22 -63 -22zM-71 -340q-9 0 -9 6q0 5 2 9q4 7 18 40.5t34.5 85t44.5 111t47 118t42 106.5q-18 -3 -32 -4t-20 -1q-9 0 -18 6t-9 16q0 9 12 15.5t26.5 10
t21.5 3.5q11 0 16.5 -8t12.5 -8h2q11 28 18.5 46.5t9.5 26.5q8 21 22 54t31 70.5t35.5 73t34.5 61.5q15 23 35.5 46.5t45 39t52.5 15.5q12 0 23 -2.5t21 -7.5q30 -17 30 -49q0 -13 -4.5 -28.5t-12.5 -32.5q-13 -29 -42.5 -69t-68 -83t-79.5 -83t-79 -70q26 2 53 4.5t54 2.5
q7 0 14.5 -1.5t7.5 -4.5q0 -2 -4.5 -4.5t-17.5 -6.5q-8 -2 -32 -6.5t-55.5 -8.5t-62.5 -8q-14 -36 -32.5 -85.5t-37 -100t-33.5 -90.5q-12 -35 -15 -51t-3 -24v-7q0 -4 -0.5 -8t-3.5 -11q-18 -46 -24 -62.5t-17 -23.5q-8 -4 -25 -11t-29 -7zM216 -340q-9 0 -9 6q0 5 2 9
q3 7 17 40.5t35 85t44.5 111t47 118t42.5 106.5q-19 -3 -32.5 -4t-20.5 -1q-10 0 -19 6t-9 16q0 9 12 15.5t26.5 10t21.5 3.5q13 0 18 -8t11 -8h3q11 28 18.5 46.5t10.5 26.5q7 21 20.5 54t31 70.5t36 73t34.5 61.5q15 23 35 46.5t45 39t54 15.5q12 0 21.5 -2.5t20.5 -7.5
q17 -9 24 -22t7 -29q0 -25 -16 -59q-14 -29 -43.5 -69t-68 -83t-79.5 -83t-79 -70q26 2 53 4.5t53 2.5q8 0 15.5 -1.5t7.5 -4.5q0 -4 -23 -11q-8 -2 -31.5 -6.5t-54.5 -8.5l-62 -8q-14 -36 -33 -85.5t-37.5 -100t-33.5 -90.5q-12 -35 -15 -51t-3 -24v-7q0 -4 -0.5 -8
t-3.5 -11q-19 -46 -25 -62.5t-17 -23.5q-7 -4 -24 -11t-28 -7zM675 180q37 26 78 67.5t80.5 90.5t72.5 97t53 87q6 11 8.5 19.5t2.5 15.5q0 19 -17 19q-13 0 -34 -15q-54 -42 -100 -107.5t-82 -137.5t-62 -136zM163 172q37 28 76 68t76 85.5t67.5 89.5t50.5 78q17 28 17 53
q0 27 -19 27q-16 0 -38 -18q-19 -14 -45.5 -46.5t-52 -72t-44.5 -74.5q-22 -42 -40 -80.5t-29 -64t-13 -30.5q-3 -6 -6 -15zM448 172q38 28 77 68t76 85.5t67.5 89.5t50.5 78q17 28 17 53q0 27 -19 27q-16 0 -38 -18q-19 -14 -45.5 -46.5t-52 -72t-44.5 -74.5
q-22 -42 -40.5 -80.5t-29.5 -64t-13 -30.5q-1 -3 -2.5 -6.5t-3.5 -8.5z" />
    <glyph glyph-name=".notdef" horiz-adv-x="484" 
d="M49 0l-9 9v564l9 9h387l8 -9v-564l-8 -9h-387zM56 16h374v550h-374v-550zM87 45v488h310v-488h-310zM153 107l83 150l85 -150l19 32l-86 151l86 153l-19 33l-85 -152l-83 152l-17 -33l83 -151l-83 -153z" />
    <glyph glyph-name=".null" 
 />
    <glyph glyph-name="nonmarkingreturn" horiz-adv-x="333" 
 />
    <glyph glyph-name="CR" unicode="&#xd;" horiz-adv-x="600" 
 />
    <glyph glyph-name="space" unicode=" " horiz-adv-x="219" 
 />
    <glyph glyph-name="exclam" unicode="!" horiz-adv-x="163" 
d="M159 143q-12 0 -12 11q0 2 0.5 4t1.5 5q17 46 37.5 99t42.5 106t41 98q18 43 31.5 75.5t20.5 40.5q3 3 8 3q11 0 25 -12t14 -24q0 -10 -5.5 -27.5t-17.5 -38.5q-5 -9 -11.5 -12.5t-11.5 -13.5q-37 -72 -75.5 -147.5t-64.5 -152.5q-1 -5 -9 -9.5t-15 -4.5zM127 0
q-10 0 -21.5 2t-11.5 14q0 5 11 15.5t24 20t19 9.5q7 0 6.5 -7t-0.5 -15q0 -4 -5 -13.5t-11 -17.5t-11 -8z" />
    <glyph glyph-name="quotedbl" unicode="&#x22;" horiz-adv-x="256" 
d="M198 303q-10 0 -9 15q2 13 3 34.5t1.5 39.5t0.5 22q0 10 -1 18t-1 15q0 12 6 18.5t27 6.5q20 0 20 -19q0 -11 -4.5 -24t-6.5 -21q-4 -19 -11.5 -41.5t-13.5 -52.5q-3 -11 -11 -11zM85 303q-3 0 -5.5 4t-1.5 11q2 11 2.5 28t0.5 33v35q1 9 0 17.5t-1 15.5q0 11 6 18t26 7
q12 0 16 -6t4 -15q0 -10 -3.5 -22.5t-5.5 -20.5q-5 -19 -13 -41.5t-15 -52.5q-3 -11 -10 -11z" />
    <glyph glyph-name="numbersign" unicode="#" horiz-adv-x="773" 
d="M401 -1q-4 0 -9 5t-5 13q0 9 9 41.5t24 78.5q-50 -1 -102 -1t-99 -1q-13 -38 -22 -64.5t-11 -34.5q-4 -18 -10.5 -25t-12.5 -7t-11 5t-5 13t9 38.5t24 74.5q-49 -1 -82 -1t-43 -2q-21 -1 -30.5 4t-9.5 12q0 9 12 16q5 4 51 5.5t113 1.5q15 45 32 95.5t36 98.5
q-53 -1 -89.5 -1t-46.5 -1q-22 -1 -31.5 4t-9.5 12q0 9 12 16q5 3 55.5 5t121.5 2q26 71 45 123.5t23 63.5q17 46 28 46q7 0 6 -21l1 -1q0 -3 -9.5 -33t-24 -76.5t-33.5 -101.5h204q25 69 44 120.5t23 61.5q8 22 16.5 34.5t13.5 12.5q6 0 5 -22h1q0 -3 -9.5 -32.5t-24 -75
t-32.5 -99.5l146 -3q25 -1 39.5 -4.5t14.5 -8.5q0 -6 -20 -12v-1q-3 -1 -29.5 -2t-68.5 -1.5t-93 -1.5q-16 -50 -34 -101.5t-32 -95.5l155 -2q25 -1 40 -5.5t15 -9.5q0 -7 -19 -11v-1q-4 -1 -32 -2t-72.5 -1.5t-98.5 -1.5q-13 -40 -21.5 -68t-11.5 -36q-6 -19 -12.5 -26.5
t-12.5 -7.5zM229 171h203q15 46 33 97t35 100q-51 -1 -104.5 -1t-100.5 -2z" />
    <glyph glyph-name="dollar" unicode="$" horiz-adv-x="436" 
d="M78 -12q-10 0 -10 7q0 6 8.5 26t23.5 51q-15 7 -27 15t-12 18q0 2 2 5t5 2q16 -8 46 -14q12 25 26.5 53.5t31.5 58.5q-28 29 -53 65.5t-25 78.5q0 40 19.5 70t52 50.5t70 30.5t73.5 10q9 0 17.5 -0.5t15.5 -1.5h4q6 11 11.5 18.5t7.5 9.5q5 5 12.5 7t14.5 2q9 0 14.5 -3
t0.5 -9q-4 -7 -10.5 -15t-12.5 -19q22 -8 40 -23.5t18 -41.5q0 -28 -17 -53.5t-41.5 -44t-48.5 -28.5q-3 -1 -5 -1.5t-4 -0.5q-4 0 -4 3q0 4 7 11q12 11 30 28.5t33 38.5q11 15 17 28.5t6 23.5q0 29 -47 38q-33 -51 -77.5 -124t-87.5 -152q26 -28 46.5 -55t20.5 -50
q0 -18 -16 -28.5t-38 -14.5t-42 -4h-11t-10 1q-4 1 -9.5 2t-13.5 4q-13 -28 -24 -54q-4 -8 -12.5 -13.5t-15.5 -5.5zM182 228q38 71 78 140t68 116q-33 -2 -68.5 -15t-66.5 -34t-50.5 -48.5t-19.5 -60.5q0 -22 17.5 -47t41.5 -51zM145 95q32 -2 59.5 6t28.5 34
q0 9 -11.5 22.5t-29.5 30.5q-12 -22 -24 -46t-23 -47z" />
    <glyph glyph-name="percent" unicode="%" horiz-adv-x="463" 
d="M70 -12q-10 0 -10 7q0 8 17.5 40.5t46.5 80.5t64 104t70 111.5t65 102.5t49 76q-33 -11 -71 -11q-30 0 -51 7q1 -5 1.5 -12.5t-0.5 -15.5q-4 -33 -23.5 -62t-45.5 -47t-53 -19q-37 -1 -52 20.5t-11 49.5q5 39 24 66.5t46.5 42.5t55.5 15q12 0 23 -3.5t21 -11.5
q14 -5 30.5 -7.5t33.5 -2.5q27 0 52 5.5t41 16.5q5 5 15.5 7t20.5 2q11 0 18 -3t2 -9q-18 -22 -50.5 -65t-73 -100t-82 -120.5t-79 -127t-64.5 -118.5q-4 -8 -13 -13.5t-17 -5.5zM129 369q20 0 35.5 13.5t27 31.5t16.5 32q3 8 5.5 20t2.5 24q0 14 -6 25.5t-23 11.5
q-19 0 -35 -13.5t-27 -31.5t-17 -32q-3 -8 -5.5 -20t-2.5 -24q0 -14 6.5 -25.5t22.5 -11.5zM289 -1q-37 0 -51 22t-11 51q5 37 24 64t46.5 42t55.5 15q23 0 41.5 -11.5t18.5 -42.5q0 -36 -19 -68t-47.5 -52t-57.5 -20zM292 20q18 0 33.5 13t26.5 31t16 32q3 8 6 21t3 25
q0 14 -6 24t-22 10q-18 0 -34.5 -12.5t-28 -30.5t-16.5 -33q-3 -8 -5.5 -20t-2.5 -23q0 -14 6.5 -25.5t23.5 -11.5z" />
    <glyph glyph-name="ampersand" unicode="&#x26;" horiz-adv-x="697" 
d="M254 -32q-7 -1 -14 -1h-14q-63 0 -104.5 20.5t-62 53t-20.5 68.5q0 45 30.5 88t88.5 65q34 13 65.5 16t58.5 3.5t45 2.5q-24 21 -49 51.5t-42 66.5t-17 71q0 16 4 31t14 28q11 15 34.5 25.5t52 16.5t52.5 6q31 0 61.5 -15t49.5 -38q8 10 18 18t21 9q2 1 6 1
q8 0 13.5 -3.5t5.5 -9.5q0 -5 -6 -10q-4 -6 -14.5 -13t-21.5 -18q-14 -13 -25 -29.5t-11 -33.5q0 -10 6 -19q1 -1 1 -3q0 -5 -6 -5q-5 0 -10 5q-5 7 -5 30q0 14 3 29.5t10 28.5q1 1 1.5 2.5t1.5 2.5q-16 18 -44.5 33t-58.5 15q-11 0 -22 -3q-34 -7 -47 -32t-13 -57
q0 -29 8.5 -61t21.5 -59t26 -44q12 -16 12 -23q0 -8 -18 -11q-46 -5 -89.5 -21t-69.5 -29q-46 -23 -69 -56t-23 -65q0 -43 38 -75.5t108 -32.5h14t14 1q61 6 116.5 29t98.5 66.5t63 111.5q5 14 6.5 29t1.5 28q0 14 -1.5 25t-4.5 16q-29 -17 -60.5 -33.5t-57.5 -33.5
q-14 -8 -37.5 -29.5t-41.5 -46.5t-18 -46q0 -15 12 -24q8 -6 8 -12q0 -3 -5 -3q-4 0 -8 2q-13 4 -19.5 21t-6.5 39q0 31 12 55q11 21 31.5 36.5t49.5 32.5q36 21 77 41t77 38.5t59 37t23 37.5v6t-2 6q0 1 -0.5 1.5t-0.5 1.5q0 4 3 4q5 0 9 -7q4 -9 4 -20q0 -27 -27 -51
t-67 -47q11 -12 24 -37t13 -51v-7.5t-1 -7.5q-10 -58 -45.5 -99.5t-85.5 -69t-104.5 -42t-103.5 -18.5z" />
    <glyph glyph-name="quotesingle" unicode="'" horiz-adv-x="145" 
d="M85 303q-3 0 -5.5 4t-1.5 11q2 11 2.5 28t0.5 33v35q1 9 0 17.5t-1 15.5q0 11 6 18t26 7q12 0 16 -6t4 -15q0 -10 -3.5 -22.5t-5.5 -20.5q-5 -19 -13 -41.5t-15 -52.5q-3 -11 -10 -11z" />
    <glyph glyph-name="parenleft" unicode="(" horiz-adv-x="380" 
d="M91 -161q-11 0 -15 9q-23 44 -34.5 94t-11.5 101q0 112 48 214q38 84 98 149t132.5 108t145.5 59q3 1 7 1q9 0 9 -6q0 -11 -18 -18q-71 -23 -137.5 -69t-118.5 -110.5t-80 -145.5q-13 -41 -21 -88.5t-8 -94.5t8.5 -91.5t25.5 -79.5q6 -11 -6 -21.5t-24 -10.5z" />
    <glyph glyph-name="parenright" unicode=")" horiz-adv-x="517" 
d="M-21 -152q-3 -1 -7 -1q-8 0 -8 6q0 4 4.5 9t13.5 7q71 23 137 69.5t118 112t80 145.5q14 41 22 87.5t8 92.5q0 47 -8.5 92t-26.5 81q-6 12 5.5 22t24.5 10q11 0 15 -8q23 -45 34 -95t11 -102q0 -111 -46 -212q-38 -84 -98.5 -149.5t-132.5 -108t-146 -58.5z" />
    <glyph glyph-name="asterisk" unicode="*" horiz-adv-x="642" 
d="M373 187q-4 -1 -12 4.5t-19 23.5q-2 4 -9.5 17.5t-15.5 30.5q-7 14 -14.5 28t-12.5 23q-31 -40 -48.5 -64t-25.5 -33q-16 -22 -31 -22q-11 0 -15 9t-3 17q2 4 9.5 13.5t20.5 25.5q13 13 28.5 31.5t34.5 41.5q-42 -1 -76 -1t-44 -2q-16 -1 -24 4t-9 10v1q0 6 5 11.5
t12 8.5q8 4 50 5.5t94 1.5q-9 16 -20.5 36.5t-20.5 39.5t-13 29q-3 8 -3 15q0 11 6 17.5t13 6.5q16 0 26 -22q3 -8 17 -37.5t27 -64.5q22 26 43.5 50.5t36.5 43t19 23.5q6 8 11 12t9 6q2 1 6 1q7 0 8 -5q1 -2 1 -6q0 -15 -10 -28q-12 -16 -23 -30.5t-25.5 -34.5t-40.5 -52
q15 -1 30.5 -1h30.5q29 0 52 0.5t30 0.5q26 -1 36.5 -4.5t10.5 -8.5q0 -6 -14.5 -12t-29.5 -7q-4 0 -27 -1t-56.5 -2t-72.5 -2q16 -44 33 -77t21 -39q3 -9 3 -16q0 -14 -9 -16z" />
    <glyph glyph-name="plus" unicode="+" horiz-adv-x="614" 
d="M227 -18q-11 0 -11 10q0 5 5 17q4 8 15 32.5t27.5 59.5t33.5 73q-45 -1 -85 -2t-67 -1.5t-32 -0.5q-21 0 -21 10q0 8 11 17t21 9h188q23 50 41.5 90.5t26.5 53.5q10 19 22 19q8 0 8 -10q0 -8 -6 -22l-57 -129h174q28 0 28 -13q0 -14 -27 -17q-11 -1 -40 -1.5t-67.5 -1
t-81.5 -1.5l-74 -173q-3 -7 -13.5 -13t-18.5 -6z" />
    <glyph glyph-name="comma" unicode="," horiz-adv-x="178" 
d="M45 -119q-3 -2 -6 -2q-4 0 -4.5 3.5t-0.5 4.5t6.5 9.5t15.5 18.5q14 17 26 35.5t19 40.5q4 9 4 17q0 10 -4.5 14.5t-4.5 12.5q0 6 1 9q3 9 13.5 9h14.5q12 0 19 -11.5t7 -20.5q0 -10 -13 -30t-31.5 -43t-35.5 -42t-26 -25z" />
    <glyph glyph-name="hyphen" unicode="-" horiz-adv-x="376" 
d="M161 170q-18 0 -18 10q0 8 11.5 17t21.5 9q11 0 38 0.5t58 1t51 0.5q25 0 40.5 -4.5t15.5 -9.5q0 -6 -12 -9t-25 -4.5t-18 -2.5q-24 -1 -56.5 -3t-62 -3.5t-44.5 -1.5z" />
    <glyph glyph-name="period" unicode="." horiz-adv-x="181" 
d="M127 0q-10 0 -21.5 2t-11.5 14q0 5 11 15.5t24 20t19 9.5q7 0 6.5 -7t-0.5 -15q0 -4 -5 -13.5t-11 -17.5t-11 -8z" />
    <glyph glyph-name="slash" unicode="/" horiz-adv-x="466" 
d="M28 -12q-12 0 -8 11q4 12 25 45t53 79t69.5 99t76.5 105.5t73 97.5t58.5 76t34.5 40q5 5 13.5 7.5t15.5 2.5q8 0 11.5 -3t-1.5 -10q-20 -22 -56 -65.5t-80 -100.5t-91 -120.5t-89.5 -126.5t-74.5 -118q-5 -8 -14 -13.5t-16 -5.5z" />
    <glyph glyph-name="zero" unicode="0" horiz-adv-x="549" 
d="M221 -23q-59 0 -98.5 27t-59 72t-19.5 100q0 57 23.5 117.5t66 112.5t100 84.5t125.5 32.5q27 0 47 -13.5t20 -36.5q0 -14 -6 -14l-0.5 0.5l-1.5 1.5q-8 14 -23 18.5t-28 4.5q-49 0 -98 -26.5t-89.5 -73t-65 -106t-24.5 -124.5q0 -40 12 -74t38.5 -55t69.5 -21
q55 0 107 32t94 85t67 117t25 127q0 78 -46 124q-14 14 -39 23.5t-50.5 15t-43.5 8.5t-18 4q0 5 8 9.5t19 4.5q61 0 109.5 -29t77 -79t28.5 -113t-26 -126t-71.5 -115t-104.5 -83.5t-125 -31.5z" />
    <glyph glyph-name="one" unicode="1" horiz-adv-x="312" 
d="M6 -21q-6 0 -6 6q0 19 15.5 26.5t42.5 10t60 6.5q6 29 22.5 79t39 110t46.5 120t45 109q-12 -12 -30 -29t-38 -34.5t-36.5 -29t-25.5 -11.5q-5 0 -5 4q1 4 19.5 22t43 41t40.5 41q13 14 30 36.5t33 40.5t26 18q9 0 25.5 -6t16.5 -17q-31 -61 -64 -129.5t-63.5 -136.5
t-53.5 -126.5t-35 -100.5h42q20 0 40.5 -0.5t37.5 -3.5q10 -1 10 -9q0 -10 -18 -10q-15 0 -31.5 0.5t-33.5 0.5q-12 0 -25 -0.5t-27 -1.5v-1q-7 -9 -22 -9q-7 0 -11 5q-26 -4 -55 -12.5t-55 -8.5z" />
    <glyph glyph-name="two" unicode="2" horiz-adv-x="583" 
d="M419 -16q-4 0 -33.5 4t-73 12.5t-89.5 20t-82 26.5q-2 -3 -17 -16t-32.5 -25.5t-27.5 -12.5q-6 0 -6 7q0 50 30 65t73 15q34 20 81.5 49.5t97.5 65.5t93 75.5t69.5 79t26.5 75.5q0 40 -32 62.5t-85 22.5q-16 0 -34.5 -2.5t-36.5 -7.5q-11 -3 -34 -11t-48.5 -21t-43 -28.5
t-17.5 -33.5q0 -6 3.5 -12t3.5 -12q0 -9 -7 -9q-8 0 -17.5 16t-9.5 29q0 23 20.5 43t49.5 35.5t57 25.5t44 13q21 4 42 6.5t40 2.5q75 0 124 -29t49 -80q0 -39 -28 -80t-73.5 -81t-99.5 -76.5t-107.5 -67.5t-96.5 -54q82 -13 139.5 -32t99.5 -19q38 0 71.5 8t38.5 27
q5 12 13 12q7 0 7 -9q0 -19 -15.5 -33.5t-38.5 -24.5t-47 -15.5t-41 -5.5z" />
    <glyph glyph-name="three" unicode="3" horiz-adv-x="540" 
d="M186 -28q-21 0 -46.5 3.5t-48 13.5t-37 29t-14.5 51q0 17 7.5 33.5t20.5 16.5q17 0 17 -16q0 -8 -2.5 -16.5t-2.5 -17.5q2 -29 20 -46t42.5 -24.5t44.5 -7.5q41 0 83 17t77.5 47.5t57.5 69.5t22 84q0 28 -21 50.5t-64 34.5q-25 -1 -47.5 -6.5t-39.5 -5.5h-6
q-13 1 -18.5 7.5t-5.5 13.5q0 8 5.5 13.5t17.5 5.5q11 0 24.5 -2.5t27.5 -2.5q40 0 75 15.5t56.5 40.5t21.5 54q0 32 -28 56.5t-75 24.5q-19 0 -44 -5.5t-48.5 -16.5t-39 -28.5t-15.5 -41.5q0 -5 -5.5 -9t-10.5 -4q-6 0 -6 9q0 41 25 69.5t67 43t94 14.5q37 0 69.5 -11
t52.5 -34t20 -59q0 -38 -28 -77t-86 -57q38 -1 64.5 -27t26.5 -69q0 -54 -28.5 -97t-73.5 -73.5t-97.5 -46.5t-100.5 -16z" />
    <glyph glyph-name="four" unicode="4" horiz-adv-x="469" 
d="M232 -36q-11 0 -11 11q0 24 17.5 81.5t40.5 124.5l-150 15q-6 1 -11.5 1h-11.5q-26 0 -43.5 -9.5t-29 -19t-20.5 -9.5q-3 0 -3 5q0 25 26 49.5t74.5 57t114.5 80.5q43 31 82 66.5t69.5 67.5t49.5 52.5t21 20.5q9 0 24 -11t15 -20q0 -4 -2 -5q-32 -67 -72 -143.5
t-76 -156.5q30 2 64 10t60 20.5t30 29.5q5 14 14 14q5 0 5 -8q0 -27 -20.5 -47t-51 -33.5t-61 -20.5t-51.5 -7q-8 0 -17.5 -18t-18 -46t-16 -57.5t-12 -52.5t-6.5 -31v-3q-8 -8 -23 -8zM296 223q18 49 36 94t32.5 79.5t20.5 49.5q-15 -16 -49.5 -43.5t-76.5 -59t-81.5 -60
t-65.5 -45.5h6l13 1h6q41 0 83.5 -6.5t75.5 -9.5z" />
    <glyph glyph-name="five" unicode="5" horiz-adv-x="546" 
d="M167 -29q-26 0 -55 4t-55 15.5t-42.5 34t-16.5 59.5q0 18 7.5 37.5t24.5 19.5q8 0 14 -4.5t6 -12.5q0 -9 -3 -20t-3 -20q2 -33 22 -53t48 -28.5t51 -8.5q48 0 97.5 19t91.5 53.5t68 80t26 99.5q0 34 -16.5 54.5t-42.5 30t-56 9.5q-37 0 -66 -12t-51 -27.5t-38 -27.5
t-27 -12q-9 0 -9 9q0 11 11 33.5t28 49t35 52.5t32.5 45.5t19.5 26.5q-4 8 -8.5 16.5t-4.5 15.5q0 13 26.5 18.5t69.5 6.5t90 1h31q28 0 57 -1t48.5 -4.5t19.5 -12.5q0 -5 -6 -9.5t-19 -4.5q-30 0 -69 -0.5t-78 -3t-69.5 -6.5t-44.5 -12q-6 -4 -22.5 -27t-36 -54.5
t-35.5 -62.5q23 15 60 20t68 5q28 0 58 -5t55.5 -18.5t41.5 -37t16 -59.5q0 -62 -33 -112t-85.5 -85.5t-113.5 -54.5t-117 -19z" />
    <glyph glyph-name="six" unicode="6" horiz-adv-x="516" 
d="M215 -18q-56 0 -90.5 21t-49.5 56t-15 78q0 64 24 124t63 110.5t85.5 89t91.5 59.5t80 21q25 0 49 -9t40 -30.5t16 -60.5q0 -10 -1.5 -25t-13.5 -15q-8 0 -8 5v6l1 12q0 89 -88 89q-29 0 -65.5 -20.5t-73.5 -57.5t-67.5 -85.5t-49.5 -105t-19 -115.5q0 -50 24 -86t86 -36
q46 0 80 27t54.5 67.5t24.5 79.5q2 5 2 11v11q0 33 -13.5 52.5t-34 28t-41.5 8.5q-25 0 -45.5 -12t-37.5 -26q-3 -4 -9 -4t-6 5q0 12 19 25.5t45.5 22.5t48.5 9q31 0 59.5 -10.5t47.5 -33.5t19 -63q0 -44 -20 -84.5t-54 -71.5t-75 -49t-83 -18z" />
    <glyph glyph-name="seven" unicode="7" horiz-adv-x="416" 
d="M127 -10q-19 0 -19 10t22.5 44t59 82.5t79.5 102t85 104t76 89.5t51 57q-45 8 -94.5 11t-99.5 3q-80 0 -115 -23.5t-46 -61.5q-2 -12 -10 -12t-8 11q11 56 33 83t57.5 36t86.5 9q8 0 31.5 -1.5t53.5 -4l60 -5t53 -4.5t30 -4q7 10 20.5 20t23.5 10q12 0 12 -20
q0 -16 -14.5 -24t-26.5 -21q-71 -78 -132.5 -154.5t-115.5 -156t-106 -168.5q-6 -4 -20.5 -8t-26.5 -4z" />
    <glyph glyph-name="eight" unicode="8" horiz-adv-x="490" 
d="M147 -11q-26 0 -52.5 5.5t-43.5 21t-17 46.5q0 39 21.5 74t55 64.5t72 52.5t72.5 38q-34 12 -60 34t-26 67q0 41 21 72t55 52t74.5 31.5t79.5 10.5q53 0 82.5 -19t29.5 -53q0 -41 -26 -72.5t-62.5 -55t-69.5 -40.5q37 -16 64 -42.5t27 -67.5q0 -40 -20.5 -74t-54.5 -60.5
t-73.5 -45.5t-78.5 -29t-70 -10zM332 327q19 9 43 22t46 30t36.5 37t14.5 43q0 37 -30.5 55t-72.5 18q-34 0 -69 -13t-59 -38t-24 -63q0 -26 17 -42.5t41.5 -26.5t46.5 -19zM181 27q60 0 109.5 23t79 58.5t29.5 71.5q0 37 -28 58.5t-93 44.5q-32 -15 -67.5 -36.5t-67 -47
t-51 -53.5t-19.5 -56q0 -24 16 -38t40.5 -19.5t51.5 -5.5z" />
    <glyph glyph-name="nine" unicode="9" horiz-adv-x="497" 
d="M146 -15q-25 0 -49 9t-40 31.5t-16 61.5q0 8 1 24t13 16q9 0 9 -6v-6l-2 -13q0 -89 89 -89q31 0 68 21t73.5 58.5t67 86.5t49 105t18.5 114q0 50 -24.5 86.5t-86.5 36.5q-36 0 -65.5 -18t-50.5 -47.5t-32 -64t-11 -67.5q0 -48 28 -68t59 -20q25 0 44.5 12t38.5 26
q3 4 10 4t7 -6q0 -11 -19.5 -24.5t-46 -22.5t-49.5 -9q-30 0 -59 10t-48 33.5t-19 63.5q0 44 20 84t53.5 71t75 49.5t84.5 18.5q56 0 90 -21t49 -56t15 -78q0 -65 -24 -125.5t-63.5 -111.5t-85.5 -89t-91 -59t-80 -21z" />
    <glyph glyph-name="colon" unicode=":" horiz-adv-x="161" 
d="M178 159q-10 0 -21.5 2t-11.5 14q0 3 11 14t24 21t19 10q7 0 7 -8v-16q0 -4 -5 -13t-11.5 -16.5t-11.5 -7.5zM127 0q-10 0 -21.5 2t-11.5 14q0 5 11 15.5t24 20t19 9.5q7 0 6.5 -7t-0.5 -15q0 -4 -5 -13.5t-11 -17.5t-11 -8z" />
    <glyph glyph-name="semicolon" unicode=";" horiz-adv-x="166" 
d="M178 159q-10 0 -21.5 2t-11.5 14q0 3 11 14t24 21t19 10q7 0 7 -8v-16q0 -4 -5 -13t-11.5 -16.5t-11.5 -7.5zM45 -119q-3 -2 -6 -2q-4 0 -4.5 3.5t-0.5 4.5t6.5 9.5t15.5 18.5q14 17 26 35.5t19 40.5q4 9 4 17q0 10 -4.5 14.5t-4.5 12.5q0 6 1 9q3 9 13.5 9h14.5
q12 0 19 -11.5t7 -20.5q0 -10 -13 -30t-31.5 -43t-35.5 -42t-26 -25z" />
    <glyph glyph-name="less" unicode="&#x3c;" horiz-adv-x="379" 
d="M227 29q-8 0 -18 16q-25 38 -53.5 72.5t-60.5 65.5q-17 17 -17 26q0 7 6.5 13.5t17.5 16.5q64 60 128 122t131 118q4 4 9 4q7 0 7 -8q0 -4 -4 -12.5t-15 -20.5q-23 -28 -76 -82.5t-133 -128.5q32 -58 53.5 -100t29.5 -62q4 -12 4 -23q0 -17 -9 -17z" />
    <glyph glyph-name="equal" unicode="=" horiz-adv-x="538" 
d="M182 239q-20 0 -20 11q0 8 10.5 17t20.5 9h34.5t65.5 0.5t77.5 0.5h70.5h43q25 0 39.5 -3.5t14.5 -8.5q0 -6 -11.5 -9.5t-24.5 -4.5t-18 -2q-14 -1 -47.5 -2.5t-74.5 -3t-80 -2.5t-67 -1.5t-33 -0.5zM158 96q-23 -1 -23 11q0 8 10.5 17.5t20.5 9.5h291q24 0 38.5 -3.5
t14.5 -9.5q1 -6 -11 -9.5t-24.5 -4t-16.5 -1.5q-14 -1 -45.5 -2.5t-71 -2.5t-77.5 -2t-67 -1.5t-39 -1.5z" />
    <glyph glyph-name="greater" unicode="&#x3e;" horiz-adv-x="397" 
d="M89 30q-7 0 -7 8q0 12 18 34q23 27 76.5 81t131.5 129q-31 58 -52 100t-29 64q-6 14 -6 23q0 16 10 16q8 0 20 -16q24 -40 51.5 -73.5t60.5 -66.5q18 -18 18 -25t-7 -13t-18 -17q-64 -61 -127.5 -122.5t-131.5 -117.5q-6 -4 -8 -4z" />
    <glyph glyph-name="question" unicode="?" horiz-adv-x="472" 
d="M185 143q-10 0 -9 11q4 30 34 61t64 61q36 31 62.5 58.5t41 62t14.5 85.5q0 35 -19 59.5t-51 24.5q-34 0 -66.5 -21t-57.5 -44q-11 -11 -24.5 -30t-25.5 -34t-19 -15q-6 0 -6 19q0 35 13 66t53 36q9 1 19 5.5t17 8.5q23 11 52 18.5t58 7.5q41 0 74.5 -18.5t43.5 -65.5
q2 -8 3 -16t1 -16q0 -47 -26.5 -86.5t-64.5 -71t-72 -55.5t-62.5 -49.5t-34.5 -52.5q-1 -9 -12 -9zM127 0q-10 0 -21.5 2t-11.5 14q0 5 11 15.5t24 20t19 9.5q7 0 6.5 -7t-0.5 -15q0 -4 -5 -13.5t-11 -17.5t-11 -8z" />
    <glyph glyph-name="at" unicode="@" horiz-adv-x="767" 
d="M320 -158q-99 0 -164 32.5t-96.5 85t-31.5 112.5q0 66 25.5 128t70.5 114.5t103.5 92.5t125.5 62t137 22q74 0 127 -24t81.5 -65.5t28.5 -96.5q0 -34 -13 -71.5t-32.5 -72.5t-39.5 -62q-26 -37 -60.5 -64.5t-80.5 -27.5q-19 0 -34 8.5t-23 31.5q-3 9 -3 24q0 23 6.5 53.5
t14.5 51.5q-6 -3 -20 -19.5t-35 -39.5t-45.5 -45t-50.5 -37t-51 -15q-16 0 -35 9.5t-31 25.5q-15 20 -15 43q0 29 19.5 59.5t50 59.5t65.5 53.5t66.5 41t51.5 21.5q11 2 22.5 4t23.5 2q13 0 31 -4t32 -13.5t14 -26.5q0 -9 -7 -5q-8 14 -22.5 17.5t-28.5 3.5q-41 0 -91 -27.5
t-90 -63.5q-9 -9 -24.5 -26.5t-30.5 -39.5t-25.5 -44t-10.5 -41q0 -14 7 -24q5 -6 14 -6q15 0 38.5 15.5t49.5 37.5t47.5 42.5t31.5 30.5q6 6 21 23t32.5 36t31.5 33t17 14q5 0 17 -2.5t21 -8t4 -15.5q-21 -31 -35.5 -64t-21.5 -60.5t-7 -41.5q0 -29 15 -39q8 -6 14 -6
q16 0 34.5 13t34.5 29t22 24q34 41 55.5 94.5t21.5 105.5q0 71 -56.5 114.5t-150.5 43.5q-74 0 -145.5 -31.5t-130 -86.5t-93.5 -126.5t-35 -150.5q0 -55 24.5 -101t77.5 -74t140 -28q39 0 84 11.5t90 31.5t84 46t65 54q44 46 62.5 85t18.5 66q0 22 -12 34q-4 3 -4 6
q0 5 7 5q4 0 8 -3q27 -25 27 -71q0 -31 -16 -69t-54 -76q-30 -31 -73.5 -56t-94 -43.5t-100.5 -28.5t-93 -10z" />
    <glyph glyph-name="A" unicode="A" horiz-adv-x="847" 
d="M142 -83q-33 0 -63 11t-49 35t-19 61q0 9 4.5 16.5t8.5 7.5q8 0 8 -24q0 -34 29 -53q23 -15 62 -15t81 14t80 40q45 30 100.5 86.5t115.5 123.5q-48 5 -95.5 11t-95.5 6q-32 0 -64 -6.5t-58 -24.5t-39 -53q-1 -4 -2.5 -9t-1.5 -10q0 -10 5 -18q2 -6 2 -7q0 -9 -8 -9
q-7 0 -11 7q-10 18 -10 46q0 53 19.5 81t52.5 38t71 10q17 0 35.5 -1.5t36.5 -3.5q44 -4 91 -13.5t94 -19.5q52 61 102.5 123t94.5 117.5t75 95.5q1 3 4 4q2 2 3 2q11 6 28 10.5t23 4.5q10 0 10 -11q0 -3 -5 -11q-50 -85 -85.5 -174t-62.5 -183l-2 -7q6 0 12.5 -0.5
t11.5 -0.5q43 -3 73 9q22 8 30 23q3 4 5 4q5 0 7 -5.5t-1 -10.5q-11 -19 -39 -28q-16 -7 -36.5 -9t-42.5 -1h-6l-12 1h-6q-15 -55 -21 -114q-1 -5 -1 -9.5v-9.5q0 -57 31 -57q20 0 47.5 18t56 44t51.5 51.5t34 40.5q2 2 6 2q10 0 6 -11q-2 -3 -17 -23.5t-41 -49t-61 -56.5
q-28 -22 -55.5 -28.5t-41.5 -6.5q-28 0 -44.5 25.5t-16.5 65.5q0 29 6 60t14 62q-29 3 -59 6.5t-60 7.5q-60 -73 -119.5 -136.5t-111.5 -102.5q-39 -28 -80.5 -43.5t-83.5 -15.5zM660 220q18 70 42.5 140.5t48.5 128.5l5 12q-43 -60 -94.5 -128t-104.5 -135q26 -5 52 -9.5
t51 -8.5z" />
    <glyph glyph-name="B" unicode="B" horiz-adv-x="653" 
d="M373 -61q-57 0 -95 22t-45 68v6q-8 -11 -18.5 -26t-22 -25.5t-23.5 -10.5q-2 0 -11.5 2t-18 5t-9.5 7q-3 19 9.5 54.5t33 78.5t43 86t41.5 77.5t27 52.5q6 11 8 18.5t2 11.5q0 6 -2 10q2 12 14.5 32t31.5 40t41 33.5t41 13.5q6 0 18.5 -3.5t24 -10.5t14.5 -20q1 -3 1 -6
t-2 -3t-5.5 1.5t-5.5 1.5q-23 0 -50 -22t-55.5 -59t-55.5 -81t-51.5 -88.5t-42.5 -82t-28 -60.5q-8 -22 -8 -31q0 -14 11 -14q14 0 30 19q11 13 20.5 24.5t16.5 9.5q14 0 19 -7.5t6 -17.5t2 -18q7 -31 32.5 -51.5t71.5 -20.5q49 0 88 16t62 44.5t23 64.5q0 25 -12 52.5
t-38 55.5q-22 26 -49 49t-46.5 42.5t-19.5 33.5q0 12 16 21.5t26 9.5q23 0 58.5 9t73.5 24.5t69.5 34.5t46.5 38q9 11 14.5 23.5t5.5 24.5q0 19 -16.5 34.5t-55.5 22.5q-11 3 -26 4t-32 1q-51 0 -118 -9.5t-136 -27.5t-129 -45t-98.5 -62.5t-43.5 -78.5q-2 -25 12 -38
t33 -19.5t30 -12.5q9 -4 9 -8q0 -5 -11 -5q-12 0 -30 6t-35.5 18.5t-28.5 30.5t-8 42q0 2 -1 7.5t-1 8.5q3 32 27.5 61t58 53t62.5 40q32 17 77 31.5t96.5 25.5t104.5 17.5t99 6.5q49 0 86 -8q50 -11 77 -39t27 -62q-1 -37 -22.5 -64.5t-55.5 -46.5t-73.5 -31.5t-77.5 -18.5
t-66 -7q42 -25 83.5 -55.5t69 -66.5t27.5 -79q0 -24 -10.5 -49.5t-33.5 -54.5q-30 -37 -83.5 -59t-114.5 -22z" />
    <glyph glyph-name="C" unicode="C" horiz-adv-x="534" 
d="M211 -46q-52 0 -95.5 17.5t-69 54t-25.5 93.5q0 32 9 69q14 59 46.5 118t78 111t99.5 92.5t111.5 64t114.5 23.5q17 0 35 -3q40 -7 59.5 -29.5t19.5 -51.5q0 -34 -22 -68t-57.5 -64.5t-77 -54.5t-81.5 -39t-71 -17q-19 -1 -19 11q0 6 6.5 12.5t18.5 7.5q78 7 145.5 47.5
t103.5 110.5q8 15 12.5 30.5t4.5 29.5q0 22 -12.5 37.5t-43.5 15.5q-34 0 -80 -20.5t-96.5 -57.5t-99 -87.5t-87 -110t-59.5 -125.5q-13 -40 -13 -74q0 -61 42 -89.5t109 -28.5q58 0 127.5 20t135.5 61.5t111 105.5q3 4 7 4t7.5 -4t0.5 -8q-52 -72 -119.5 -117t-139.5 -66
t-136 -21z" />
    <glyph glyph-name="D" unicode="D" horiz-adv-x="868" 
d="M239 -63q-19 0 -30.5 12t-17.5 28t-8 31t-2 21q0 33 2.5 57.5t5.5 49.5v4q0 6 -2.5 11.5t-4.5 12.5q0 2 -0.5 3t-0.5 2q0 7 7 14q6 5 16.5 8.5t18.5 3.5q4 0 8 -2q2 -2 2 -4q0 -7 -5 -17q-5 -13 -6 -15.5t-1 -16.5q0 -8 10 -21t23 -25.5t23.5 -21.5t12.5 -9q6 16 19 44.5
t28 61.5t30 63.5t25 51.5q5 11 7 19t2 12t-1 6.5t-2 3.5q2 12 19.5 37.5t42.5 53t51 46.5t46 19q6 0 19 -3.5t25 -11.5t14 -22v-4q0 -2 -1 -2t-4 2t-7 2q-23 0 -50 -22.5t-55.5 -60t-55.5 -82.5t-51 -90t-42.5 -82.5t-29.5 -60.5q32 -24 68 -34.5t73 -10.5q60 0 119 23
t110.5 59.5t86.5 79.5q42 50 63.5 103t21.5 102q0 56 -28 100.5t-85.5 71t-146.5 26.5q-64 0 -132 -13.5t-131 -37.5t-113.5 -56.5t-80 -70.5t-29.5 -79q0 -25 16 -37.5t36 -18.5t31 -12q8 -3 8 -7q0 -6 -11 -6q-12 0 -32 6t-40 18t-32.5 29.5t-9.5 41.5q0 2 -1 7t-1 9
q0 48 28 87t76.5 69t110 50t129.5 30t134 10q59 0 120.5 -9.5t113.5 -35t83.5 -71.5t31.5 -119q0 -80 -35.5 -148t-95.5 -118.5t-133.5 -78.5t-149.5 -28q-51 0 -98.5 12.5t-82.5 39.5q-2 -3 -9.5 -17.5t-18 -31t-22 -29t-22.5 -12.5zM235 -33q8 0 17 16.5t16 35t9 22.5
q-11 9 -29.5 29t-31.5 32q0 -10 0.5 -45t6.5 -70q4 -20 12 -20z" />
    <glyph glyph-name="E" unicode="E" horiz-adv-x="716" 
d="M251 -62q-42 0 -82 7t-73 23.5t-52.5 46t-19.5 75.5q0 50 24 84.5t63 56t84.5 33.5t89 17.5t76.5 6.5q-30 35 -54 88t-24 103q0 18 4 35t13 32q10 18 32 30.5t48 19.5t48 7q37 0 61 -19.5t45 -39.5q5 -5 12.5 -11.5t16.5 -9.5q4 -1 9.5 -1.5t9.5 -3.5q8 -7 14.5 -21
t10.5 -25q6 -16 6 -42q0 -20 -4.5 -37t-13.5 -17q-5 0 -13 9q-12 14 -17 37.5t-15 42.5q-12 26 -26 48t-34 38q-8 9 -23.5 18t-35.5 9q-15 0 -25 -5q-35 -14 -49.5 -46t-14.5 -70q0 -46 15 -91.5t34 -69.5q5 -6 24.5 -7.5t27.5 -3.5q16 -1 23 -7t7 -13q0 -11 -13 -19
q-5 -5 -17 -5q-17 0 -38 6.5t-35 9.5q-30 -1 -69 -10t-79.5 -25.5t-75 -40.5t-56 -54.5t-22.5 -66.5q-1 -40 31 -69t117 -29q40 0 86 7t90.5 18.5t82.5 24.5t62 26q19 9 46 27.5t53.5 42.5t44 49.5t17.5 49.5v5t-1 5q-1 4 4 4t7 -2q14 -20 14 -44q0 -32 -22.5 -63t-53.5 -56
t-57 -39q-31 -18 -74.5 -32.5t-91 -25t-92.5 -16t-80 -5.5z" />
    <glyph glyph-name="F" unicode="F" horiz-adv-x="529" 
d="M90 294q-15 4 -34 16.5t-33 32t-14 43.5q0 11 4 22q0 1 0.5 7t1.5 10q11 50 51 82.5t98 50.5t121 22q13 1 25 1.5t23 0.5q63 0 115 -8.5t103 -17.5t111 -11q13 16 25.5 23.5t19.5 8.5q3 1 8 1q10 0 18 -5t8 -13q0 -7 -8 -15q-7 -7 -20 -16t-27 -23q-18 -17 -32.5 -38.5
t-14.5 -42.5q0 -16 8 -27q1 -1 1 -3q0 -7 -8 -7q-6 0 -12 7q-9 11 -9 43q0 17 4 36t12 35q4 6 7 11.5t7 10.5q-73 -3 -143 5.5t-141 8.5q-40 0 -92 -8t-102 -25.5t-86 -48t-46 -75.5q-1 -4 -1.5 -7t-0.5 -6q0 -19 11.5 -32t26.5 -21.5t23 -15.5q7 -4 7 -8t-4.5 -5t-10.5 1z
M189 -27q-3 0 -12 2t-17 5t-9 7q-2 20 10.5 57t34 82t44.5 88q-27 -3 -41 -3q-8 0 -16.5 7t-8.5 19q0 10 11 17.5t24.5 11.5t19.5 4q13 0 18 -9.5t10 -9.5h4q15 28 26.5 50t18.5 35q8 17 8 28q0 5 -0.5 7.5t-1.5 4.5q2 12 15 32t32 40t40.5 33.5t41.5 13.5q6 0 21 -4.5
t27 -14.5t10 -26q-7 5 -12 5q-27 0 -59 -29t-65 -75.5t-63 -98.5l34 4t34 5q36 5 74.5 10t73.5 5q6 0 13 -1.5t7 -5.5q0 -2 -4.5 -5.5t-16.5 -8.5q-16 -6 -56 -13t-88.5 -13.5t-91.5 -11.5q-25 -47 -45 -88.5t-30 -66.5q-4 -10 -6 -18t-2 -13q0 -14 10 -14q7 0 15 5.5
t15 13.5q11 13 20 24.5t16 9.5q1 -1 1 -3q0 -6 -6 -14t-7 -9q-8 -10 -19.5 -27t-24.5 -30.5t-27 -13.5z" />
    <glyph glyph-name="G" unicode="G" horiz-adv-x="798" 
d="M282 -370q-36 0 -57.5 20t-21.5 54q0 27 15 60.5t48 70.5q68 78 151.5 128t179.5 81q14 38 26 77.5t24 79.5q-49 -46 -108 -91.5t-125 -76t-137 -30.5q-52 0 -98.5 19.5t-75.5 59.5t-29 103q0 155 138 279q80 73 174.5 105.5t199.5 32.5q12 0 34.5 -2.5t46.5 -10t42 -21
t21 -34.5q1 -4 1 -7v-6q0 -12 -4 -18t-9 -6q-10 0 -10 16q-2 27 -17.5 41.5t-38 19.5t-45.5 5q-37 0 -88.5 -15.5t-108.5 -43t-112.5 -65t-100.5 -82t-72 -93.5t-27 -99q0 -69 45.5 -99.5t115.5 -30.5q68 0 144 24q57 17 98 42.5t78 59t79 73.5q18 46 47 59t54 13
q14 0 25 -2t15 -2q8 -1 8 -6q0 -9 -12 -7q-31 2 -54 -28.5t-37 -72.5q-13 -35 -25 -72t-26 -74q51 14 76 14q12 0 16 -3t4 -8q0 -9 -7 -6q-6 2 -13 2q-13 0 -33 -4.5t-36 -11.5t-20 -17q-43 -109 -91 -184t-96.5 -121.5t-92.5 -67.5t-78 -21zM310 -344q37 0 73 28.5
t69.5 73.5t61 96t47.5 97t30 74q-82 -27 -152 -72t-125 -113q-30 -37 -43.5 -69t-13.5 -57q0 -27 14.5 -42.5t38.5 -15.5z" />
    <glyph glyph-name="H" unicode="H" horiz-adv-x="750" 
d="M-3 -134q-31 0 -55.5 15.5t-32.5 46.5q-1 2 -1 5v5q0 15 7 15q6 0 11 -19q9 -25 29.5 -32.5t43.5 -7.5q43 0 83 27.5t74.5 72t63 95.5t49.5 98.5t34 80.5q-13 2 -26 2.5t-26 1.5q-7 0 -13 0.5t-13 0.5q-32 0 -63.5 -6.5t-56 -24t-36.5 -51.5q-5 -12 -5 -21q0 -8 5 -18
q3 -4 3 -8q0 -8 -10 -8q-7 0 -11 7q-5 11 -8 27.5t-2 34.5q4 46 24.5 70.5t52 33.5t67.5 9q33 0 66 -4t66 -9q17 45 31 89.5t26 82.5q-28 -26 -63.5 -39t-66.5 -17h-1q-9 0 -9 7q0 9 12 10q29 3 59 22.5t56.5 50t41.5 66.5q2 5 14 8.5t24 3.5q11 0 19 -3t6 -9
q-19 -48 -47 -122.5t-63 -157.5q61 -12 122 -26t118 -21q20 43 41 86t38 88q5 10 6 17t1 11q0 5 -0.5 7.5t-1.5 4.5q1 12 12 32t29 40t39 33.5t40 13.5q6 0 21 -4.5t28 -14t12 -25.5q-3 1 -6.5 3t-5.5 2q-22 0 -47 -24t-50 -62t-47.5 -79.5t-39.5 -77t-26 -55.5q17 0 40 3
t44 10.5t31 22.5q3 4 6 4q4 0 6 -4.5t-2 -10.5q-12 -19 -36 -28.5t-50 -12t-47 -2.5q-10 -24 -21 -56t-18.5 -64t-7.5 -57q0 -19 6.5 -31.5t22.5 -12.5q21 0 49 17.5t55.5 43.5t51 51.5t35.5 41.5q2 2 6 2q3 0 5.5 -2.5t0.5 -8.5q-2 -4 -19 -27t-47 -55q-28 -32 -66.5 -57
t-82.5 -25q-34 0 -47 21t-13 50q0 32 10 67t17 54q5 13 10.5 25.5t10.5 25.5q-63 5 -124 15t-123 17q-17 -37 -41.5 -88.5t-56.5 -105t-70.5 -100t-83 -75t-93.5 -28.5z" />
    <glyph glyph-name="I" unicode="I" horiz-adv-x="430" 
d="M52 -9q-21 0 -32.5 3.5t-11.5 16.5q0 5 1 10.5t4 12.5q5 11 17 16.5t22 5.5t18 -5q14 -10 33 -17.5t40 -7.5q24 0 49 11.5t47 42.5q30 39 56 97.5t47.5 123.5t38.5 126.5t28 106.5q-52 -4 -101 -17.5t-80.5 -38t-31.5 -60.5q0 -20 11 -32.5t25.5 -19.5t23.5 -12
q7 -4 7 -7q0 -6 -9 -2q-12 3 -30.5 13.5t-33 28.5t-15.5 41q0 2 -1.5 6t-1.5 7q-2 38 19.5 64t58 42.5t81 24t89.5 7.5l4 10q2 5 11.5 8.5t19.5 3.5t16.5 -3t6.5 -8t-5 -13q33 -3 60.5 -10t46.5 -17q7 -3 16.5 -12.5t9.5 -15.5q0 -5 -8 -5q-4 0 -10 1t-14 4q-19 7 -49.5 10
t-65.5 3q-15 -46 -35.5 -109t-46 -130.5t-55.5 -129t-63 -103.5q-10 -10 -19.5 -20t-18.5 -18q55 -1 100.5 1t76.5 3h6q11 0 11 -5t-6 -11t-10 -8q-5 -2 -34.5 -4.5t-73 -4t-90.5 -3t-87 -2t-62 -0.5z" />
    <glyph glyph-name="J" unicode="J" horiz-adv-x="573" 
d="M118 -105q-38 0 -61 21.5t-23 57.5q0 26 14.5 59t46.5 70q68 79 151.5 128t180.5 80q9 24 20.5 63t27.5 82.5t35 78.5q-45 2 -95 -3.5t-94.5 -19t-72 -37t-27.5 -57.5q0 -20 11.5 -32.5t26 -19.5t22.5 -12q7 -4 7 -7q0 -5 -10 -2q-33 7 -57 34.5t-24 61.5q-2 38 19 64
t57 42.5t81 24t91 7.5q25 0 48 -1.5t44 -5.5q11 13 24 21t27 8q11 0 11 -7q0 -8 -11 -10q-14 -2 -28 -17q13 -4 24.5 -8t21.5 -9q6 -3 15.5 -13t9.5 -15t-7 -5q-4 0 -10 1t-15 4q-24 8 -59 11q-11 -28 -22 -65t-20.5 -74t-19.5 -69q51 14 80 14q12 0 16 -3t4 -8q0 -9 -7 -6
q-6 2 -14 2q-14 0 -33 -4t-34.5 -11.5t-19.5 -17.5q-40 -109 -86.5 -185t-94.5 -122.5t-92 -67.5t-79 -21zM138 -77q37 0 73.5 28.5t69.5 73.5t61 96t48 97t30 74q-82 -27 -152 -72t-125 -113q-30 -37 -43.5 -69.5t-13.5 -56.5q0 -27 14 -42.5t38 -15.5z" />
    <glyph glyph-name="K" unicode="K" horiz-adv-x="558" 
d="M-137 -134q-31 0 -54.5 15.5t-33.5 46.5q0 2 -0.5 4t-0.5 4q0 7 2 12t5 5q7 0 11 -19q10 -25 30 -32.5t45 -7.5q8 0 16 1t15 3q45 14 84.5 50.5t73.5 88t62.5 111t51.5 120t40.5 115t29.5 94.5q-28 -26 -63 -39t-65 -17h-1q-11 0 -11 8t12 9q29 3 59 22.5t56.5 50
t42.5 66.5q2 5 13.5 8.5t23.5 3.5q11 0 19.5 -3t6.5 -9q-40 -97 -77.5 -197t-84.5 -197q20 25 41.5 49.5t48.5 52.5v13v14t1 12q2 5 6 12t8 7t7 -13q0 -4 0.5 -7t1.5 -7l2 2q9 9 34 31t59.5 52t72.5 61.5t72 60t59 47.5t33 23q15 8 27.5 11t21.5 3q16 0 23.5 -6.5t7.5 -15.5
q0 -18 -23 -30q-30 -14 -71 -37.5t-86 -52t-88 -59t-79 -59.5t-58 -53q15 -53 29 -91t34.5 -72.5t54.5 -77.5q23 -27 47 -43t43 -16q17 0 23.5 7.5t6.5 18.5q0 14 -7 29t-14 25q-5 8 -5 11q0 4 5 4q10 0 19 -9q5 -5 13.5 -22t8.5 -30q0 -20 -14 -34t-32 -20.5t-31 -6.5
q-47 0 -82.5 27t-60 70.5t-40.5 95t-25 100.5q-43 -50 -85 -101t-68 -86q-19 -32 -45 -68t-57.5 -67.5t-68 -51.5t-78.5 -20z" />
    <glyph glyph-name="L" unicode="L" horiz-adv-x="412" 
d="M594 -164q-42 0 -86.5 11.5t-83.5 27t-68 25.5q-53 19 -99 37t-65 22q-97 25 -137 25q-7 -5 -13 -8.5t-13 -4.5q-3 -1 -9 -1q-18 0 -18 12q0 7 11 14q8 4 18.5 4.5t21.5 1.5q23 20 43.5 51t29.5 47q8 14 15.5 27.5t15.5 26.5q-16 -4 -33 -7.5t-33 -3.5q-29 0 -52.5 12
t-23.5 44q0 21 18.5 39t38.5 18q12 0 12 -10q0 -6 -9 -6q-11 0 -20 -13t-9 -27q0 -10 6.5 -19.5t22.5 -11.5q15 -3 32 -3q29 0 59 8q14 28 26.5 55.5t24.5 54.5q25 55 51 107t51 93t45 61q38 36 76.5 51t69.5 15q6 0 12 -0.5t11 -1.5q37 -6 52 -25.5t15 -46.5q0 -14 -3 -29
q-13 -63 -52.5 -118t-95.5 -99.5t-119.5 -75.5t-123.5 -45q-13 -22 -27.5 -43.5t-31.5 -42.5q-10 -15 -29 -38.5t-39 -43.5q14 -1 30.5 -2.5t35.5 -4.5q83 -13 166.5 -38.5t165.5 -46.5q23 -6 65.5 -15t79.5 -9q36 0 55 13q15 9 15 25q0 12 -11 20q-6 5 -6 8q0 10 12 3
q13 -9 18.5 -21t5.5 -25q0 -15 -5.5 -27.5t-13.5 -17.5q-41 -28 -98 -28zM221 193q111 48 195 117t133 182q16 35 16 61q0 21 -13 33q-7 9 -23 9q-33 0 -68 -23q-30 -22 -56.5 -58t-49.5 -76t-40.5 -75.5t-29.5 -56.5q-8 -16 -24.5 -47t-39.5 -66z" />
    <glyph glyph-name="M" unicode="M" horiz-adv-x="1095" 
d="M41 -77q-22 0 -36 14t-14 39q0 14 5.5 31.5t18.5 37.5q23 36 59.5 80.5t77.5 88.5t77.5 80.5t58.5 56.5q10 30 19.5 62t19.5 66q-28 -26 -63.5 -39t-66.5 -15h-1q-10 0 -10 7q0 8 12 9q29 3 60 22.5t57.5 50t40.5 65.5q2 6 13.5 9t24.5 3q11 0 19.5 -2.5t6.5 -9.5
q-18 -46 -35 -88.5l-33 -82.5q59 50 110.5 83.5t83.5 35.5q57 3 89.5 -19t46 -58.5t13.5 -77.5q0 -10 -0.5 -19t-1.5 -18q-5 -46 -20 -105t-32 -110q-2 -5 -6 -17.5t-1 -12.5q1 0 10 13q25 41 48.5 80.5t50.5 81.5q40 62 87.5 125t95.5 113q19 20 39.5 30t38.5 10
q20 0 33.5 -13.5t13.5 -41.5q0 -7 -1.5 -15.5t-3.5 -18.5q-12 -48 -28 -88t-32 -78.5t-28.5 -80.5t-17.5 -93q-1 -9 -1.5 -17t-0.5 -15q0 -34 10 -49.5t26 -15.5q19 0 44.5 16.5t51.5 41t47 48t31 37.5q2 3 6 3t7 -3t0 -8q-13 -20 -36.5 -46.5t-49 -51t-45.5 -39.5
q-15 -11 -34.5 -18t-38.5 -7q-22 0 -40 11t-25 38q-3 10 -4 21t-1 23q0 42 12 93.5t30 103t34.5 94t25.5 67.5q7 14 7 26q0 21 -18 21q-15 0 -35 -17q-29 -25 -63.5 -65t-70 -88t-69 -98.5t-61 -97t-44.5 -82.5q-7 -15 -16 -15q-7 0 -13.5 9t-10 19.5t-1.5 14.5
q13 32 24 78.5t18 99t7 100.5q0 64 -16 108.5t-56 44.5q-26 0 -66 -22t-86.5 -59t-95.5 -82q-9 -22 -26.5 -64t-41 -93t-52 -101.5t-58.5 -88.5q-27 -34 -54 -50t-50 -16zM46 -42q26 0 53.5 27.5t55 70t50.5 88.5t39.5 85t23.5 58q-28 -27 -59 -59.5t-60.5 -66t-53.5 -62.5
t-38 -48q-16 -22 -23.5 -39.5t-7.5 -30.5q0 -23 20 -23z" />
    <glyph glyph-name="N" unicode="N" horiz-adv-x="784" 
d="M-88 -129q-17 0 -32 4q-41 14 -51 56q-1 3 -1 9q0 14 6 14q5 0 12 -18q7 -28 34 -34q6 -2 15 -3t17 -1q37 0 70.5 21t62 53.5t51.5 67t38 62.5q44 84 74 170.5t58 180.5q-29 -26 -64 -39t-66 -16h-1q-10 0 -10 7q0 8 12 10q29 5 60 24.5t57.5 49.5t40.5 65q2 6 14 9.5
t24 3.5q11 0 19.5 -3t6.5 -10q-4 -11 -6.5 -34t-4.5 -37q-3 -18 -3 -52q0 -43 5 -101t16.5 -119t29.5 -114t43.5 -85.5t59.5 -32.5q35 0 66 34t56 89t43 119.5t27.5 126t9.5 107.5q0 25 -3 43q-4 27 -11.5 46.5t-15.5 40.5v1q0 4 8 10.5t12 7.5q15 0 27.5 -14t23.5 -34.5
t22 -40.5t24 -32q8 -7 12.5 -9t14.5 -2l6 3q8 0 11 -1.5t4 -9.5q0 -8 -7.5 -13t-15.5 -7q-13 0 -33 13.5t-30 21.5q1 -6 1 -12v-12q0 -55 -14 -122.5t-38.5 -135.5t-57 -125t-70.5 -92t-79 -35q-48 0 -81.5 29t-56 78t-35.5 108t-18 120.5t-5 114.5q-31 -81 -61.5 -153
t-70.5 -145q-18 -33 -43.5 -71.5t-57.5 -74t-70 -58t-81 -22.5z" />
    <glyph glyph-name="O" unicode="O" horiz-adv-x="705" 
d="M316 -72q-70 0 -118.5 35t-73.5 90.5t-25 119.5t26 127t80 111t136 67q11 2 22 3.5t24 1.5q22 0 43 -6t36 -22q11 -10 11 -14t-2 -4q-3 0 -7.5 3t-9.5 4q-18 7 -40 7q-6 0 -11.5 -0.5t-10.5 -1.5q-59 -14 -105.5 -48t-79 -81t-49.5 -98.5t-17 -99.5q0 -47 17 -86
t52.5 -62t90.5 -23q15 0 32 2t36 6q40 9 81.5 38.5t79.5 73t67.5 95t47 106.5t17.5 107q0 100 -55.5 149.5t-149.5 49.5q-62 0 -123.5 -22.5t-105.5 -54.5q-45 -31 -81.5 -73.5t-59.5 -90t-28 -95.5q0 -11 -5 -11q-4 0 -8 9.5t-4 19.5q0 56 23.5 107t63.5 94t91 74.5
t106.5 49t108.5 17.5q80 1 142.5 -29t98.5 -87t36 -138q0 -79 -29.5 -148t-78 -123.5t-107 -90.5t-116.5 -49q-19 -5 -35.5 -7t-33.5 -2z" />
    <glyph glyph-name="P" unicode="P" horiz-adv-x="538" 
d="M169 -27q-2 0 -11.5 2t-18 5t-9.5 7q-2 19 10 54t32.5 78.5t42.5 85.5q-4 0 -8.5 0.5t-9.5 0.5q-12 2 -12 11q0 5 11 5q8 0 14 -0.5t13 -0.5q20 38 37 68.5t24 46.5q6 11 8 18.5t2 11.5q0 6 -2 10q2 12 14.5 32t31.5 40t41 33.5t41 13.5q6 0 18.5 -3.5t24.5 -10.5t15 -20
q1 -2 1 -6q0 -3 -3 -3q-2 0 -5.5 1.5t-5.5 1.5q-22 0 -47.5 -20.5t-52.5 -54.5t-53.5 -75.5t-50.5 -83.5q50 2 106 12.5t111 28.5t102 44t79 59q35 37 35 76q0 29 -22 54t-69 38q-28 8 -63.5 12t-76.5 4q-64 0 -131.5 -11t-126.5 -33.5t-99 -56.5t-48 -81q-3 -24 9 -38
t29.5 -21.5t27.5 -13.5q7 -6 7 -10q0 -7 -13 -5q-14 3 -34.5 14t-36 30.5t-15.5 45.5q0 4 0.5 8t1.5 8q0 1 -0.5 6.5t-0.5 9.5q6 31 30.5 58.5t56 49t58.5 34.5q47 23 113 36.5t138 13.5q44 0 87.5 -6t84.5 -19q57 -19 88.5 -58.5t28.5 -82.5q-3 -41 -28.5 -74t-65 -57.5
t-87 -42t-95.5 -28.5q-46 -10 -97.5 -15t-92.5 -6q-24 -43 -42.5 -81t-27.5 -61q-8 -22 -8 -31q0 -14 11 -14q14 0 30 19q11 13 20.5 24.5t16.5 9.5q1 -1 1 -3q0 -5 -7 -13.5t-8 -9.5q-7 -10 -18.5 -27t-24 -30.5t-26.5 -13.5z" />
    <glyph glyph-name="Q" unicode="Q" horiz-adv-x="669" 
d="M824 -214q-7 -1 -14 -1h-14q-61 0 -115 18.5t-102 47t-92 60.5t-84 60q-21 -5 -41 -8t-42 -3q-79 0 -141 29t-98 84t-36 132q0 76 29.5 142.5t78 119.5t107 88t116.5 48q17 4 33.5 6t31.5 2q62 0 103 -27.5t61 -73.5t20 -102q0 -49 -15 -100.5t-46 -98.5
q-50 -79 -116 -118t-131 -50q5 -2 14 -5.5t13 -5.5q13 -7 26.5 -15.5t26.5 -16.5q71 22 129 74t99.5 122t59.5 145q14 54 14 102q0 57 -22.5 98t-74.5 45q-16 1 -16 8q0 4 6.5 7t14.5 2q72 -11 101.5 -65.5t24.5 -128.5q-3 -63 -28 -128.5t-66.5 -125.5t-96 -105.5
t-116.5 -68.5q50 -32 105.5 -64.5t115.5 -54.5t125 -22h15.5t14.5 1q26 2 54.5 12t49 29t20.5 46q0 17 -10 36q-3 5 -3 8q0 7 7 7q10 0 15 -11q11 -21 14 -41t2 -39q-1 -35 -34.5 -65t-92.5 -35zM325 -16q13 1 25 3l24 4q-40 28 -77 41q-11 -3 -32 -9t-34 -5q-13 2 -19 9.5
t-6 15.5t7 16t20 9q8 0 30 -3.5t44 -3.5q62 18 113 60t88.5 97.5t58 115t20.5 111.5q0 62 -32 103.5t-103 41.5q-13 0 -29 -2t-33 -6q-41 -10 -82.5 -38.5t-80 -70.5t-68 -92t-47 -102.5t-17.5 -102.5q0 -94 55 -143.5t146 -49.5h15t14 1z" />
    <glyph glyph-name="R" unicode="R" horiz-adv-x="538" 
d="M717 -182q-10 0 -20 1t-21 3q-68 13 -123 45t-98.5 74.5t-79 89.5t-64.5 90.5t-54 76.5q-2 5 -4.5 3l-2.5 -2q-22 -42 -40.5 -78.5t-27.5 -58.5q-8 -22 -8 -31q0 -14 11 -14q14 0 30 19q11 13 20.5 24.5t16.5 9.5q1 -1 1 -3q0 -5 -7 -13.5t-8 -9.5q-7 -10 -18.5 -27
t-24 -30.5t-26.5 -13.5q-2 0 -11.5 2t-18 5t-9.5 7q-2 19 9.5 53.5t31.5 76.5t41 82q-16 4 -23 7q-10 7 -10 19q0 10 8 18t24 8q5 0 12 -2t11 -7q17 30 30.5 55t19.5 39q6 11 8 18.5t2 11.5q0 6 -2 10q2 12 14.5 32t31.5 40t41 33.5t41 13.5q6 0 18.5 -3.5t24 -10.5
t14.5 -20q1 -3 1 -6t-2 -3t-5.5 1.5t-5.5 1.5q-28 0 -62.5 -33.5t-70 -85.5t-66.5 -108q5 -1 11.5 -2.5t15.5 -1.5h7.5t7.5 1q64 7 130.5 25t124.5 47t96 68q35 37 35 76q0 29 -22 54t-69 38q-28 8 -63.5 12t-76.5 4q-64 0 -131.5 -11t-126.5 -33.5t-99 -56.5t-48 -81
q-3 -24 9 -38t29.5 -21.5t27.5 -13.5q7 -6 7 -10q0 -7 -13 -5q-14 3 -34.5 14t-36 30.5t-15.5 45.5q0 4 0.5 8t1.5 8q0 1 -0.5 6.5t-0.5 9.5q6 31 30.5 58.5t56 49t58.5 34.5q47 23 113 36.5t138 13.5q44 0 87.5 -6t84.5 -19q57 -19 88.5 -58.5t28.5 -82.5q-3 -41 -28.5 -74
t-65 -57.5t-87 -42t-95.5 -28.5q-39 -8 -82 -13t-81 -7q43 -53 85.5 -106.5t91 -100.5t106.5 -80.5t131 -47.5q15 -3 31 -3q26 0 51.5 8t42.5 25t17 45q0 5 -0.5 10t-1.5 10q0 2 -0.5 3t-0.5 2q0 9 7 9q10 0 13 -15t3 -28q0 -15 -2.5 -28t-6.5 -24q-9 -28 -45.5 -47
t-83.5 -19z" />
    <glyph glyph-name="S" unicode="S" horiz-adv-x="591" 
d="M163 -34q-70 0 -110 23.5t-40 66.5q0 44 26 81.5t67.5 65t87 43t84.5 15.5q20 0 20 -6q0 -9 -21 -9q-37 0 -80.5 -18t-77.5 -50q-27 -24 -40.5 -48.5t-13.5 -45.5q0 -31 29 -51.5t87 -20.5q34 0 69 5.5t63.5 12.5t43.5 11q37 12 74.5 29t67.5 38.5t44 43.5q8 12 11.5 23
t3.5 21q0 28 -25 47.5t-64 35.5t-83 30.5t-83 30.5t-64 36.5t-25 49.5q0 33 24.5 59.5t63 47t82.5 34t84 20.5t66 7q110 0 110 -55q0 -22 -18 -51q-8 -15 -23 -28.5t-23 -13.5q-6 0 -6 7q0 3 11 12.5t22 23.5t11 28q0 21 -23.5 32t-61.5 11q-18 0 -52 -5.5t-74 -17.5
t-77 -32q-69 -38 -69 -65q0 -20 39 -38q29 -13 67 -27t77 -30t72.5 -36t54 -44.5t20.5 -55.5q0 -42 -46 -86q-36 -34 -83.5 -63t-100 -50t-103.5 -32.5t-95 -11.5z" />
    <glyph glyph-name="T" unicode="T" horiz-adv-x="336" 
d="M90 294q-15 4 -34 16.5t-33 32t-14 43.5q0 11 4 22q0 1 0.5 7t1.5 10q11 50 51 82.5t98 50.5t121 22q12 1 24 1h24q70 0 139 -9t125.5 -17.5t89.5 -9.5q28 29 41 32q3 1 9 1q11 0 20 -5.5t9 -15.5q0 -9 -8 -17q-7 -7 -22 -17t-29 -25q-20 -20 -36 -45t-16 -48
q0 -17 8 -29q2 -2 2 -4q0 -8 -8 -8q-7 0 -15 8q-8 10 -8 43q0 20 4 43t14 42q4 7 11.5 16.5t11.5 14.5q-72 1 -146 8t-146 7q-34 0 -76 -4.5t-86 -14.5t-82 -28.5t-65 -45.5t-35 -65q-1 -4 -1.5 -7t-0.5 -6q0 -19 11.5 -32t26.5 -21.5t23 -15.5q7 -4 7 -8t-4.5 -5t-10.5 1z
M189 -27q-3 0 -12 2t-17 5t-9 7q-3 19 9.5 54.5t33 78.5t43 86t41.5 77.5t28 52.5q8 17 8 28q0 5 -0.5 7.5t-1.5 4.5q2 12 15 32t32 40t40.5 33.5t41.5 13.5q6 0 21 -4.5t27 -14.5t10 -26q-7 5 -12 5q-23 0 -50 -22t-55.5 -59t-56 -81t-51.5 -88.5t-42 -82t-28 -60.5
q-4 -10 -6 -18t-2 -13q0 -14 10 -14q7 0 15 5.5t15 13.5q11 13 20 24.5t16 9.5q1 -1 1 -3q0 -6 -6 -14t-7 -9q-8 -10 -19.5 -27t-24.5 -30.5t-27 -13.5z" />
    <glyph glyph-name="U" unicode="U" horiz-adv-x="526" 
d="M452 -188q-36 0 -54 28t-24 69q-2 15 -3.5 31.5t-1.5 34.5q0 35 4 75.5t11 83.5q-38 -37 -82.5 -72.5t-92 -58.5t-95.5 -23q-25 0 -44.5 15t-24.5 50q-1 7 -1.5 13.5t-0.5 13.5q0 44 15 92t37.5 96.5t46 95.5t39.5 87q2 3 2 5.5v3.5q0 4 -3 4q-6 0 -22 -13
q-34 -28 -70 -48t-67 -22h-1q-9 0 -9 6q0 9 13 11q17 2 41.5 15.5t51.5 33.5t51.5 41.5t42 39.5t22.5 28q2 5 14.5 9t24.5 4q11 0 19 -3t6 -10q-7 -11 -26.5 -43.5t-45 -78t-51 -97.5t-45 -102.5t-27.5 -91.5q-2 -13 -3 -24.5t-1 -22.5q0 -40 14 -56.5t35 -16.5
q26 0 57.5 14.5t64 38t63.5 50.5t56 52q10 65 24.5 127t31 114t32.5 84q24 52 57 82.5t79 28.5q34 -3 47 -21t13 -42q0 -18 -6 -38q-13 -44 -40.5 -88.5t-61.5 -87.5t-68 -83t-61 -75q-5 -27 -9.5 -61.5t-7 -67.5t-2.5 -57q0 -97 33 -138q12 -15 28 -15q12 0 21 10
q4 8 12 16q6 6 10 6q7 0 4 -13q-1 -4 -4.5 -9.5t-8.5 -10.5q-7 -9 -25 -14t-34 -5zM450 234q36 34 73.5 83t68 103t43.5 102q2 8 3 15.5t1 13.5q0 29 -18 29q-15 0 -37 -23q-55 -61 -84.5 -143.5t-49.5 -179.5z" />
    <glyph glyph-name="V" unicode="V" horiz-adv-x="613" 
d="M211 -58q-53 0 -74 20.5t-21 53.5q0 31 14 70q21 59 48.5 122.5t52.5 124.5q22 52 44 107t30 95q-44 0 -89.5 -7t-84.5 -21t-62.5 -36t-23.5 -53q0 -20 11.5 -32.5t25.5 -19.5t22 -12t8 -8q0 -2 -4 -2q-8 0 -28.5 10.5t-37.5 29.5t-18 44q0 2 -2 6t-2 7q-2 38 19.5 64
t58.5 42.5t82 24t91 7.5h18t18 -1q-1 7 -5 12q-2 4 -2 6q0 8 9 8q10 0 19 -15q4 -7 5 -14q57 -6 95 -25q8 -3 18 -12.5t10 -15.5q0 -5 -8 -5q-4 0 -10 1t-14 4q-36 11 -89 13q-2 -43 -17 -101.5t-39 -112.5q-31 -72 -59.5 -147.5t-34.5 -139.5q-1 -4 -1 -8v-8q0 -27 11 -39
t29 -12q28 0 67 21.5t76 49.5q68 51 116.5 110t93.5 130q41 65 78.5 130t86.5 123q12 16 33 33t46.5 29t50.5 12q8 0 17 -2t16 -7q7 -4 4.5 -7.5t-4.5 -3.5q-3 0 -6 0.5t-5 0.5q-22 0 -52.5 -29t-68.5 -77.5t-82.5 -108.5t-93.5 -123q-51 -66 -105.5 -127.5t-110.5 -105.5
q-43 -34 -85.5 -53.5t-84.5 -19.5z" />
    <glyph glyph-name="W" unicode="W" horiz-adv-x="975" 
d="M93 -79q-43 0 -61.5 15.5t-18.5 40.5q0 20 10 45t26 52q35 60 79.5 125.5t87.5 129.5q23 35 48.5 71.5t48 71t35.5 62.5q-10 1 -20 1h-21q-43 0 -89 -6.5t-85.5 -20.5t-63.5 -36.5t-24 -54.5q0 -20 11.5 -32t26 -19t21.5 -12q8 -5 8 -8q0 -2 -4 -2q-8 0 -28.5 10.5
t-37.5 29.5t-18 44q0 2 -2 6t-2 7q-2 38 19 64t57.5 42.5t81.5 24t90 7.5q50 0 95 -8q1 4 1.5 7t0.5 6q0 5 -2 9q-1 2 -1 5q0 8 9 8q5 0 10.5 -3.5t8.5 -12.5q1 -2 1 -7q0 -8 -3 -17q12 -4 21.5 -8t18.5 -8q8 -3 18 -12.5t10 -15.5q0 -5 -8 -5q-4 0 -10 1t-14 4
q-10 3 -21 5.5t-23 4.5q-16 -43 -48 -101.5t-69 -113.5q-33 -50 -66.5 -102t-61 -102t-43.5 -95q-4 -13 -6 -23.5t-2 -18.5q0 -32 31 -32q27 0 71 21t90 52q83 58 157.5 131t132.5 155q-1 12 -1.5 25.5t-0.5 28.5q0 24 1.5 49t5.5 44q1 8 9.5 21.5t20 24.5t20.5 11t14.5 -12
t5.5 -42q0 -29 -5.5 -67.5t-23.5 -75.5q-1 -58 11.5 -112.5t36 -97.5t53.5 -67.5t64 -23.5q38 1 68.5 27.5t53 71t34.5 97.5t12 106t-13.5 100.5t-42.5 78.5q-32 34 -82 34h-8.5t-9.5 -1q-25 -3 -44 -18q-4 -2 -7 -2q-12 0 -12 10q0 4 4 7q55 38 108 38q39 0 71 -21
q41 -26 59.5 -77t18.5 -112q0 -63 -18 -129.5t-50 -122.5t-76 -90.5t-95 -34.5q-39 0 -74.5 21.5t-61.5 60.5t-39.5 90t-9.5 109q-32 -40 -76.5 -85.5t-93 -88t-92.5 -74.5q-51 -36 -102.5 -59.5t-105.5 -23.5z" />
    <glyph glyph-name="X" unicode="X" horiz-adv-x="679" 
d="M-76 -144q-52 0 -96 29q-38 27 -38 77q0 11 4 20t10 9q3 0 5 -7t2 -24q0 -28 26 -46q16 -10 33.5 -14t36.5 -4q44 0 94.5 20.5t103 54t102.5 74t92.5 80.5t73.5 73q-16 54 -24 111.5t-8 114.5q0 25 1.5 49.5t3.5 48.5q1 5 2 11t3 11q-11 1 -22.5 1.5t-24.5 0.5
q-44 0 -90 -6.5t-85 -20.5t-63 -36.5t-24 -54.5q0 -20 13.5 -32t30 -18.5t23.5 -12.5q5 -2 5 -5t-4.5 -5t-9.5 -1q-12 4 -30.5 15t-33.5 29t-15 40q0 1 -2 5.5t-2 6.5q-2 38 19.5 64.5t58 43t81.5 24t90 7.5q56 0 101 -9q9 12 21 14h1q8 0 11.5 -7t3.5 -16q6 -2 11.5 -4.5
t10.5 -4.5q7 -4 16.5 -14.5t9.5 -16.5q0 -4 -7 -4q-6 0 -26 6q-4 1 -9 2.5t-11 2.5q-2 -19 -3 -38.5t-1 -39.5q0 -105 26 -206q51 60 97 121t86.5 117.5t74.5 100.5q4 5 11 5q12 0 12 -11q0 -4 -3 -9q-55 -85 -124 -179t-143 -179q6 -19 18.5 -51t30.5 -64.5t39.5 -55
t45.5 -22.5q18 0 42 15t48.5 37t44.5 44t30 37q3 3 7 3q11 0 6 -11q-6 -11 -25.5 -35.5t-45 -50.5t-48.5 -43q-48 -36 -85 -36q-28 0 -52.5 19t-45 47.5t-35 59t-22.5 52.5q-31 -34 -72 -75t-89 -82.5t-99 -75.5t-102 -55t-99 -21z" />
    <glyph glyph-name="Y" unicode="Y" horiz-adv-x="526" 
d="M87 -370q-36 0 -57.5 20.5t-21.5 54.5q0 26 14.5 59.5t47.5 70.5q68 78 151.5 128t180.5 81q6 17 17 56t25 91t29 106q-39 -60 -84 -116.5t-92.5 -102t-94 -72t-88.5 -26.5q-25 0 -44.5 15t-24.5 50q-1 7 -1.5 13.5t-0.5 13.5q0 44 15 92t37.5 96.5t46 95.5t39.5 87
q2 3 2 5.5v3.5q0 4 -3 4q-6 0 -22 -13q-34 -28 -70 -48t-67 -22h-1q-9 0 -9 6q0 9 13 11q17 2 41.5 15.5t51.5 33.5t51.5 41.5t42 39.5t22.5 28q2 5 14.5 9t24.5 4q11 0 19 -3t6 -10q-7 -11 -26.5 -43.5t-45 -78.5t-51 -97.5t-45 -102t-27.5 -91.5q-2 -13 -3 -24.5t-1 -22.5
q0 -40 14 -56.5t35 -16.5q34 0 74 27.5t82.5 74t82.5 104t75.5 118.5t61.5 116q8 17 13.5 31.5t12.5 26.5q4 8 7 13.5t7 7.5q12 20 34 27.5t44 7.5q19 0 32.5 -2.5t19.5 -3.5q10 -1 10 -9q0 -4 -4 -7.5t-11 -3.5q-39 4 -63.5 -25t-46.5 -86q-8 -19 -20.5 -58.5t-27.5 -87
t-29.5 -94.5t-26 -83t-16.5 -51q50 14 77 14q11 0 15 -3q3 -3 3 -7t-2 -6.5t-6 -0.5t-12 2q-13 0 -32.5 -4.5t-36 -11.5t-20.5 -17q-57 -145 -122.5 -231.5t-127 -124.5t-107.5 -38zM115 -344q37 0 73 28.5t69 73.5t60.5 96t48 97t30.5 74q-82 -27 -152 -72t-125 -113
q-31 -37 -44 -69.5t-13 -56.5q0 -27 14.5 -42.5t38.5 -15.5z" />
    <glyph glyph-name="Z" unicode="Z" horiz-adv-x="523" 
d="M606 -199q-8 -1 -16 -1.5t-16 -0.5q-56 0 -109 17.5t-102 45t-95.5 57.5t-89.5 56.5t-84 40.5q-18 -9 -36.5 -13t-24.5 -2q-22 8 -22 30q0 19 21 29q6 2 23.5 -2.5t38.5 -6.5q43 17 100.5 70t119.5 119q-28 -1 -51 -2t-34 0q-7 0 -16 8t-9 20q0 9 10.5 16t23 10.5
t19.5 3.5q13 0 18 -9.5t12 -10.5q5 -1 10 -1h10q10 0 20 0.5t20 0.5q46 50 91 97.5t85 84t70 52.5q-50 16 -119.5 28t-135.5 12q-27 0 -52.5 -2.5t-47.5 -8.5q-34 -8 -58.5 -30.5t-24.5 -44.5q0 -8 3 -14q4 -7 4 -13t-4 -6t-13 10q-14 17 -14 38t13.5 41t34 35.5t42.5 22.5
q29 10 61 14t66 4q71 0 145 -14t135 -30q7 8 22.5 18.5t33.5 18.5t32 8q21 0 21 -23q0 -22 -15.5 -39t-38 -26.5t-42.5 -9.5q-9 0 -13 1q-34 -19 -71 -54t-75.5 -78.5t-78.5 -88.5q35 4 71 7t70 1q8 -1 15 -3t7 -6q0 -2 -4.5 -5t-17.5 -7q-12 -3 -39 -7t-62 -7.5t-71 -7.5
q-50 -54 -105 -105.5t-120 -89.5h-1q-8 -7 -8 -15q0 -10 11 -17q65 -34 129 -73t130.5 -66t136.5 -27q8 0 16.5 0.5t16.5 1.5q20 3 41.5 12t36 25t14.5 39q0 22 -16 48q-3 6 -3 9q0 6 6 6q9 0 13 -10q13 -22 19 -42.5t9 -37.5q0 -3 0.5 -6t0.5 -6q0 -32 -23 -58t-70 -31z
" />
    <glyph glyph-name="bracketleft" unicode="[" horiz-adv-x="447" 
d="M9 -130q-16 0 -21.5 4.5t-5.5 11.5q0 12 17.5 50t47 92.5t66 118.5t75 128.5t73.5 122.5t62.5 101t40.5 63q11 12 17.5 16t22.5 4h145q8 0 10.5 -2.5t2.5 -4.5q0 -5 -11 -14t-19 -10q-38 -4 -66.5 -5t-56.5 -1q-25 -34 -61.5 -88.5t-79 -122.5t-86 -142t-82.5 -147.5
t-67 -138.5h131q12 0 12 -6q0 -13 -21 -19.5t-50.5 -8.5t-55.5 -2h-40z" />
    <glyph glyph-name="backslash" unicode="\" horiz-adv-x="319" 
d="M293 -12q-7 0 -15.5 5.5t-10.5 13.5q-14 55 -37 118t-50 126.5t-53.5 120.5t-49 100.5t-35.5 65.5q-1 1 -1 3q0 5 5.5 7.5t12.5 2.5q19 0 25 -10q7 -9 22 -40t34.5 -76t42 -97.5t43.5 -105t38.5 -99t28 -79.5t10.5 -45v-2q0 -9 -10 -9z" />
    <glyph glyph-name="bracketright" unicode="]" horiz-adv-x="447" 
d="M-18 -127q-14 0 -14 6q0 5 11.5 14t19.5 10q38 4 66.5 5t55.5 1q25 34 61.5 89t79.5 122.5t86.5 141.5t82.5 147.5t67 138.5h-131q-13 0 -13 6q0 14 21 20t51 8t56 2h40q16 0 21.5 -4t5.5 -12q0 -12 -17.5 -50t-47 -92.5t-66 -118t-75 -128t-74 -122.5t-62.5 -101
t-41 -63q-10 -13 -16.5 -16.5t-23.5 -3.5h-144z" />
    <glyph glyph-name="asciicircum" unicode="^" horiz-adv-x="584" 
d="M444 520q-7 0 -18 8q-10 8 -26 23t-32.5 30.5t-26.5 22.5q-38 -18 -73 -34t-74 -36q-14 -7 -20 -7q-7 0 -5 7t9 16t14 14q11 6 33.5 20.5t49 30.5t50 27.5t34.5 11.5q17 -4 34.5 -24t33.5 -42t28 -34q5 -5 5 -13q0 -7 -4 -14t-12 -7z" />
    <glyph glyph-name="underscore" unicode="_" horiz-adv-x="630" 
d="M0 -53v26h630v-26h-630z" />
    <glyph glyph-name="grave" unicode="`" horiz-adv-x="239" 
d="M228 694q-6 0 -26 8t-44 19.5t-44.5 22.5t-27.5 17q-4 3 -7 6t-3 7q0 9 11 17q8 6 15 6q5 0 15 -8t24 -20q27 -21 48.5 -36.5t31.5 -20.5q15 -7 15 -14q0 -4 -8 -4z" />
    <glyph glyph-name="a" unicode="a" horiz-adv-x="453" 
d="M319 -10q-17 0 -31.5 8t-21.5 30q-3 9 -3 25q0 22 6 49t13 46q-5 -2 -18.5 -17.5t-33 -37t-43 -43t-48.5 -35.5t-49 -14q-16 0 -34 9.5t-29 24.5q-15 20 -15 41q0 27 18.5 56t48 56.5t63 50t64 38t49.5 20.5q20 6 45 6q14 0 29 -3.5t25 -11.5q8 -4 13 -11t5 -15t-7 -5
q-8 12 -21.5 15.5t-27.5 3.5q-40 0 -88 -26t-86 -61q-12 -10 -32.5 -34.5t-37.5 -53.5t-17 -53q0 -13 7 -23q4 -7 13 -7q14 0 37.5 15t48.5 36.5t45.5 41.5t29.5 29q5 5 19.5 20.5t31.5 33.5t30.5 31t17.5 13q5 0 16.5 -2.5t19.5 -7.5t3 -13q-26 -38 -41.5 -79.5
t-18.5 -65.5q-1 -4 -1 -7.5v-7.5q0 -40 28 -40q15 0 40 18t51 43t47.5 48.5t29.5 35.5q3 3 6 3q4 0 7 -3.5t0 -8.5q-11 -18 -32 -43t-47 -50t-51 -43q-13 -10 -33 -17.5t-40 -7.5z" />
    <glyph glyph-name="b" unicode="b" horiz-adv-x="382" 
d="M80 -28q-10 0 -23.5 2t-23.5 5t-10 5t9.5 3.5t33.5 1.5q25 0 54.5 12.5t56.5 29.5t46 30q30 22 62 56.5t45 75.5q2 7 5 19t3 24q0 11 -4 18.5t-15 7.5q-20 0 -41.5 -11t-41 -25.5t-33.5 -27.5q-12 -9 -29 -27t-33.5 -40t-26.5 -43.5t-7 -38.5q2 -4 -2.5 -16t-15.5 -12
q-9 0 -21 17q-7 8 -7 33q0 23 5 50t9 44q-10 -12 -17.5 -25.5t-30.5 -39.5q-4 -4 -9 -4q-7 0 -7 8q0 6 4 10q36 46 60.5 78.5t30.5 46.5q8 21 21.5 54t30.5 70.5t35 73t35 61.5q15 23 35 46.5t45 39t54 15.5q11 0 24 -3q1 0 5 -2l10 -3q2 -1 3 -1t2 -1q28 -17 28 -47
q0 -24 -16 -54q-14 -28 -45.5 -64.5t-72 -74t-83 -72t-77.5 -58.5q-10 -19 -18 -44t-13 -50q20 29 45 56.5t44 43.5q31 26 60.5 41.5t54.5 15.5q12 0 29.5 -8t32 -20.5t16.5 -26.5q0 -3 0.5 -5.5t0.5 -5.5q0 -27 -15 -55t-37.5 -53t-47 -45t-43.5 -33q-38 -25 -80.5 -41.5
t-88.5 -16.5zM151 259q46 30 92 71t85.5 86t63.5 84q15 24 15 47q0 11 -4.5 18.5t-14.5 7.5q-7 0 -16.5 -4t-20.5 -14q-42 -32 -78 -80t-66 -103.5t-56 -112.5z" />
    <glyph glyph-name="c" unicode="c" horiz-adv-x="312" 
d="M158 -11q-18 -3 -36 -3q-44 0 -73 21t-29 61q0 24 14 58q10 23 37 53t63 58.5t73 47t67 18.5q11 0 20 -3q11 -4 19 -11t8 -21v-6t-2 -7q0 -3 -4.5 -13t-10 -17.5t-9.5 -3.5q-4 3 -4 8t2.5 11.5t2.5 11.5q0 7 -3.5 13.5t-11.5 6.5q-19 0 -49 -17t-61.5 -45.5t-56.5 -62.5
t-35 -68q-3 -8 -4 -15.5t-1 -14.5q0 -22 14.5 -31.5t35.5 -9.5q23 0 47 7q68 20 110.5 55t85.5 90q4 5 7 4t5 -1q3 -1 3 -6q0 -2 -1 -5t-2 -5q-43 -58 -95 -101.5t-126 -56.5z" />
    <glyph glyph-name="d" unicode="d" horiz-adv-x="374" 
d="M308 -109q-26 4 -37 25t-11 52q0 37 10.5 80t24.5 81t22 58q-23 -27 -52.5 -59t-61.5 -61t-61.5 -47.5t-51.5 -18.5q-16 0 -34 9.5t-29 24.5q-15 20 -15 41q0 27 18.5 56t48 56.5t63 50t64 38t49.5 20.5q10 2 21 4t23 2q15 0 30 -3.5t25 -11.5l4 -3q24 55 53 111.5
t62 103.5t70 75.5t77 28.5q5 0 10 -0.5t9 -1.5q25 -5 35.5 -17.5t10.5 -29.5q0 -12 -4.5 -25.5t-12.5 -26.5q-22 -39 -57.5 -77t-77.5 -73.5t-83.5 -68.5t-75.5 -62q-15 -35 -30 -82t-25 -80q-6 -24 -9.5 -45t-3.5 -39q0 -33 12 -54q10 -16 25 -16q11 0 20 8q4 2 7.5 5
t8.5 6q6 3 10 3q7 0 1 -11q-3 -3 -7 -7.5t-9 -9.5q-7 -5 -21 -8t-28 -3q-4 0 -8.5 0.5t-8.5 1.5zM404 279q40 27 87 67.5t88 87t63 88.5q13 24 13 38q0 17 -15 17q-14 0 -37 -16q-67 -52 -113 -123.5t-86 -158.5zM62 25q5 -6 13 -6q15 0 35.5 13t27.5 20q51 41 102.5 88.5
t96.5 95.5q4 9 7 17.5t7 16.5q-15 6 -35 6q-40 0 -88 -26t-86 -61q-12 -10 -32.5 -34.5t-37.5 -53.5t-17 -53q0 -13 7 -23z" />
    <glyph glyph-name="e" unicode="e" horiz-adv-x="319" 
d="M131 -15q-45 0 -78 21t-33 64q0 23 14 56q10 23 37 53t63 58.5t73 47t67 18.5q11 0 20 -3q17 -6 23.5 -19t6.5 -27q0 -13 -4 -25t-10 -21q-18 -27 -51.5 -48t-68 -33t-56.5 -14h-2q-13 0 -13 8q0 5 8 5q24 2 60.5 22.5t64.5 42.5q12 10 28.5 28t16.5 35q0 18 -17 18
q-9 0 -18.5 -4t-15.5 -6q-29 -14 -64 -43.5t-63.5 -66t-39.5 -73.5q-3 -8 -4 -15.5t-1 -14.5q0 -24 15.5 -34t37.5 -10q33 0 68 14.5t68 37.5t60.5 49.5t46.5 51.5q3 4 7 4.5t5 -1.5q4 -1 4 -5.5t-2 -8.5q-28 -39 -67.5 -76t-87 -61.5t-98.5 -24.5z" />
    <glyph glyph-name="f" unicode="f" horiz-adv-x="285" 
d="M-71 -340q-9 0 -9 6q0 5 2 9q4 7 18 40.5t34.5 85t44.5 111t47 118t42 106.5q-18 -3 -32 -4t-20 -1q-9 0 -18 6t-9 16q0 9 12 15.5t26.5 10t21.5 3.5q11 0 16.5 -8t12.5 -8h2q11 28 18.5 46.5t9.5 26.5q8 21 22 54t31 70.5t35.5 73t34.5 61.5q15 23 35.5 46.5t45 39
t52.5 15.5q12 0 23 -2.5t21 -7.5q30 -17 30 -49q0 -13 -4.5 -28.5t-12.5 -32.5q-13 -29 -42.5 -69t-68 -83t-79.5 -83t-79 -70q26 2 53 4.5t54 2.5q7 0 14.5 -1.5t7.5 -4.5q0 -2 -4.5 -4.5t-17.5 -6.5q-8 -2 -32 -6.5t-55.5 -8.5t-62.5 -8q-14 -36 -32.5 -85.5t-37 -100
t-33.5 -90.5q-12 -35 -15 -51t-3 -24v-7q0 -4 -0.5 -8t-3.5 -11q-18 -46 -24 -62.5t-17 -23.5q-8 -4 -25 -11t-29 -7zM163 172q37 28 76 68t76 85.5t67.5 89.5t50.5 78q17 28 17 53q0 27 -19 27q-16 0 -38 -18q-19 -14 -45.5 -46.5t-52 -72t-44.5 -74.5q-22 -42 -40 -80.5
t-29 -64t-13 -30.5q-3 -6 -6 -15z" />
    <glyph glyph-name="g" unicode="g" horiz-adv-x="415" 
d="M-2 -367q-12 3 -21 6q-19 10 -27 22.5t-8 26.5q0 23 15.5 49.5t40.5 54.5q25 30 63.5 61t80.5 59.5t74 49.5q35 71 62 134.5t38 97.5q-21 -23 -45 -51.5t-35 -41.5q-19 -20 -43 -43.5t-50.5 -40t-51.5 -16.5q-16 0 -34 9.5t-29 24.5q-15 20 -15 41q0 27 18.5 56t48 56.5
t63 50t64 38t49.5 20.5q18 6 44 6q12 0 29 -4t30.5 -12.5t13.5 -24.5q0 -8 -8 -5q-7 12 -20.5 15.5t-27.5 3.5q-39 0 -87.5 -26t-86.5 -61q-12 -10 -33 -34.5t-37.5 -53.5t-16.5 -53q0 -13 7 -23q3 -5 12 -5q19 0 46.5 17t58.5 43t60.5 55.5t52.5 54.5t34 38q2 5 7 7t11 2
q16 0 33.5 -8.5t14.5 -14.5q-19 -41 -44.5 -95t-53.5 -113q13 7 43 31t66 57.5t67 69.5q12 13 18 13t3 -10.5t-16 -26.5q-16 -19 -44 -45.5t-59 -54t-57.5 -49t-41.5 -29.5q-31 -66 -60 -124.5t-53 -94.5q-16 -25 -39 -51t-50 -43.5t-57 -17.5q-4 0 -8 0.5t-9 1.5zM-12 -341
q6 -4 17.5 0t29.5 18q39 31 67 72.5t51 87t44 87.5q-39 -29 -88 -68.5t-89 -78.5q-20 -20 -33.5 -44.5t-13.5 -44.5q0 -21 15 -29z" />
    <glyph glyph-name="h" unicode="h" horiz-adv-x="455" 
d="M48 -13q-8 0 -4 7q2 6 10.5 30t20.5 58t25 69.5t24 63.5q-7 -9 -21.5 -26t-30.5 -36t-30 -33q-3 -3 -4 -3q-3 0 -3 6q0 12 6 22q22 28 42.5 52.5t37.5 46.5q-10 6 -10 15q0 14 14 14q6 0 9 -2q1 -1 2 -1t2 -2q5 7 8.5 13t6.5 13q4 9 16.5 34.5t31.5 60.5t43.5 72.5t53 70
t59 52.5t62.5 20q4 0 8 -0.5t8 -1.5q25 -5 35 -17.5t10 -29.5q0 -12 -4.5 -25.5t-12.5 -26.5q-20 -35 -53 -70.5t-73.5 -70t-81 -67t-75.5 -61.5q-24 -51 -37 -90.5t-20 -63.5q11 14 33 40t50 56t58 57.5t57 45t46 17.5q24 0 24 -25q0 -24 -17 -53t-28 -49
q-14 -29 -22.5 -55.5t-10.5 -43.5q-1 -4 -1 -7.5v-7.5q0 -40 28 -40q15 0 40 18t51 43t47.5 48.5t29.5 35.5q3 3 7 3t6 -3t0 -8q-10 -17 -31 -42.5t-47 -51t-51 -43.5q-13 -10 -33.5 -17.5t-40.5 -7.5q-16 0 -31 8t-22 30q-3 9 -3 25v10.5t1 11.5q4 32 21.5 67.5t32.5 63.5
q4 8 6.5 14t2.5 10q0 8 -7 8t-22 -9t-40 -31q-22 -19 -46.5 -49.5t-48 -62.5t-41 -55t-24.5 -27q-5 -3 -23 -10t-26 -7zM199 279q40 27 87 67.5t88.5 87t63.5 88.5q12 23 12 38q0 17 -15 17q-7 0 -16 -3.5t-21 -12.5q-67 -52 -113 -123.5t-86 -158.5z" />
    <glyph glyph-name="i" unicode="i" horiz-adv-x="226" 
d="M198 348q-13 0 -27 2.5t-14 18.5q0 3 13.5 14t28 22.5t17.5 13.5q17 14 21 14q5 0 0 -13t-5 -23q0 -5 -6 -17t-14 -22t-14 -10zM89 -10q-18 0 -32.5 8t-21.5 30q-1 3 -1.5 6t-0.5 7q0 20 9 50t22 58q-6 -8 -14 -19.5t-23 -29.5q-4 -4 -9 -4q-7 0 -7 8q0 6 4 10
q26 33 46.5 59t30.5 44q0 1 -0.5 1.5t-0.5 1.5q0 3 3 9q8 24 16.5 40.5t18.5 18.5q2 0 4 0.5t4 0.5q11 0 20 -5t9 -15q0 -9 -6.5 -22t-16.5 -32q-22 -46 -39.5 -83.5t-19.5 -61.5q-1 -4 -1 -7.5v-7.5q0 -40 26 -40q16 0 41 17.5t51 43t47.5 49t29.5 35.5q3 3 6 3q4 0 6.5 -3
t0.5 -8q-9 -17 -30.5 -42.5t-48 -51t-51.5 -43.5q-13 -10 -32.5 -17.5t-39.5 -7.5z" />
    <glyph glyph-name="j" unicode="j" horiz-adv-x="215" 
d="M262 402q-13 0 -27.5 3t-14.5 19q0 2 13.5 13t28 22.5t17.5 13.5q19 13 22 13q5 0 0 -12.5t-5 -23.5q0 -5 -6.5 -17t-14.5 -21.5t-13 -9.5zM-204 -367q-5 2 -10.5 3.5t-8.5 2.5q-19 10 -27.5 22.5t-8.5 27.5q0 23 15.5 49t39.5 54q26 30 65 61t80.5 59.5t73.5 49.5
q31 64 57.5 126t48.5 129q-10 -14 -30 -37t-34 -40q-4 -6 -9 -6q-6 0 -6 7q0 6 4 10q25 31 51 65t39 52q5 8 19 8q17 0 34 -10.5t14 -16.5q-27 -61 -54 -122.5t-55 -121.5q13 7 43 31t66 58t67 70q12 13 18 13t3 -10.5t-17 -26.5q-16 -19 -43.5 -45.5t-58 -54t-57 -49
t-41.5 -29.5q-31 -66 -60 -124.5t-54 -94.5q-16 -25 -39 -51t-50 -43.5t-58 -17.5q-4 0 -8 0.5t-9 1.5zM-214 -341q4 -2 8 -2q16 0 40 20q38 31 66.5 72.5t51.5 87t44 87.5q-39 -29 -88.5 -68.5t-88.5 -78.5q-20 -20 -34 -45t-14 -45q0 -19 15 -28z" />
    <glyph glyph-name="k" unicode="k" horiz-adv-x="344" 
d="M388 -154q-37 0 -70.5 26.5t-61.5 70t-47.5 95t-28.5 100.5q-34 -48 -58.5 -88t-35.5 -46q-5 -3 -23 -10t-27 -7q-7 0 -4 7q2 4 10 25.5t19 53.5t23.5 67t24.5 66q-10 -11 -23 -27.5t-30 -41.5q-3 -5 -10 -5t-7 6t7 14q14 17 30 39t31 43t24 34q-15 8 -15 21
q0 8 6.5 12.5t13.5 -0.5q4 -2 7 -2q17 45 43 97.5t60 100t73.5 77.5t83.5 30q5 0 10.5 -0.5t10.5 -1.5q6 -1 11.5 -4t10.5 -5q23 -13 23 -38q0 -18 -10 -39.5t-24.5 -42.5t-28.5 -38t-22 -26q-49 -50 -105.5 -91t-98.5 -58q-16 -34 -30 -69.5t-23.5 -65t-14.5 -45.5
q17 21 32.5 42.5t31.5 42.5q0 4 -0.5 8t-0.5 8q0 6 0.5 11.5t1.5 10.5q1 6 5 12t8 6q6 0 7 -12q1 -3 2 -7l2 -8q13 15 32.5 37t40.5 42t38 28q14 7 28 7t23 -6.5t9 -15.5q0 -14 -21 -24q-16 -7 -42.5 -20t-54.5 -31t-48 -39q15 -53 29.5 -91t35 -72.5t54.5 -77.5
q23 -26 47 -42t43 -16q17 0 23.5 7.5t6.5 18.5q0 13 -6.5 28.5t-13.5 25.5q-5 6 -5 11q0 3 4 3q9 0 19 -8q5 -6 13.5 -23.5t8.5 -30.5q0 -20 -14 -33.5t-32 -19.5t-31 -6zM192 294q43 19 87 52t82 78q5 6 17 22.5t26.5 37.5t24.5 42t10 35q0 10 -6 14q-3 3 -9 3
q-16 0 -37 -17q-67 -52 -111.5 -116.5t-83.5 -150.5z" />
    <glyph glyph-name="l" unicode="l" horiz-adv-x="234" 
d="M104 -10q-42 0 -58.5 21t-16.5 52q0 29 13.5 73t35.5 95t47.5 101.5t51 93t44.5 68.5q19 25 41 50t49 42t61 17q23 0 39.5 -12.5t16.5 -37.5q0 -10 -3.5 -23t-11.5 -27q-61 -106 -145.5 -196t-178.5 -167q-4 -15 -7.5 -27t-5.5 -19q-1 -5 -1 -10.5v-10.5q0 -24 8 -42
t27 -18q18 0 44.5 17.5t53.5 43t49 49.5t31 37q3 3 6 3q4 0 6.5 -4t-0.5 -10q-10 -17 -32 -42t-49 -50.5t-52 -44.5q-31 -22 -63 -22zM103 180q38 26 79 67.5t80.5 90.5t72 97t52.5 87q6 11 8.5 19.5t2.5 15.5q0 19 -16 19q-14 0 -35 -15q-54 -42 -100 -107.5t-82 -137.5
t-62 -136z" />
    <glyph glyph-name="m" unicode="m" horiz-adv-x="583" 
d="M23 -13q-8 0 -5 7q4 7 14.5 35.5t24 67.5t26.5 75q-10 -15 -21.5 -29t-19.5 -23q-3 -3 -4 -3q-3 0 -3 6q0 12 6 22q21 27 32 42.5t18.5 28t15.5 28.5q2 11 7.5 27t26.5 16q31 0 31 -13q0 -4 -2 -8.5t-4 -9.5q-12 -27 -26 -62t-25.5 -66t-17.5 -48q11 14 33 39.5t50.5 56
t59 58t57.5 45.5t46 18q23 0 23 -26q0 -20 -16 -52q-7 -15 -19 -40.5t-19 -38.5q18 16 41 35.5t48.5 36.5t47.5 25q5 2 20 6.5t26 4.5q15 0 15 -10q0 -7 -7 -15q-17 -26 -30.5 -55.5t-21.5 -55.5t-10 -42q-1 -4 -1 -7.5v-7.5q0 -40 26 -40q16 0 41 17.5t51 43t47.5 49
t29.5 35.5q3 3 6 3q4 0 6.5 -3t0.5 -8q-9 -17 -30.5 -42.5t-48 -51t-51.5 -43.5q-13 -10 -32.5 -17.5t-39.5 -7.5q-18 0 -32.5 8t-21.5 30q-3 9 -3 23q0 22 6 50t13 47q5 14 13.5 31.5t15.5 29.5q-31 -12 -60 -36t-52.5 -48.5t-39.5 -40.5q-4 -11 -15.5 -18t-21.5 -7
q-15 0 -15 13q0 5 3 12q10 24 22.5 49.5t23 46.5l14.5 29q8 14 8 22t-7 8t-23 -9t-42 -32q-21 -19 -46 -49.5t-48 -62.5t-40.5 -55t-24.5 -27q-6 -3 -23.5 -10t-26.5 -7z" />
    <glyph glyph-name="n" unicode="n" horiz-adv-x="404" 
d="M-2 -13q-7 0 -4 7q3 6 11 27.5t18.5 51.5t21.5 62t20.5 60t15.5 44q2 6 4 17.5t8.5 21t22.5 9.5q30 0 30 -14q0 -5 -5 -17q-12 -27 -26 -62t-25 -66t-17 -48q10 14 32.5 40t50.5 56t58.5 58t57 45.5t45.5 17.5q24 0 24 -26q0 -9 -5 -27q-9 -25 -23 -48.5t-25 -49.5
q-19 -47 -22 -76q-1 -4 -1 -7.5v-7.5q0 -40 27 -40q15 0 40 18t51.5 43t47.5 48.5t29 35.5q3 3 6 3q4 0 6.5 -3t0.5 -8q-9 -17 -30.5 -42.5t-47.5 -51t-51 -43.5q-15 -10 -37 -18t-44 -7q-28 3 -40 19.5t-12 39.5q0 27 10.5 57.5t23.5 57.5t21 41q8 16 8 25q0 8 -7 8t-21 -9
t-38 -31q-22 -19 -47 -49.5t-48.5 -62.5t-41 -55t-24.5 -27q-5 -3 -22.5 -10t-26.5 -7z" />
    <glyph glyph-name="o" unicode="o" horiz-adv-x="347" 
d="M118 -11q-28 0 -49 13q-35 21 -35 76q0 23 8 53q7 25 25 54.5t42.5 56.5t53.5 44t58 17q12 0 21 -3q12 -4 20.5 -14.5t8.5 -26.5q0 -17 -8.5 -19t-8.5 4q0 2 0.5 4t0.5 3q0 8 -4.5 14.5t-16.5 6.5q-16 0 -39.5 -17t-48 -45.5t-43 -62.5t-24.5 -68q-1 -5 -1.5 -9.5
t-0.5 -9.5q0 -23 10.5 -38.5t33.5 -15.5q28 0 54 21.5t46.5 51.5t30.5 53q8 18 11 31t3 22q0 8 -1.5 14t-3.5 10q-2 6 -2 9q0 8 6.5 13t13.5 5q6 0 13 -4q8 -2 22 -3t30 -1q17 0 34.5 1t30.5 4q2 1 6 1q7 0 7 -4t-7 -7q-35 -16 -62.5 -17t-47.5 -1q2 -25 -11 -53.5
t-27 -50.5q-17 -25 -39 -51t-49 -43.5t-61 -17.5z" />
    <glyph glyph-name="p" unicode="p" horiz-adv-x="369" 
d="M-128 -342q-12 0 -12 10q0 4 3 11q12 26 34 77.5t48.5 118t53.5 136.5q24 62 46.5 121t37.5 106.5t15 73.5q0 8 11 9.5t21 1.5q33 0 33 -22q0 -18 -20 -47q-18 -29 -31 -59.5t-26 -62.5q24 32 45 63t49 53q22 17 43.5 27.5t46.5 10.5q26 0 52 -12.5t30 -39.5q1 -3 1 -6.5
v-6.5q0 -35 -20.5 -68.5t-48.5 -59.5t-52 -42q-20 -12 -48.5 -26t-60 -24t-60.5 -10q-18 0 -30 4q-13 -30 -30 -77.5t-32 -93.5q-7 -20 -5 -32.5t-5 -31.5q-6 -20 -13 -38.5t-16 -35.5q-2 -4 -12.5 -11t-24 -12t-23.5 -5zM41 11q32 0 67 15t69 40t61.5 54.5t44.5 57.5
q20 32 20 59q0 31 -27 31q-7 0 -17 -2.5t-23 -9.5q-53 -28 -87 -65.5t-58 -82.5t-50 -97z" />
    <glyph glyph-name="q" unicode="q" horiz-adv-x="457" 
d="M247 -374q-19 0 -37 10t-30 29q-16 25 -16 64q0 34 10 72t23 73t22 60q9 27 24 66.5t31 79.5l28 70t15 37q-23 -27 -52.5 -59t-61.5 -61t-61.5 -47.5t-51.5 -18.5q-16 0 -34 9.5t-29 24.5q-15 19 -15 43q0 27 17.5 56t45 56t59 49.5t60.5 38.5t48 21q9 2 20 3t23 1
q20 0 39 -3.5t30 -11.5l4 -3q7 15 13.5 29.5t13.5 30.5q6 7 18.5 10.5t25.5 3.5q11 0 20 -3.5t9 -12.5q0 -15 -34 -43q-19 -15 -39.5 -58t-41 -99t-38.5 -111q8 -18 28 -18q18 0 43.5 17.5t52.5 42.5t48.5 49t30.5 37q3 3 6 3q4 0 6.5 -3t0.5 -8q-10 -17 -31.5 -42.5
t-47.5 -51t-51 -43.5q-13 -10 -34.5 -18t-42.5 -7q8 -36 14 -83.5t9.5 -90.5t1.5 -66q-7 -66 -34.5 -95t-57.5 -29zM75 18q15 0 43 19t61.5 47.5t65.5 59.5t57 56.5t35 35.5q2 6 4 8l6 18q3 4 4 8q-15 6 -35 6q-40 0 -88 -26t-86 -61q-12 -10 -32.5 -34.5t-37.5 -53.5
t-17 -53q0 -13 7 -23q4 -7 13 -7zM242 -348q31 0 46.5 23.5t21 57.5t5.5 64q0 11 -0.5 21.5t-1.5 17.5q-1 32 -6.5 75t-10.5 71q0 4 -2.5 7t-5.5 -5q-16 -43 -36 -93t-33 -100.5t-9 -96.5q2 -22 11 -32t21 -10z" />
    <glyph glyph-name="r" unicode="r" horiz-adv-x="314" 
d="M172 -12q-17 0 -30 7.5t-18 28.5q-3 11 -3 22q0 30 15.5 58.5t36.5 53t36 41.5q8 8 18.5 21t10.5 26q0 8 -8 15.5t-29 10.5q-12 2 -22.5 3.5t-21.5 1.5q-28 -38 -54.5 -76.5t-56.5 -75.5q-7 -7 -12 -7q-6 0 -6 6t6 12q54 66 93 141q-5 0 -15 0.5t-16 1.5q-7 2 -11 6t-4 8
q0 6 5 7q13 4 28 12t28 21q14 14 26 29.5t19 23.5q7 5 15 5q5 0 9.5 -3t4.5 -9q0 -7 -6 -18q-9 -14 -19.5 -31t-19.5 -31l36 -2t37 -1q10 0 19.5 0.5t19.5 0.5q30 0 30 -15q0 -10 -10.5 -24.5t-25.5 -31.5q-34 -39 -58 -82t-32 -66q-8 -24 -8 -36q0 -24 19 -24q17 0 41.5 17
t50.5 41.5t47 48t30 35.5q2 3 6 3t7 -3.5t0 -8.5q-11 -17 -32 -42.5t-47 -50.5t-51 -43q-13 -10 -35.5 -18.5t-42.5 -8.5z" />
    <glyph glyph-name="s" unicode="s" horiz-adv-x="296" 
d="M51 -50q-40 0 -40 22q0 16 17 33q13 13 29 21t20 8q5 0 5.5 -4t-4.5 -6q-10 -6 -22.5 -16.5t-12.5 -22.5q0 -16 19 -16q23 0 48 13.5t46.5 34.5t35 42.5t13.5 37.5q0 13 -9 24t-37 26q-19 11 -36.5 23t-26.5 29q-8 -14 -20.5 -33.5t-29.5 -40.5q-6 -6 -12 -6t-6 5
q0 3 5 10q27 32 40 59t18 41q4 29 27 55t56 45.5t67.5 30.5t61.5 11t48 -10t21 -32q0 -12 -7 -26q-9 -19 -30 -34q-1 -1 -3 -1q-8 0 -8 7q0 5 5 10q8 7 13 17t5 19q0 18 -21 18q-22 0 -57.5 -12t-65.5 -31q-34 -22 -57 -48t-23 -46q0 -10 6.5 -18.5t25.5 -19.5
q10 -6 28 -15.5t31 -17.5q41 -25 41 -53q0 -23 -20 -46.5t-51.5 -43t-66.5 -31.5t-66 -12z" />
    <glyph glyph-name="t" unicode="t" horiz-adv-x="226" 
d="M89 -10q-18 0 -32.5 8t-21.5 30q-1 3 -1.5 6t-0.5 7q0 20 9 50t22 58q-6 -8 -14 -19.5t-23 -29.5q-4 -4 -9 -4q-7 0 -7 8q0 6 4 10q26 33 46.5 59t30.5 44q0 2 6 12.5t16 29.5q-8 -1 -13.5 -1.5t-9.5 -0.5q-7 0 -12 6t-1 15q5 14 22 16t30 3q1 2 4 2q12 22 23 43t18.5 35
t7.5 15q20 32 26 42.5t16 12.5q11 1 23.5 -1t16.5 -9q3 -4 3 -10q0 -9 -4 -17.5t-8 -13.5q-4 -7 -10.5 -9.5t-11.5 -12.5q-10 -19 -22 -41t-25 -42l12 1q24 2 45.5 5t49.5 2q5 0 10.5 -1.5t5.5 -4.5q0 -4 -26 -11q-10 -4 -43.5 -8.5t-68.5 -8.5q-10 -19 -18 -31.5t-11 -18.5
q-22 -46 -39.5 -83.5t-19.5 -61.5q-1 -4 -1 -7.5v-7.5q0 -40 26 -40q16 0 41 17.5t51 43t47.5 49t29.5 35.5q3 3 6 3q4 0 6.5 -3t0.5 -8q-9 -17 -30.5 -42.5t-48 -51t-51.5 -43.5q-13 -10 -32.5 -17.5t-39.5 -7.5z" />
    <glyph glyph-name="u" unicode="u" horiz-adv-x="444" 
d="M307 -10q-18 0 -32 8t-21 30q-1 5 -2.5 11.5t-1.5 13.5q0 24 6.5 54t14.5 50q-4 -3 -14 -20t-25 -39.5t-33.5 -45t-40 -37t-45.5 -14.5q-16 0 -38.5 9t-32.5 25t-10 40q0 29 13 63.5t33 64.5q7 10 16 24t18 24.5t13 11.5q12 4 28 4q17 0 25 -4q7 -3 7 -7q0 -5 -8 -13
q-11 -10 -30 -30t-37.5 -48t-30.5 -62q-10 -27 -10 -47q0 -35 28 -35q24 0 51 20t52.5 49t46 57.5t31.5 45.5q10 14 22.5 36t24.5 43t19 31q7 0 21.5 -2.5t25 -8.5t5.5 -15q-6 -10 -18.5 -31t-25 -42.5t-19.5 -34.5q-24 -46 -31 -99q-1 -4 -1 -7.5v-7.5q0 -40 27 -40
q15 0 40 18t51.5 43t48 48.5t29.5 35.5q2 3 6 3t6.5 -3t-0.5 -8q-9 -17 -30.5 -42.5t-47.5 -51t-51 -43.5q-13 -10 -33 -17.5t-40 -7.5z" />
    <glyph glyph-name="v" unicode="v" horiz-adv-x="314" 
d="M72 -32q-19 0 -26 16t-6 32q5 29 14.5 59.5t18.5 60.5q2 7 5 18t6 24q-7 -10 -15.5 -22t-17.5 -25q-4 -5 -9 -5q-4 0 -6 4.5t2 9.5q23 32 36 56.5t18 39.5q2 20 -4.5 33.5t-23.5 13.5q-3 0 -6 -0.5t-7 -1.5q-1 0 -1.5 -0.5t-1.5 -0.5q-3 0 -3 3t6 11q4 3 15 4.5t21 2.5
t12 1q14 0 26 -2t20 -12q5 -5 8 -13t1 -16q0 -6 -5.5 -20.5t-12 -31.5t-12 -30.5t-6.5 -18.5q-10 -28 -20 -62t-8 -52q47 62 96 124t106 115q23 23 47 42.5t54 31.5q13 5 24 5q16 0 28 -6t16 -14q4 -3 4 -11q0 -12 -8 -12q-2 0 -8 4q-5 5 -15 5h-19q-21 0 -52.5 -21t-68 -55
t-72.5 -74t-66.5 -80t-50 -72t-21.5 -49q0 -5 -5 -7t-7 -2z" />
    <glyph glyph-name="w" unicode="w" horiz-adv-x="549" 
d="M319 -3q-19 0 -35 8.5t-23 29.5q-7 23 -7 57q0 17 2.5 34.5t6.5 30.5q-5 -9 -19 -33.5t-35 -53t-47.5 -49t-57.5 -20.5q-40 0 -55 20.5t-15 49.5q0 35 14.5 72.5t29.5 59.5l21 30t27.5 37.5t18.5 19.5q6 2 13 3t14 1q16 0 26 -6q10 -3 10 -10q0 -3 -5 -8q-11 -9 -35 -36
t-47.5 -61.5t-35.5 -68.5q-13 -32 -13 -53q0 -30 22 -30q21 0 60 31q28 22 54 55t48.5 69.5t40.5 67.5q3 7 17 7q17 0 33.5 -7.5t9.5 -17.5q-29 -47 -44 -101q-3 -12 -6.5 -29.5t-3.5 -34.5q0 -18 6 -31t22 -13q8 0 16.5 2.5t19.5 9.5q38 20 74.5 54.5t64.5 77t37 83.5
q3 12 3 29q0 20 -6.5 38.5t-23.5 25.5q-6 2 -13 2.5t-15 -0.5h-2q-5 0 -5 5t5 7q12 3 31 3q18 0 36.5 -6t25.5 -23q8 -19 8 -38q0 -37 -21.5 -79t-54.5 -81q-26 -32 -58 -60t-55 -44q-13 -10 -34.5 -18t-44.5 -8z" />
    <glyph glyph-name="x" unicode="x" horiz-adv-x="409" 
d="M-21 -192q-9 0 -9 11q0 37 21.5 79t53 83.5t63 76t53 57t21.5 26.5q0 10 -6 28.5t-16 34t-22 15.5q-15 0 -33.5 -23.5t-44.5 -53.5q-6 -7 -11 -7q-6 0 -6 7q0 6 4 10q9 11 24 31.5t32 42t33.5 36t28.5 14.5q25 0 36 -15t17 -37.5t14 -47.5q37 35 72 64.5t78 56.5
q7 4 15 4q12 0 21 -7t9 -18q0 -10 -9.5 -10.5t-14.5 -2.5q-37 -14 -58 -28t-37 -27l-71 -57q0 -11 11 -40t25 -56q19 -35 43 -35q16 0 32 11t32 27q24 27 47.5 57.5t33.5 44.5q3 3 7 3q5 0 7.5 -4t-2.5 -10q-6 -8 -20.5 -28t-33 -43t-37.5 -42q-27 -25 -47.5 -34t-37.5 -9
q-4 0 -9 0.5t-10 1.5q-22 5 -38.5 26t-28 47t-18.5 44q-18 -19 -43.5 -46.5t-53.5 -60t-52.5 -66.5t-40 -65t-16.5 -55q-1 -11 -8 -11z" />
    <glyph glyph-name="y" unicode="y" horiz-adv-x="415" 
d="M-2 -367q-12 3 -21 6q-19 10 -27 22.5t-8 26.5q0 23 15.5 49.5t40.5 54.5q25 30 63.5 61t80.5 59.5t74 49.5q17 35 35.5 75t35.5 77.5t29.5 68.5t18.5 48q-16 -19 -37 -47.5t-46 -60t-51.5 -59.5t-54.5 -45.5t-55 -17.5q-40 0 -55.5 20.5t-15.5 48.5q0 20 5.5 40t14.5 37
q6 12 19 32t30 41t34.5 35t33.5 14q19 0 29 -13.5t2 -18.5q-16 -11 -39.5 -33.5t-46.5 -51.5q-6 -8 -14.5 -25t-15.5 -36.5t-7 -35.5q0 -7 2 -13.5t7 -9.5q8 -6 18 -6q14 0 31.5 9t33.5 23q56 54 100 113t93 117q3 10 17 10q16 0 33.5 -9.5t14.5 -15.5q-9 -20 -23.5 -53
t-31.5 -71t-34 -75.5t-31 -67.5q12 6 43 30t68 58.5t67 71.5q6 6 9 6q6 0 6 -8q0 -7 -6 -16q-15 -20 -41.5 -47t-57 -54.5t-59.5 -50t-50 -34.5q-31 -66 -60 -124.5t-53 -94.5q-16 -25 -39 -51t-50 -43.5t-57 -17.5q-4 0 -8 0.5t-9 1.5zM1 -345q8 0 19.5 5t24.5 16
q38 31 64 72.5t46.5 87.5t41.5 88q-39 -29 -88 -68.5t-89 -78.5q-24 -24 -35 -47.5t-11 -41.5q0 -33 27 -33z" />
    <glyph glyph-name="z" unicode="z" horiz-adv-x="421" 
d="M284 -33q-20 -7 -41 -7q-27 0 -53.5 11t-55.5 29q-17 10 -39 18q-19 -13 -36.5 -22.5t-31.5 -9.5q-8 0 -11 2q-6 3 -6 15q0 15 15 35t51 20q19 0 40 -6q26 20 31 27q41 35 82.5 74.5t72.5 69.5q-25 8 -45 13t-41 8q-5 1 -10 1.5t-10 0.5q-23 0 -39 -8t-30 -21
q-17 -15 -33 -33.5t-30 -36.5q-3 -4 -9 -11.5t-10 -3.5t-4 8t3 8q22 30 40.5 55.5t27.5 36.5q19 28 38 37.5t38 9.5q17 0 35 -4.5t37 -9.5q18 -4 38.5 -8.5t38.5 -8.5q8 7 28.5 18t34.5 11t14 -14q0 -17 -15.5 -30.5t-36 -20t-34.5 -3.5q-34 -29 -82 -69.5t-89 -77.5
q-6 -4 -12.5 -10t-14.5 -13q8 -4 15.5 -7t14.5 -7q28 -17 53.5 -29t50.5 -12q24 0 47 13q21 12 52 38.5t62 58.5t50 58q3 4 10 4q4 0 6.5 -1.5t0.5 -5.5q-8 -14 -26.5 -36t-42.5 -46.5t-48 -46t-43 -35.5q-18 -13 -29 -18.5t-19 -7.5z" />
    <glyph glyph-name="braceleft" unicode="{" horiz-adv-x="413" 
d="M145 -138q-29 0 -61.5 9t-54.5 31.5t-22 63.5q0 35 16 69t36.5 64.5t36.5 56t16 43.5q0 20 -19.5 32t-59.5 19q-10 3 -10 12q0 11 12 11q33 0 66 4.5t57 22.5t28 58q2 23 5 52.5t12.5 59.5t31 55.5t61 41t102.5 15.5h19q10 0 17 -1.5t7 -9.5q0 -10 -10 -10
q-35 0 -62.5 -2t-50.5 -15.5t-45 -46.5q-25 -37 -33 -70.5t-21 -74.5q-13 -37 -28.5 -55t-38 -25.5t-57.5 -14.5q28 -14 40 -34t12 -40q0 -24 -13.5 -48t-32 -49.5t-32 -53.5t-13.5 -59q0 -46 33 -68.5t75 -22.5l12 3h5q6 0 6 -8q0 -10 -13 -12.5t-29 -2.5z" />
    <glyph glyph-name="bar" unicode="|" horiz-adv-x="257" 
d="M129 -49v632h34v-632h-34z" />
    <glyph glyph-name="braceright" unicode="}" horiz-adv-x="465" 
d="M109 -137q-4 0 -9.5 -0.5t-10.5 -0.5q-8 0 -14.5 2.5t-6.5 9.5q0 10 10 10q35 0 62 2t50 15.5t44 46.5q25 38 34 71t22 73q12 37 27.5 55t38.5 26t57 14q-28 14 -40 34t-12 40q0 24 13.5 48t32 49.5t32 53.5t13.5 59q0 33 -17 53t-40.5 29t-44.5 9q-6 0 -11.5 -1
t-11.5 -1t-6 7q0 11 13 13.5t29 2.5q29 0 61 -9t54 -31.5t22 -64.5q0 -35 -15.5 -68.5t-36 -64.5t-36 -56.5t-15.5 -44.5t19 -30.5t60 -19.5q10 -3 10 -12q0 -11 -13 -11q-33 0 -66.5 -4.5t-57 -22.5t-27.5 -58q-3 -23 -6 -52.5t-12.5 -59.5t-31 -55t-61 -40.5t-102.5 -15.5
z" />
    <glyph glyph-name="asciitilde" unicode="~" horiz-adv-x="408" 
d="M148 351q-1 -2 -5 -2t-7 2t-2 3q20 28 41.5 52t49.5 24q9 0 18 -3q15 -6 38 -18.5t43 -18.5q6 -1 12 -2.5t10 -1.5q26 0 39 33q2 3 7 3q4 0 7.5 -2t2.5 -4q-10 -25 -31 -43.5t-45 -18.5q-8 0 -16 3q-25 8 -49 19t-49 11q-20 0 -36.5 -10t-27.5 -26z" />
    <glyph glyph-name="uni00A0" unicode="&#xa0;" horiz-adv-x="219" 
 />
    <glyph glyph-name="exclamdown" unicode="&#xa1;" horiz-adv-x="285" 
d="M206 358q-7 0 -7 7.5v16.5q0 5 5.5 14t12 16.5t9.5 7.5q10 0 22 -2t12 -15q0 -3 -11 -14t-24 -21t-19 -10zM25 -165q-12 0 -26 12.5t-14 23.5q0 24 24 67q5 9 11.5 12.5t11.5 13.5q37 72 75 147.5t63 153.5q2 4 10 7.5t15 3.5q11 0 11 -8q0 -2 -0.5 -4t-1.5 -5
q-16 -46 -36.5 -100t-41.5 -107t-41 -98q-18 -42 -32 -74t-20 -41q-4 -4 -8 -4z" />
    <glyph glyph-name="cent" unicode="&#xa2;" horiz-adv-x="460" 
d="M110 -12q-12 0 -12 9q0 8 11.5 31t27.5 56q-35 12 -56 40.5t-21 73.5q0 38 21 78.5t55.5 78.5t76.5 69t85.5 50.5t80.5 22.5q10 17 18 28.5t12 15.5q4 5 11 5q15 0 15 -13q0 -6 -4 -10q-4 -5 -9 -12.5t-10 -15.5q2 -1 5 -1t7 -1q14 -5 25.5 -15.5t11.5 -27.5q0 -7 -3 -18
q-1 -5 -6 -15.5t-11 -19.5t-12 -9q-7 0 -9 8.5t1 12.5q11 20 11 34q0 20 -24 20h-4l-9 -2h-5q-28 -43 -63.5 -103t-72 -126.5t-67.5 -131.5q5 -1 9.5 -1h9.5q16 0 32 2.5t30 6.5q50 14 88.5 34t69.5 47q12 9 16 9q3 0 3 -4q0 -10 -14 -24q-39 -34 -86 -58t-103 -33
q-17 -3 -34 -4t-33 0q-7 -18 -15.5 -34.5t-14.5 -33.5q-4 -8 -14.5 -13.5t-20.5 -5.5zM151 108q27 51 62 113t71.5 123t65.5 108q-41 -14 -87.5 -45.5t-87 -82.5t-63.5 -123q-6 -19 -6 -34q0 -23 12.5 -37t32.5 -22z" />
    <glyph glyph-name="sterling" unicode="&#xa3;" horiz-adv-x="548" 
d="M388 -14q-16 0 -32.5 2t-33.5 5q-8 1 -30.5 6.5t-52 13t-59 15.5t-51 14t-28.5 9q-4 -4 -10 -9.5t-13 -12.5q-10 -13 -18 -18.5t-10 -4.5q-6 -4 -9 -4q-12 -7 -17 -7q-8 0 -8 9q1 28 19 51t43 31q1 0 2 0.5t3 0.5q11 33 27 73.5t33 83.5q-59 -8 -80 -8q-9 0 -18 7t-9 17
q0 9 12 15t26.5 9.5t21.5 3.5q13 0 17.5 -8.5t11.5 -7.5q8 0 16 0.5t16 1.5q30 72 68.5 142t81.5 119q26 28 58.5 44.5t67.5 16.5q11 0 22 -2t23 -6q26 -10 43 -29.5t17 -50.5q0 -13 -4.5 -29t-15.5 -30q-7 -8 -14 -8t-7 8q0 7 4 14q6 11 8 21.5t2 20.5q-1 35 -17.5 49.5
t-40.5 14.5q-37 0 -73 -26q-26 -18 -57.5 -60.5t-62.5 -96.5t-57 -107q26 3 52 5.5t51 2.5q8 0 16 -1t8 -4q0 -5 -24 -12q-10 -3 -44.5 -9t-73.5 -11q-18 -39 -38.5 -81t-37.5 -80q9 -2 17.5 -4.5t17.5 -5.5q36 -12 79 -24t87 -19.5t82 -7.5q31 0 60.5 8t54.5 27
q25 20 49 46t42 51q3 3 6 3q4 0 6 -3t0 -8q-9 -17 -30.5 -42.5t-48 -51t-51.5 -43.5q-22 -16 -46 -22.5t-49 -6.5z" />
    <glyph glyph-name="currency" unicode="&#xa4;" horiz-adv-x="686" 
d="M45 189l148 163q-17 31 -17 67q0 33 12 64.5t35 56.5l-97 164l141 -125q22 14 47 22t51 8q28 0 50.5 -8.5t39.5 -22.5l184 126l-152 -165q18 -31 18 -69q0 -33 -13.5 -63t-33.5 -55l100 -163l-144 125q-22 -13 -47 -21.5t-51 -8.5t-49 8.5t-41 21.5zM340 314
q32 0 58.5 18t43 48t16.5 67t-16.5 66.5t-43 47t-58.5 17.5t-58.5 -17.5t-42.5 -47t-16 -66.5t16 -67t42.5 -48t58.5 -18z" />
    <glyph glyph-name="yen" unicode="&#xa5;" horiz-adv-x="310" 
d="M64 -38q-11 0 -11 9q3 14 23 50.5t51 85.5q-19 -1 -35.5 -2t-27.5 -1q-22 0 -22 11q0 23 27 24.5t79 2.5l26 39l-4 16q-20 -1 -36.5 -2t-27.5 -1q-22 0 -22 11q0 8 11 17t21 9h47q-14 51 -35.5 104t-49.5 100.5t-61 79.5q-1 0 -1 2q0 7 14 17t20 11q20 0 41 -29.5
t41 -77.5t35.5 -102t24.5 -104h14q40 62 79 119t72 102.5t54.5 72t26.5 26.5q11 0 22.5 -9t11.5 -20q0 -3 -2 -7q-53 -67 -109.5 -139.5t-109.5 -144.5h12q25 0 40 -3.5t15 -8.5q0 -7 -13.5 -11t-31 -5.5t-31.5 -2l-14 -0.5l-40 -59h34q25 0 40 -3.5t15 -8.5
q0 -6 -11.5 -9.5t-24.5 -4.5t-18 -2l-57 -6q-13 -19 -26.5 -44t-26 -48t-25 -38.5t-24.5 -15.5z" />
    <glyph glyph-name="brokenbar" unicode="&#xa6;" horiz-adv-x="257" 
d="M129 301v282h34v-282h-34zM129 -49v277h34v-277h-34z" />
    <glyph glyph-name="section" unicode="&#xa7;" horiz-adv-x="532" 
d="M97 -191q-32 0 -60 6.5t-45 21.5t-17 42q0 17 4.5 32t11.5 28q3 6 8 6q4 0 4 -7q0 -5 -1 -8q-6 -16 -6 -29q0 -34 34.5 -46.5t78.5 -12.5q41 0 80 7t57 13q38 12 69.5 31.5t51 43.5t19.5 47q0 22 -24 43.5t-80 36.5q-28 9 -62.5 16t-66.5 18.5t-52.5 34t-20.5 62.5
q0 29 16.5 52t43.5 40.5t56 31.5q-15 13 -24 31t-8 45q0 33 21.5 60t53.5 47.5t66 34t60 20.5q13 3 35 5.5t47 2.5q31 0 61 -5.5t50 -19.5t20 -40q0 -4 -2 -19t-10 -15q-4 0 -7.5 6.5t-3.5 12.5q0 24 -29.5 32t-64.5 8q-21 0 -53 -3.5t-66.5 -11.5t-64.5 -21t-49 -32
t-19 -45q0 -29 24 -44.5t57.5 -24t62.5 -16.5q39 -10 76.5 -25.5t61.5 -39.5t24 -63q0 -26 -15.5 -53.5t-39 -51t-47.5 -38.5q9 -12 14 -25t5 -30q0 -35 -25.5 -67.5t-65.5 -58t-85 -41.5q-22 -7 -67 -16t-92 -9zM399 70q10 8 20.5 16t15.5 12q36 34 36 72q0 27 -24.5 52
t-82.5 41q-34 10 -76.5 18t-75.5 27q-35 -15 -61 -40.5t-26 -53.5t24 -44.5t58 -25.5t63 -17q36 -9 71 -22.5t58 -34.5z" />
    <glyph glyph-name="dieresis" unicode="&#xa8;" horiz-adv-x="211" 
d="M62 695q-11 0 -22.5 2t-11.5 14q0 3 10.5 11.5t22.5 17.5t14 11q12 11 17 11q2 0 2 -2q0 -4 -3.5 -11.5t-3.5 -14.5q0 -8 -9.5 -23.5t-15.5 -15.5zM162 695q-11 0 -22 2t-11 14q0 3 10.5 11.5t22.5 17.5t14 11q12 11 17 11q1 0 1 -2q0 -4 -3 -11.5t-3 -14.5
q0 -8 -10 -23.5t-16 -15.5z" />
    <glyph glyph-name="copyright" unicode="&#xa9;" horiz-adv-x="736" 
d="M323 -55q-90 0 -160 37.5t-110 102.5t-40 145q0 21 3 42q9 68 44 127t89 104t121 70.5t140 25.5q90 0 160 -38t110.5 -102.5t40.5 -145.5q0 -20 -3 -41q-9 -68 -44.5 -127t-89.5 -104t-121 -70.5t-140 -25.5zM306 -17q21 -3 41 -3q77 0 145.5 33t117 90.5t63.5 130.5
q6 30 6 58q0 69 -32 127t-88.5 96t-130.5 47q-10 2 -19.5 2h-19.5q-77 0 -146 -32.5t-117 -90t-64 -131.5q-6 -30 -6 -58q0 -68 31.5 -126t88 -96t130.5 -47zM291 47q-31 0 -61.5 11.5t-53.5 36.5q-31 34 -31 85t32 115q28 52 72 98.5t97 76t106 29.5q16 0 36 -4t35 -17.5
t15 -41.5q0 -21 -10 -36t-22.5 -23.5t-21.5 -11.5t-14 -3q-9 0 -9 6q0 10 20 27q17 14 17 38q0 19 -16.5 29t-35.5 10q-37 0 -78 -27.5t-78 -70.5t-62 -92q-16 -31 -23 -59t-7 -51q0 -46 26.5 -72.5t72.5 -26.5q42 0 87 19.5t84 49.5t64 62q2 3 6 6t8 3q5 0 8 -7q1 -2 1 -6
q0 -9 -5 -14q-29 -39 -70.5 -70.5t-90 -50t-98.5 -18.5z" />
    <glyph glyph-name="ordfeminine" unicode="&#xaa;" horiz-adv-x="649" 
d="M454 466q-20 0 -38.5 14t-18.5 48q0 23 6 50.5t13 46.5q-5 -2 -18.5 -17.5t-33 -37t-42.5 -43t-48 -35.5t-49 -14q-18 0 -36.5 10.5t-30.5 27.5t-12 36q0 28 18.5 57t48 56.5t63 50t64 38t50.5 19.5q18 6 45 6q23 0 47 -10t24 -30q0 -7 -2 -7q-7 0 -22 10.5t-32 10.5
q-39 0 -87 -26t-86 -61q-12 -11 -33 -35.5t-38 -52.5t-17 -52q0 -10 4.5 -20.5t16.5 -10.5q22 0 50 20t57 48.5t53 53.5q6 5 20.5 20.5t31.5 33.5t30.5 31t17.5 13t13.5 -2t18 -6t8.5 -10q0 -4 -1 -5q-33 -46 -47 -92.5t-14 -67.5q0 -18 7.5 -29t20.5 -11q11 0 40.5 20.5
t65 53.5t62.5 70q3 4 7 4q7 0 7 -7q0 -3 -1 -4q-11 -21 -33.5 -48.5t-51.5 -53.5t-60 -43.5t-58 -17.5z" />
    <glyph glyph-name="guillemotleft" unicode="&#xab;" horiz-adv-x="379" 
d="M174 94q-17 27 -36.5 50t-42.5 45q-12 14 -12 19t5 9t12 11q30 28 49 47t38.5 37.5t50.5 44.5q5 3 8.5 2.5t3.5 -5.5q0 -7 -14 -24q-10 -12 -20 -23.5t-28 -30t-54 -53.5q20 -40 35 -69t20 -45q4 -8 4 -16q0 -10 -6 -10t-13 11zM317 83q-7 0 -14 11q-33 54 -77 95
q-12 14 -12 18q0 5 5 9.5t12 11.5q30 28 49 47t38 37.5t50 44.5q4 3 8 2t4 -6q0 -7 -13 -23q-10 -12 -20 -23.5t-28.5 -30t-55.5 -53.5q22 -40 36.5 -69t21.5 -45q3 -7 3 -14q0 -12 -7 -12z" />
    <glyph glyph-name="logicalnot" unicode="&#xac;" horiz-adv-x="744" 
d="M656 39q-9 0 -12 12q2 53 5.5 106t16.5 104l-304 -22t-305 -19q-7 -1 -14 4t-7 11q0 5 6 9t22 5q155 6 309 20t307 18q14 0 24 -3t10 -13q0 -12 -4 -25.5t-6 -25.5q-8 -43 -19.5 -87t-16.5 -87q-4 -7 -12 -7z" />
    <glyph glyph-name="uni00AD" unicode="&#xad;" horiz-adv-x="376" 
d="M161 170q-18 0 -18 10q0 8 11.5 17t21.5 9q11 0 38 0.5t58 1t51 0.5q25 0 40.5 -4.5t15.5 -9.5q0 -6 -12 -9t-25 -4.5t-18 -2.5q-24 -1 -56.5 -3t-62 -3.5t-44.5 -1.5z" />
    <glyph glyph-name="registered" unicode="&#xae;" horiz-adv-x="736" 
d="M323 -55q-90 0 -160 37.5t-110 102.5t-40 145q0 21 3 42q9 68 44 127t89 104t121 70.5t140 25.5q90 0 160 -38t110.5 -102.5t40.5 -145.5q0 -20 -3 -41q-9 -68 -44.5 -127t-89.5 -104t-121 -70.5t-140 -25.5zM306 -17q21 -3 41 -3q77 0 145.5 33t117 90.5t63.5 130.5
q6 30 6 58q0 69 -32 127t-88.5 96t-130.5 47q-10 2 -19.5 2h-19.5q-77 0 -146 -32.5t-117 -90t-64 -131.5q-6 -30 -6 -58q0 -68 31.5 -126t88 -96t130.5 -47zM486 63q-12 0 -32 15t-43 37.5t-44.5 47.5t-38 45t-22.5 29q-4 -1 -15 -2.5t-17 -0.5l-7 4q-17 -37 -30.5 -76.5
t-21.5 -83.5q-2 -1 -7.5 -3t-11.5 -2q-11 0 -11 8q0 12 8.5 41t22.5 67.5t30.5 80t32 78.5t28 63t17.5 33q2 2 8 2q11 0 23.5 -6t9.5 -13q-22 -46 -46 -87.5t-45 -83.5q37 1 88.5 13t97.5 43q35 23 54.5 51.5t19.5 54.5q0 22 -15 39t-49 25q-16 3 -33 3q-33 0 -68.5 -8.5
t-63 -18t-37.5 -12.5q-3 -1 -10 5.5t-7 15.5q0 5 4.5 10.5t17.5 8.5q17 4 55 11.5t81 7.5q30 0 57 -6q47 -9 72.5 -31t25.5 -54q0 -40 -21 -69t-54 -49.5t-69.5 -33t-67.5 -19.5q26 -50 65.5 -87.5t80.5 -74.5q5 -3 5 -7t-5 -7.5t-12 -3.5z" />
    <glyph glyph-name="macron" unicode="&#xaf;" horiz-adv-x="283" 
d="M121 698q-25 0 -25 9q0 17 25.5 21.5t64.5 4.5q20 0 43.5 -0.5t46.5 -0.5q11 0 22 -2t11 -9q1 -6 -8 -9.5t-19 -4.5t-13 -2q-23 -1 -51 -2.5t-54 -3t-43 -1.5z" />
    <glyph glyph-name="degree" unicode="&#xb0;" horiz-adv-x="353" 
d="M229 503q-25 0 -50 11.5t-41.5 32t-16.5 47.5q0 24 18 47t43 27q7 2 13 2h13q37 0 65 -21.5t28 -69.5q0 -40 -21 -58t-51 -18zM230 537q13 0 23 5.5t12 17.5q1 5 1.5 9t0.5 8q0 29 -21.5 43t-52.5 13q-13 -1 -21 -15.5t-8 -26.5q0 -25 22 -39.5t44 -14.5z" />
    <glyph glyph-name="plusminus" unicode="&#xb1;" horiz-adv-x="614" 
d="M243 33q-10 0 -10 9q0 7 5 16q4 8 15.5 33t27 59.5t32.5 72.5q-64 -1 -104 -1.5t-51 -1.5q-23 -1 -23 10q0 8 10.5 17.5t20.5 9.5h162q23 49 42 89t26 53q11 21 22 21q8 0 8 -11q0 -7 -6 -21l-56 -131h147q30 0 30 -13q0 -12 -28 -15q-16 -1 -57.5 -2t-105.5 -2l-74 -173
q-4 -7 -14 -13t-19 -6zM80 -38q-23 -1 -23 10q0 8 11 17.5t21 9.5h29h60t76 0.5t77.5 0.5h65.5h38q29 0 29 -12q0 -14 -28 -17q-14 -1 -51 -2t-84.5 -2t-94 -2t-81.5 -1.5t-45 -1.5z" />
    <glyph glyph-name="uni00B2" unicode="&#xb2;" horiz-adv-x="391" 
d="M320 315q-23 0 -43 4q-7 2 -27 7t-44.5 11.5t-46 12.5t-31.5 9q-7 -7 -22.5 -20t-26.5 -17q-1 0 -1.5 -0.5t-2.5 -0.5q-10 0 -10 12q1 37 23.5 49.5t50.5 11.5q29 16 66 39t74.5 51t65.5 58q24 27 35 49.5t11 38.5q0 28 -20.5 43.5t-58.5 15.5q-31 0 -63.5 -9.5
t-54 -23.5t-21.5 -29q0 -2 0.5 -4.5t0.5 -4.5q2 -4 2 -11q0 -12 -8 -12q-5 0 -11 6q-4 3 -6 7.5t-4 8.5q-4 7 -4 15q0 22 25 43.5t64 36t81 14.5q70 0 104 -24.5t34 -64.5q0 -21 -13.5 -47.5t-45.5 -59.5q-29 -28 -66.5 -54.5t-75.5 -48.5t-70 -39q17 -4 33 -8.5t32 -8.5
q14 -4 27.5 -8t22.5 -6q8 -1 16.5 -1.5t15.5 -0.5q26 0 47.5 5.5t25.5 15.5q5 12 14 12q3 0 6.5 -3.5t3.5 -8.5q0 -12 -14 -25q-3 -3 -9 -7q-1 -2 -2 -3l-6 -4q0 -1 -0.5 -1t-0.5 -1q-18 -11 -36 -15.5t-36 -4.5z" />
    <glyph glyph-name="uni00B3" unicode="&#xb3;" horiz-adv-x="403" 
d="M202 262q-23 0 -52.5 5.5t-50.5 23.5t-22 56q0 11 6 28t22 17q8 0 14.5 -6t4.5 -16q-1 -5 -2.5 -10t-1.5 -10q0 -22 13.5 -36t33 -20.5t36.5 -6.5q32 1 65.5 14.5t61.5 37t45.5 55t17.5 67.5q0 20 -15.5 37.5t-49.5 24.5q-20 0 -40 -5q-10 -1 -19 -2t-17 0
q-13 1 -18.5 7.5t-5.5 13.5q0 9 7.5 16t21.5 4q17 -3 37 -3q24 0 52 8.5t48 27.5t20 48q0 23 -21 42t-59 20q-20 0 -47.5 -7.5t-47.5 -23t-20 -38.5q0 -8 -5.5 -12.5t-10.5 -4.5q-12 0 -12 12q0 36 21.5 60t57.5 36.5t79 12.5q41 0 75 -17t44 -53q3 -9 3 -21q0 -30 -20 -59
t-60 -47q26 -7 43.5 -28.5t17.5 -53.5q0 -45 -24 -80.5t-62 -61t-81.5 -39t-82.5 -13.5z" />
    <glyph glyph-name="acute" unicode="&#xb4;" horiz-adv-x="239" 
d="M124 693q-8 0 -8 4q0 5 15 14q10 6 31.5 21t48.5 36q14 12 23 19t13 7h7.5t9.5 -5q11 -8 11 -14q0 -4 -2 -7.5t-5 -7.5q-7 -6 -28 -17t-46 -22.5t-45 -19.5t-25 -8z" />
    <glyph glyph-name="uni00B5" unicode="&#xb5;" horiz-adv-x="445" 
d="M-139 -338q23 45 46.5 103.5t46.5 121t45 122t42 106.5l4 9q8 19 15.5 38t16.5 35t18 34.5t16 20.5q12 4 29 4q16 0 25 -4q7 -3 7 -8q0 -6 -6 -12q-16 -15 -42 -52.5t-45 -87.5q-10 -27 -10 -48q0 -34 29 -34q12 0 28.5 7t35.5 23q28 23 58.5 62.5t58.5 79.5
q9 13 22 35.5t25 43.5t18 31q7 0 21.5 -3t25 -9t5.5 -15q-6 -10 -18.5 -30.5t-24.5 -42.5t-19 -35q-11 -22 -19.5 -47t-12.5 -52q-1 -4 -1 -7.5v-6.5q0 -19 7.5 -30t20.5 -11q10 0 20 6q16 9 43 31t56 50.5t49 57.5q3 3 6 3q4 0 6.5 -3t0.5 -8q-9 -17 -30.5 -42.5t-48 -51
t-51.5 -43.5q-13 -10 -33 -18t-40 -8q-22 0 -39 14t-17 49q0 24 6 54t14 50q-4 -3 -14 -19.5t-24.5 -39t-33.5 -45t-40.5 -37t-46.5 -14.5q-13 0 -34 7.5t-32 21.5q-16 -43 -32.5 -86.5t-28.5 -78.5q-13 -35 -16 -51t-3 -24v-7q0 -4 -0.5 -8t-3.5 -11q-17 -46 -23.5 -63
t-17.5 -24q-7 -4 -24.5 -10.5t-28.5 -6.5q-9 0 -9 6q0 5 2 8z" />
    <glyph glyph-name="paragraph" unicode="&#xb6;" horiz-adv-x="528" 
d="M168 -60q-4 0 -8.5 3t-6.5 10q-1 15 11 58t32 103t43 125q-16 2 -32 6.5t-33 8.5q-62 18 -92 54.5t-30 79.5q0 42 28.5 82.5t84.5 67.5q44 21 104.5 33t120.5 12t110 -14q13 0 25 -5.5t7 -14.5q-33 -66 -70 -141t-71.5 -153.5t-61.5 -157t-41 -153.5q-4 -4 -10 -4
q-12 0 -15 13q-1 15 11 57.5t31.5 101t42.5 122.5q-19 -1 -37.5 -0.5t-38.5 2.5q-31 -74 -55.5 -147.5t-38.5 -144.5q-4 -4 -10 -4zM283 260q20 1 39.5 2.5t38.5 5.5q23 63 46 121t42 102t29 63q-15 2 -29.5 4t-28.5 2q8 -6 1 -11q-31 -66 -67.5 -139t-70.5 -150zM249 261
q24 66 48.5 127.5t44 107t28.5 62.5q-61 -5 -112 -24.5t-89 -47.5t-59 -60t-21 -62q0 -33 28.5 -59.5t90.5 -38.5q10 -2 20 -3t21 -2z" />
    <glyph glyph-name="periodcentered" unicode="&#xb7;" horiz-adv-x="207" 
d="M151 158q-10 0 -21.5 2t-11.5 14q0 2 7 9.5t14.5 15l9.5 9.5q17 11 22 11q6 0 6 -7.5v-15.5q0 -7 -9.5 -22.5t-16.5 -15.5z" />
    <glyph glyph-name="cedilla" unicode="&#xb8;" horiz-adv-x="335" 
d="M110 -223q-23 0 -43 9.5t-30 28.5q-3 6 -3 9q0 5 3 5.5t5 -1.5q4 -7 20 -22t40 -15q26 0 50 10t39 28t15 41q0 17 -10.5 27.5t-29.5 10.5q-11 0 -24.5 -3t-20.5 -3t-7 4q0 3 10 19t23.5 35.5t26 34t16.5 14.5q9 0 9 -7q0 -1 -7 -11.5t-16.5 -24.5t-18 -25.5t-11.5 -16.5
q8 2 13.5 2.5t12.5 0.5q35 0 53.5 -16.5t18.5 -40.5q0 -27 -20.5 -48t-51 -33t-62.5 -12z" />
    <glyph glyph-name="uni00B9" unicode="&#xb9;" horiz-adv-x="352" 
d="M87 310q-13 -3 -13 9q0 8 6.5 17.5t18.5 13.5q10 2 20.5 2.5t20.5 1.5q5 0 10 1t10 1q6 27 22 74t36.5 100t39.5 99q-34 -32 -65 -54q-6 -3 -10 -3q-10 0 -10 8t11 16q65 56 115 126q5 8 19 8t26.5 -8.5t8.5 -16.5q-28 -57 -59.5 -122t-56.5 -124.5t-37 -100.5
q21 0 41.5 -0.5t38.5 -3.5q12 -1 12 -12q0 -4 -4.5 -8.5t-14.5 -4.5h-40h-20.5t-21.5 -1q-8 -6 -20 -6q-6 0 -9 2q-36 -7 -75 -14z" />
    <glyph glyph-name="ordmasculine" unicode="&#xba;" horiz-adv-x="577" 
d="M279 484q-37 0 -60 23t-23 65q0 34 16 73.5t43.5 74.5t61 57t67.5 22q17 0 33 -10.5t16 -33.5q0 -11 -3.5 -15t-8.5 -4q-6 0 -6 6l1 4q0 10 -4 15.5t-15 5.5q-16 0 -42.5 -19.5t-53 -51t-44.5 -69t-18 -73.5q0 -22 10.5 -37.5t33.5 -15.5t52.5 22t51.5 56q-3 8 -3 16
q0 24 19 24q1 0 3 -0.5t3 -0.5q11 23 15 37.5t4 24.5q0 14 -4 20t-4 13q0 8 7.5 13t14.5 5q24 0 24 -37q0 -28 -16 -60t-30 -52q1 -14 8.5 -21t17.5 -7q24 0 43.5 16t34.5 36.5t27 36.5t21 16q7 0 7 -6v-1v1q-1 2 -11 -16t-27.5 -42.5t-42.5 -43.5t-55 -19q-13 0 -24.5 6.5
t-16.5 18.5q-33 -37 -62 -55t-61 -18z" />
    <glyph glyph-name="guillemotright" unicode="&#xbb;" horiz-adv-x="379" 
d="M226 94q-2 -2 -6 -2q-5 0 -5 6q0 3 2.5 9t9.5 13q12 13 21.5 24.5t27.5 30.5t54 53q-21 41 -36 70t-21 43q-1 5 -2.5 9t-1.5 8q0 11 7 11t14 -12q17 -27 36.5 -50t41.5 -46q12 -11 12 -18q0 -4 -4.5 -8.5l-12.5 -12.5q-29 -27 -48 -46t-38.5 -37.5t-50.5 -44.5zM95 94
q-2 -2 -6 -2t-4 5q0 8 12 23q12 13 21.5 24.5t27 30.5t53.5 53q-20 41 -35 70t-21 43q-3 9 -3 16q0 11 6 11t14 -11q17 -27 36.5 -50t41.5 -46q12 -12 12 -18q0 -4 -4.5 -8.5l-12.5 -12.5q-29 -27 -48 -46t-38.5 -37.5t-51.5 -44.5z" />
    <glyph glyph-name="onequarter" unicode="&#xbc;" horiz-adv-x="991" 
d="M175 2q-17 0 -11 16q6 17 31.5 58.5t65.5 100.5t89 128.5t102 142t103.5 141t94.5 125.5t75.5 96t44.5 52q8 8 20 11.5t22 3.5t16.5 -3t6.5 -8q0 -3 -5 -10q-26 -28 -69.5 -80t-98 -120.5t-114 -147t-119 -161.5t-112.5 -163t-94 -151q-7 -15 -22 -23t-26 -8zM17 310
q-13 -3 -13 9q0 8 6.5 17.5t18.5 13.5q10 2 20.5 2.5t20.5 1.5q5 0 10 1t10 1q6 27 22 74t36.5 100t39.5 99q-34 -32 -65 -54q-6 -3 -10 -3q-10 0 -10 8t11 16q65 56 115 126q5 8 19 8t26.5 -8.5t8.5 -16.5q-28 -57 -59.5 -122t-56.5 -124.5t-37 -100.5q21 0 41.5 -0.5
t38.5 -3.5q12 -1 12 -12q0 -4 -4.5 -8.5t-14.5 -4.5h-40h-20.5t-21.5 -1q-8 -6 -20 -6q-6 0 -9 2q-36 -7 -75 -14zM661 -109q-10 0 -14 7q-2 12 4 39t18 63.5t27 74.5q-25 2 -59.5 5.5t-63.5 5.5q-5 1 -10 1.5t-10 0.5q-23 0 -40 -10q-3 -3 -16 -13t-21 -10q-7 0 -7 8
q0 17 8 32t26 25q13 10 37.5 27.5t54 38.5t57.5 41q17 12 41.5 32.5t50.5 44.5t48.5 47t35.5 41q7 13 16 13q4 0 8 -2t9 -5q11 -5 17 -15t3 -18q-27 -53 -60 -116t-62 -129q25 3 51 9t44.5 15.5t21.5 21.5q2 8 7.5 11.5t9.5 3.5q9 0 9 -10q0 -14 -13 -29.5t-26 -26.5
q-28 -25 -60 -33.5t-65 -8.5q-18 -45 -31 -86.5t-21 -82.5v-4q-9 -9 -25 -9zM713 121q18 49 35.5 93t27.5 70q-46 -40 -95.5 -78.5t-102.5 -71.5q34 0 67.5 -4.5t67.5 -8.5z" />
    <glyph glyph-name="onehalf" unicode="&#xbd;" horiz-adv-x="1097" 
d="M175 2q-17 0 -11 16q6 17 31.5 58.5t65.5 100.5t89 128.5t102 142t103.5 141t94.5 125.5t75.5 96t44.5 52q8 8 20 11.5t22 3.5t16.5 -3t6.5 -8q0 -3 -5 -10q-26 -28 -69.5 -80t-98 -120.5t-114 -147t-119 -161.5t-112.5 -163t-94 -151q-7 -15 -22 -23t-26 -8zM17 310
q-13 -3 -13 9q0 8 6.5 17.5t18.5 13.5q10 2 20.5 2.5t20.5 1.5q5 0 10 1t10 1q6 27 22 74t36.5 100t39.5 99q-34 -32 -65 -54q-6 -3 -10 -3q-10 0 -10 8t11 16q65 56 115 126q5 8 19 8t26.5 -8.5t8.5 -16.5q-28 -57 -59.5 -122t-56.5 -124.5t-37 -100.5q21 0 41.5 -0.5
t38.5 -3.5q12 -1 12 -12q0 -4 -4.5 -8.5t-14.5 -4.5h-40h-20.5t-21.5 -1q-8 -6 -20 -6q-6 0 -9 2q-36 -7 -75 -14zM790 -18q-12 0 -23.5 1.5t-22.5 3.5q-7 1 -27.5 6t-46 12t-48 13t-32.5 10q-8 -9 -24 -22t-27 -17h-4q-4 0 -8 2.5t-4 9.5q1 38 24.5 50.5t54.5 11.5
q29 17 67.5 41.5t77.5 54t69 60.5q25 26 36 48t11 40q0 26 -21.5 41t-56.5 15q-25 0 -52 -7q-6 -2 -22 -7t-33.5 -13.5t-30 -19t-12.5 -22.5q0 -3 2 -9q3 -4 3 -10q0 -12 -10 -12q-6 0 -11 5q-4 4 -6 8t-5 8q-3 8 -3 16q0 18 15 34t37 28.5t43 20.5t32 10q15 3 29.5 4
t28.5 1q56 0 95.5 -22t39.5 -62q0 -22 -14.5 -49t-46.5 -59q-30 -29 -69 -56.5t-78.5 -51t-72.5 -41.5q17 -4 33.5 -8t32.5 -9l30 -7.5t24 -5.5q8 -1 17 -1.5t17 -0.5q26 0 48.5 5t26.5 15q3 13 13 13q12 0 12 -13q0 -5 -3.5 -12t-11.5 -15q-6 -4 -9 -7q-1 0 -3 -2l-5 -3
q-1 -1 -1.5 -1t-1.5 -1q-17 -12 -35.5 -17t-37.5 -5z" />
    <glyph glyph-name="threequarters" unicode="&#xbe;" horiz-adv-x="1073" 
d="M255 2q-7 0 -11 4t-1 12q6 17 32 58.5t66 100.5t89.5 128.5t102 142t103.5 141t94.5 125.5t75 96t44.5 52q8 8 20 11.5t22 3.5q9 0 15.5 -3t6.5 -8t-5 -10q-26 -28 -69.5 -80t-98 -120.5t-114 -147t-118.5 -161.5t-112 -163t-94 -151q-7 -15 -22 -23t-26 -8zM164 262
q-24 0 -54.5 5.5t-52.5 24.5t-23 58q0 12 6.5 29.5t22.5 17.5q9 0 15.5 -6t4.5 -17q-1 -5 -2.5 -10t-1.5 -10q0 -23 14 -38t34 -21.5t38 -6.5q33 1 68 15t64.5 38.5t47.5 57.5t18 70q0 21 -16.5 39t-51.5 26q-21 0 -41 -5q-11 -1 -20.5 -2.5t-17.5 -0.5q-13 1 -19 8t-6 14
q0 10 8 17t22 4q18 -3 39 -3q25 0 54 9t50 28.5t21 50.5q0 24 -22 43.5t-61 20.5q-21 0 -49.5 -8t-49.5 -24t-21 -40q0 -8 -5.5 -13t-11.5 -5q-12 0 -12 13q0 37 22.5 62t60 38t81.5 13q43 0 78.5 -17t45.5 -55q3 -10 3 -22q0 -31 -21 -61.5t-62 -49.5q27 -7 45 -29t18 -56
q0 -46 -25 -83.5t-64.5 -64t-84.5 -40.5t-86 -14zM742 -109q-12 0 -16 7q-2 12 4.5 39t18.5 63.5t26 74.5q-24 2 -58.5 5.5t-63.5 5.5q-5 1 -10 1.5t-10 0.5q-23 0 -40 -10q-3 -3 -16 -13t-22 -10q-7 0 -7 8q0 17 9 32t26 25q13 10 37 27.5t53.5 38.5t57.5 41
q17 12 41.5 32.5t50.5 44.5t48.5 47t35.5 41q9 13 17 13q4 0 8 -2t9 -5q12 -5 17.5 -15t2.5 -18q-27 -53 -60 -116t-62 -129q25 3 50.5 9t44.5 15.5t23 21.5q5 15 16 15q9 0 9 -10q0 -14 -13 -29.5t-26 -26.5q-28 -25 -60.5 -33.5t-65.5 -8.5q-17 -45 -30.5 -86.5
t-20.5 -82.5v-4q-9 -9 -24 -9zM793 121q17 49 35 93t28 70q-43 -39 -95.5 -78.5t-102.5 -71.5q34 0 67.5 -4.5t67.5 -8.5z" />
    <glyph glyph-name="questiondown" unicode="&#xbf;" horiz-adv-x="408" 
d="M331 358q-6 0 -6 7.5v16.5q0 5 5 14t11.5 16.5t10.5 7.5q10 0 22 -2t12 -15q0 -2 -11.5 -13.5t-24.5 -21.5t-19 -10zM144 -163q-40 0 -73.5 19t-43.5 65q-4 15 -4 33q0 48 26 87t64.5 70.5t73.5 55.5q33 23 61 48t34 53q1 5 5 7.5t8 2.5t7 -3t1 -9q-3 -30 -33 -60.5
t-65 -60.5t-62 -58t-41.5 -62.5t-14.5 -85.5q0 -34 19 -59t53 -25t66.5 20.5t55.5 43.5q12 12 25 30.5t25 33.5t19 15t7 -25q0 -34 -14.5 -62.5t-52.5 -33.5q-9 -1 -18 -5t-17 -8q-22 -11 -51.5 -19t-59.5 -8z" />
    <glyph glyph-name="Agrave" unicode="&#xc0;" horiz-adv-x="847" 
d="M142 -83q-33 0 -63 11t-49 35t-19 61q0 9 4.5 16.5t8.5 7.5q8 0 8 -24q0 -34 29 -53q23 -15 62 -15t81 14t80 40q45 30 100.5 86.5t115.5 123.5q-48 5 -95.5 11t-95.5 6q-32 0 -64 -6.5t-58 -24.5t-39 -53q-1 -4 -2.5 -9t-1.5 -10q0 -10 5 -18q2 -6 2 -7q0 -9 -8 -9
q-7 0 -11 7q-10 18 -10 46q0 53 19.5 81t52.5 38t71 10q17 0 35.5 -1.5t36.5 -3.5q44 -4 91 -13.5t94 -19.5q52 61 102.5 123t94.5 117.5t75 95.5q1 3 4 4q2 2 3 2q11 6 28 10.5t23 4.5q10 0 10 -11q0 -3 -5 -11q-50 -85 -85.5 -174t-62.5 -183l-2 -7q6 0 12.5 -0.5
t11.5 -0.5q43 -3 73 9q22 8 30 23q3 4 5 4q5 0 7 -5.5t-1 -10.5q-11 -19 -39 -28q-16 -7 -36.5 -9t-42.5 -1h-6l-12 1h-6q-15 -55 -21 -114q-1 -5 -1 -9.5v-9.5q0 -57 31 -57q20 0 47.5 18t56 44t51.5 51.5t34 40.5q2 2 6 2q10 0 6 -11q-2 -3 -17 -23.5t-41 -49t-61 -56.5
q-28 -22 -55.5 -28.5t-41.5 -6.5q-28 0 -44.5 25.5t-16.5 65.5q0 29 6 60t14 62q-29 3 -59 6.5t-60 7.5q-60 -73 -119.5 -136.5t-111.5 -102.5q-39 -28 -80.5 -43.5t-83.5 -15.5zM660 220q18 70 42.5 140.5t48.5 128.5l5 12q-43 -60 -94.5 -128t-104.5 -135q26 -5 52 -9.5
t51 -8.5zM904 671q-6 0 -26 8t-44 19.5t-44.5 22.5t-27.5 17q-4 3 -7 6t-3 7q0 9 11 17q8 6 15 6q5 0 15 -8t24 -20q27 -21 48.5 -36.5t31.5 -20.5q15 -7 15 -14q0 -4 -8 -4z" />
    <glyph glyph-name="Aacute" unicode="&#xc1;" horiz-adv-x="847" 
d="M142 -83q-33 0 -63 11t-49 35t-19 61q0 9 4.5 16.5t8.5 7.5q8 0 8 -24q0 -34 29 -53q23 -15 62 -15t81 14t80 40q45 30 100.5 86.5t115.5 123.5q-48 5 -95.5 11t-95.5 6q-32 0 -64 -6.5t-58 -24.5t-39 -53q-1 -4 -2.5 -9t-1.5 -10q0 -10 5 -18q2 -6 2 -7q0 -9 -8 -9
q-7 0 -11 7q-10 18 -10 46q0 53 19.5 81t52.5 38t71 10q17 0 35.5 -1.5t36.5 -3.5q44 -4 91 -13.5t94 -19.5q52 61 102.5 123t94.5 117.5t75 95.5q1 3 4 4q2 2 3 2q11 6 28 10.5t23 4.5q10 0 10 -11q0 -3 -5 -11q-50 -85 -85.5 -174t-62.5 -183l-2 -7q6 0 12.5 -0.5
t11.5 -0.5q43 -3 73 9q22 8 30 23q3 4 5 4q5 0 7 -5.5t-1 -10.5q-11 -19 -39 -28q-16 -7 -36.5 -9t-42.5 -1h-6l-12 1h-6q-15 -55 -21 -114q-1 -5 -1 -9.5v-9.5q0 -57 31 -57q20 0 47.5 18t56 44t51.5 51.5t34 40.5q2 2 6 2q10 0 6 -11q-2 -3 -17 -23.5t-41 -49t-61 -56.5
q-28 -22 -55.5 -28.5t-41.5 -6.5q-28 0 -44.5 25.5t-16.5 65.5q0 29 6 60t14 62q-29 3 -59 6.5t-60 7.5q-60 -73 -119.5 -136.5t-111.5 -102.5q-39 -28 -80.5 -43.5t-83.5 -15.5zM660 220q18 70 42.5 140.5t48.5 128.5l5 12q-43 -60 -94.5 -128t-104.5 -135q26 -5 52 -9.5
t51 -8.5zM806 670q-8 0 -8 4q0 5 15 14q10 6 31.5 21t48.5 36q14 12 23 19t13 7h7.5t9.5 -5q11 -8 11 -14q0 -4 -2 -7.5t-5 -7.5q-7 -6 -28 -17t-46 -22.5t-45 -19.5t-25 -8z" />
    <glyph glyph-name="Acircumflex" unicode="&#xc2;" horiz-adv-x="847" 
d="M142 -83q-33 0 -63 11t-49 35t-19 61q0 9 4.5 16.5t8.5 7.5q8 0 8 -24q0 -34 29 -53q23 -15 62 -15t81 14t80 40q45 30 100.5 86.5t115.5 123.5q-48 5 -95.5 11t-95.5 6q-32 0 -64 -6.5t-58 -24.5t-39 -53q-1 -4 -2.5 -9t-1.5 -10q0 -10 5 -18q2 -6 2 -7q0 -9 -8 -9
q-7 0 -11 7q-10 18 -10 46q0 53 19.5 81t52.5 38t71 10q17 0 35.5 -1.5t36.5 -3.5q44 -4 91 -13.5t94 -19.5q52 61 102.5 123t94.5 117.5t75 95.5q1 3 4 4q2 2 3 2q11 6 28 10.5t23 4.5q10 0 10 -11q0 -3 -5 -11q-50 -85 -85.5 -174t-62.5 -183l-2 -7q6 0 12.5 -0.5
t11.5 -0.5q43 -3 73 9q22 8 30 23q3 4 5 4q5 0 7 -5.5t-1 -10.5q-11 -19 -39 -28q-16 -7 -36.5 -9t-42.5 -1h-6l-12 1h-6q-15 -55 -21 -114q-1 -5 -1 -9.5v-9.5q0 -57 31 -57q20 0 47.5 18t56 44t51.5 51.5t34 40.5q2 2 6 2q10 0 6 -11q-2 -3 -17 -23.5t-41 -49t-61 -56.5
q-28 -22 -55.5 -28.5t-41.5 -6.5q-28 0 -44.5 25.5t-16.5 65.5q0 29 6 60t14 62q-29 3 -59 6.5t-60 7.5q-60 -73 -119.5 -136.5t-111.5 -102.5q-39 -28 -80.5 -43.5t-83.5 -15.5zM660 220q18 70 42.5 140.5t48.5 128.5l5 12q-43 -60 -94.5 -128t-104.5 -135q26 -5 52 -9.5
t51 -8.5zM898 784q8 0 17.5 -18.5t17.5 -40.5t12 -32q2 -9 2.5 -13t0.5 -8q-1 -10 -9 -12q-7 5 -18.5 21.5t-23.5 34.5t-18 28q-17 -10 -41 -29t-45.5 -34.5t-30.5 -15.5q-4 0 -4 4q1 7 16 19q10 9 28.5 25t38.5 32.5t36 27.5t21 11z" />
    <glyph glyph-name="Atilde" unicode="&#xc3;" horiz-adv-x="847" 
d="M142 -83q-33 0 -63 11t-49 35t-19 61q0 9 4.5 16.5t8.5 7.5q8 0 8 -24q0 -34 29 -53q23 -15 62 -15t81 14t80 40q45 30 100.5 86.5t115.5 123.5q-48 5 -95.5 11t-95.5 6q-32 0 -64 -6.5t-58 -24.5t-39 -53q-1 -4 -2.5 -9t-1.5 -10q0 -10 5 -18q2 -6 2 -7q0 -9 -8 -9
q-7 0 -11 7q-10 18 -10 46q0 53 19.5 81t52.5 38t71 10q17 0 35.5 -1.5t36.5 -3.5q44 -4 91 -13.5t94 -19.5q52 61 102.5 123t94.5 117.5t75 95.5q1 3 4 4q2 2 3 2q11 6 28 10.5t23 4.5q10 0 10 -11q0 -3 -5 -11q-50 -85 -85.5 -174t-62.5 -183l-2 -7q6 0 12.5 -0.5
t11.5 -0.5q43 -3 73 9q22 8 30 23q3 4 5 4q5 0 7 -5.5t-1 -10.5q-11 -19 -39 -28q-16 -7 -36.5 -9t-42.5 -1h-6l-12 1h-6q-15 -55 -21 -114q-1 -5 -1 -9.5v-9.5q0 -57 31 -57q20 0 47.5 18t56 44t51.5 51.5t34 40.5q2 2 6 2q10 0 6 -11q-2 -3 -17 -23.5t-41 -49t-61 -56.5
q-28 -22 -55.5 -28.5t-41.5 -6.5q-28 0 -44.5 25.5t-16.5 65.5q0 29 6 60t14 62q-29 3 -59 6.5t-60 7.5q-60 -73 -119.5 -136.5t-111.5 -102.5q-39 -28 -80.5 -43.5t-83.5 -15.5zM660 220q18 70 42.5 140.5t48.5 128.5l5 12q-43 -60 -94.5 -128t-104.5 -135q26 -5 52 -9.5
t51 -8.5zM753 677q-8 0 -8 4v1q17 23 34.5 43.5t40.5 20.5q10 0 27.5 -9t37 -18.5t35.5 -9.5q10 0 16.5 7.5t11.5 14.5t10 7q9 0 9 -3v-2q-10 -20 -27 -36.5t-37 -16.5q-15 0 -30.5 7.5t-30.5 15t-31 7.5q-10 0 -23 -8t-22.5 -16.5t-12.5 -8.5z" />
    <glyph glyph-name="Adieresis" unicode="&#xc4;" horiz-adv-x="847" 
d="M142 -83q-33 0 -63 11t-49 35t-19 61q0 9 4.5 16.5t8.5 7.5q8 0 8 -24q0 -34 29 -53q23 -15 62 -15t81 14t80 40q45 30 100.5 86.5t115.5 123.5q-48 5 -95.5 11t-95.5 6q-32 0 -64 -6.5t-58 -24.5t-39 -53q-1 -4 -2.5 -9t-1.5 -10q0 -10 5 -18q2 -6 2 -7q0 -9 -8 -9
q-7 0 -11 7q-10 18 -10 46q0 53 19.5 81t52.5 38t71 10q17 0 35.5 -1.5t36.5 -3.5q44 -4 91 -13.5t94 -19.5q52 61 102.5 123t94.5 117.5t75 95.5q1 3 4 4q2 2 3 2q11 6 28 10.5t23 4.5q10 0 10 -11q0 -3 -5 -11q-50 -85 -85.5 -174t-62.5 -183l-2 -7q6 0 12.5 -0.5
t11.5 -0.5q43 -3 73 9q22 8 30 23q3 4 5 4q5 0 7 -5.5t-1 -10.5q-11 -19 -39 -28q-16 -7 -36.5 -9t-42.5 -1h-6l-12 1h-6q-15 -55 -21 -114q-1 -5 -1 -9.5v-9.5q0 -57 31 -57q20 0 47.5 18t56 44t51.5 51.5t34 40.5q2 2 6 2q10 0 6 -11q-2 -3 -17 -23.5t-41 -49t-61 -56.5
q-28 -22 -55.5 -28.5t-41.5 -6.5q-28 0 -44.5 25.5t-16.5 65.5q0 29 6 60t14 62q-29 3 -59 6.5t-60 7.5q-60 -73 -119.5 -136.5t-111.5 -102.5q-39 -28 -80.5 -43.5t-83.5 -15.5zM660 220q18 70 42.5 140.5t48.5 128.5l5 12q-43 -60 -94.5 -128t-104.5 -135q26 -5 52 -9.5
t51 -8.5zM812 672q-11 0 -22.5 2t-11.5 14q0 3 10.5 11.5t22.5 17.5t14 11q12 11 17 11q2 0 2 -2q0 -4 -3.5 -11.5t-3.5 -14.5q0 -8 -9.5 -23.5t-15.5 -15.5zM912 672q-11 0 -22 2t-11 14q0 3 10.5 11.5t22.5 17.5t14 11q12 11 17 11q1 0 1 -2q0 -4 -3 -11.5t-3 -14.5
q0 -8 -10 -23.5t-16 -15.5z" />
    <glyph glyph-name="Aring" unicode="&#xc5;" horiz-adv-x="847" 
d="M142 -83q-33 0 -63 11t-49 35t-19 61q0 9 4.5 16.5t8.5 7.5q8 0 8 -24q0 -34 29 -53q23 -15 62 -15t81 14t80 40q45 30 100.5 86.5t115.5 123.5q-48 5 -95.5 11t-95.5 6q-32 0 -64 -6.5t-58 -24.5t-39 -53q-1 -4 -2.5 -9t-1.5 -10q0 -10 5 -18q2 -6 2 -7q0 -9 -8 -9
q-7 0 -11 7q-10 18 -10 46q0 53 19.5 81t52.5 38t71 10q17 0 35.5 -1.5t36.5 -3.5q44 -4 91 -13.5t94 -19.5q52 61 102.5 123t94.5 117.5t75 95.5q1 3 4 4q2 2 3 2q11 6 28 10.5t23 4.5q10 0 10 -11q0 -3 -5 -11q-50 -85 -85.5 -174t-62.5 -183l-2 -7q6 0 12.5 -0.5
t11.5 -0.5q43 -3 73 9q22 8 30 23q3 4 5 4q5 0 7 -5.5t-1 -10.5q-11 -19 -39 -28q-16 -7 -36.5 -9t-42.5 -1h-6l-12 1h-6q-15 -55 -21 -114q-1 -5 -1 -9.5v-9.5q0 -57 31 -57q20 0 47.5 18t56 44t51.5 51.5t34 40.5q2 2 6 2q10 0 6 -11q-2 -3 -17 -23.5t-41 -49t-61 -56.5
q-28 -22 -55.5 -28.5t-41.5 -6.5q-28 0 -44.5 25.5t-16.5 65.5q0 29 6 60t14 62q-29 3 -59 6.5t-60 7.5q-60 -73 -119.5 -136.5t-111.5 -102.5q-39 -28 -80.5 -43.5t-83.5 -15.5zM660 220q18 70 42.5 140.5t48.5 128.5l5 12q-43 -60 -94.5 -128t-104.5 -135q26 -5 52 -9.5
t51 -8.5zM872 665q-25 0 -44.5 12t-19.5 37q0 8 8.5 26t30 33t60.5 15q20 0 38 -9.5t18 -32.5q0 -19 -12.5 -38t-33 -31t-45.5 -12zM875 686q20 0 36.5 17t16.5 38q0 10 -5 18.5t-22 8.5q-13 0 -25.5 -10t-20.5 -23.5t-8 -24.5q0 -10 6.5 -17t21.5 -7z" />
    <glyph glyph-name="AE" unicode="&#xc6;" horiz-adv-x="852" 
d="M23 -72q-6 0 -13.5 11t-8.5 15q-1 5 -1 9.5v8.5q0 28 8.5 63t22 70.5t27.5 66t26 49.5h-20q-20 0 -20 15q0 7 8 13.5t24 7.5q10 0 18 1t12 2q16 24 46 61.5t69 79t81.5 78t84.5 59.5t77 23q7 0 20 -2.5t25 -7.5t15 -14q40 9 85.5 10.5t86.5 1.5q27 0 55 -1t53 -3
q1 0 2.5 0.5t3.5 0.5q11 2 20 -1.5t9 -11.5q0 -6 -6 -12t-17.5 -14t-22.5 -19q-16 -16 -28 -34t-12 -36q0 -10 6 -21q0 -1 0.5 -1.5t0.5 -1.5q0 -7 -7 -7q-4 0 -10 6q-7 7 -7 33q0 15 3.5 32.5t10.5 31.5q5 8 12 18.5t17 18.5q-38 -1 -78 -6t-73 -12t-50 -16q-7 -4 -21 -24
t-31 -48.5t-34.5 -60t-32 -59.5t-22.5 -45q63 -1 116 -1h81q5 0 13.5 -1.5t8.5 -8.5q0 -8 -16.5 -9.5t-49.5 -3.5q-29 -2 -74 -3.5t-91 -1.5q-8 -22 -14 -49.5t-6 -53.5q0 -30 10 -56.5t34.5 -42.5t66.5 -16q56 0 117 18t116 50t92 75q3 3 5 3q7 0 7 -11q0 -5 -3 -8
q-29 -36 -81.5 -73t-124 -62t-157.5 -25q-51 0 -81 16.5t-42.5 44t-12.5 60.5q0 31 8 64.5t20 64.5h-50t-33 -1q-1 0 -1.5 0.5t-2.5 -0.5h-167q-23 -39 -44.5 -92.5t-35.5 -105.5t-17 -89q-1 -1 -1.5 -5.5t-3.5 -4.5zM391 256q18 40 40.5 77.5t40.5 77t20 84.5q2 27 -7 36
t-15 13q-68 -19 -128 -65t-110.5 -105t-90.5 -117h48q43 0 95.5 -0.5t106.5 -0.5z" />
    <glyph glyph-name="Ccedilla" unicode="&#xc7;" horiz-adv-x="534" 
d="M211 -46q-52 0 -95.5 17.5t-69 54t-25.5 93.5q0 32 9 69q14 59 46.5 118t78 111t99.5 92.5t111.5 64t114.5 23.5q17 0 35 -3q40 -7 59.5 -29.5t19.5 -51.5q0 -34 -22 -68t-57.5 -64.5t-77 -54.5t-81.5 -39t-71 -17q-19 -1 -19 11q0 6 6.5 12.5t18.5 7.5q78 7 145.5 47.5
t103.5 110.5q8 15 12.5 30.5t4.5 29.5q0 22 -12.5 37.5t-43.5 15.5q-34 0 -80 -20.5t-96.5 -57.5t-99 -87.5t-87 -110t-59.5 -125.5q-13 -40 -13 -74q0 -61 42 -89.5t109 -28.5q58 0 127.5 20t135.5 61.5t111 105.5q3 4 7 4t7.5 -4t0.5 -8q-52 -72 -119.5 -117t-139.5 -66
t-136 -21zM116 -264q-23 0 -43 9.5t-30 28.5q-3 6 -3 9q0 5 3 5.5t5 -1.5q4 -7 20 -22t40 -15q26 0 50 10t39 28t15 41q0 17 -10.5 27.5t-29.5 10.5q-11 0 -24.5 -3t-20.5 -3t-7 4q0 3 10 19t23.5 35.5t26 34t16.5 14.5q9 0 9 -7q0 -1 -7 -11.5t-16.5 -24.5t-18 -25.5
t-11.5 -16.5q8 2 13.5 2.5t12.5 0.5q35 0 53.5 -16.5t18.5 -40.5q0 -27 -20.5 -48t-51 -33t-62.5 -12z" />
    <glyph glyph-name="Egrave" unicode="&#xc8;" horiz-adv-x="716" 
d="M251 -62q-42 0 -82 7t-73 23.5t-52.5 46t-19.5 75.5q0 50 24 84.5t63 56t84.5 33.5t89 17.5t76.5 6.5q-30 35 -54 88t-24 103q0 18 4 35t13 32q10 18 32 30.5t48 19.5t48 7q37 0 61 -19.5t45 -39.5q5 -5 12.5 -11.5t16.5 -9.5q4 -1 9.5 -1.5t9.5 -3.5q8 -7 14.5 -21
t10.5 -25q6 -16 6 -42q0 -20 -4.5 -37t-13.5 -17q-5 0 -13 9q-12 14 -17 37.5t-15 42.5q-12 26 -26 48t-34 38q-8 9 -23.5 18t-35.5 9q-15 0 -25 -5q-35 -14 -49.5 -46t-14.5 -70q0 -46 15 -91.5t34 -69.5q5 -6 24.5 -7.5t27.5 -3.5q16 -1 23 -7t7 -13q0 -11 -13 -19
q-5 -5 -17 -5q-17 0 -38 6.5t-35 9.5q-30 -1 -69 -10t-79.5 -25.5t-75 -40.5t-56 -54.5t-22.5 -66.5q-1 -40 31 -69t117 -29q40 0 86 7t90.5 18.5t82.5 24.5t62 26q19 9 46 27.5t53.5 42.5t44 49.5t17.5 49.5v5t-1 5q-1 4 4 4t7 -2q14 -20 14 -44q0 -32 -22.5 -63t-53.5 -56
t-57 -39q-31 -18 -74.5 -32.5t-91 -25t-92.5 -16t-80 -5.5zM497 681q-6 0 -26 8t-44 19.5t-44.5 22.5t-27.5 17q-4 3 -7 6t-3 7q0 9 11 17q8 6 15 6q5 0 15 -8t24 -20q27 -21 48.5 -36.5t31.5 -20.5q15 -7 15 -14q0 -4 -8 -4z" />
    <glyph glyph-name="Eacute" unicode="&#xc9;" horiz-adv-x="716" 
d="M251 -62q-42 0 -82 7t-73 23.5t-52.5 46t-19.5 75.5q0 50 24 84.5t63 56t84.5 33.5t89 17.5t76.5 6.5q-30 35 -54 88t-24 103q0 18 4 35t13 32q10 18 32 30.5t48 19.5t48 7q37 0 61 -19.5t45 -39.5q5 -5 12.5 -11.5t16.5 -9.5q4 -1 9.5 -1.5t9.5 -3.5q8 -7 14.5 -21
t10.5 -25q6 -16 6 -42q0 -20 -4.5 -37t-13.5 -17q-5 0 -13 9q-12 14 -17 37.5t-15 42.5q-12 26 -26 48t-34 38q-8 9 -23.5 18t-35.5 9q-15 0 -25 -5q-35 -14 -49.5 -46t-14.5 -70q0 -46 15 -91.5t34 -69.5q5 -6 24.5 -7.5t27.5 -3.5q16 -1 23 -7t7 -13q0 -11 -13 -19
q-5 -5 -17 -5q-17 0 -38 6.5t-35 9.5q-30 -1 -69 -10t-79.5 -25.5t-75 -40.5t-56 -54.5t-22.5 -66.5q-1 -40 31 -69t117 -29q40 0 86 7t90.5 18.5t82.5 24.5t62 26q19 9 46 27.5t53.5 42.5t44 49.5t17.5 49.5v5t-1 5q-1 4 4 4t7 -2q14 -20 14 -44q0 -32 -22.5 -63t-53.5 -56
t-57 -39q-31 -18 -74.5 -32.5t-91 -25t-92.5 -16t-80 -5.5zM399 680q-8 0 -8 4q0 5 15 14q10 6 31.5 21t48.5 36q14 12 23 19t13 7h7.5t9.5 -5q11 -8 11 -14q0 -4 -2 -7.5t-5 -7.5q-7 -6 -28 -17t-46 -22.5t-45 -19.5t-25 -8z" />
    <glyph glyph-name="Ecircumflex" unicode="&#xca;" horiz-adv-x="716" 
d="M251 -62q-42 0 -82 7t-73 23.5t-52.5 46t-19.5 75.5q0 50 24 84.5t63 56t84.5 33.5t89 17.5t76.5 6.5q-30 35 -54 88t-24 103q0 18 4 35t13 32q10 18 32 30.5t48 19.5t48 7q37 0 61 -19.5t45 -39.5q5 -5 12.5 -11.5t16.5 -9.5q4 -1 9.5 -1.5t9.5 -3.5q8 -7 14.5 -21
t10.5 -25q6 -16 6 -42q0 -20 -4.5 -37t-13.5 -17q-5 0 -13 9q-12 14 -17 37.5t-15 42.5q-12 26 -26 48t-34 38q-8 9 -23.5 18t-35.5 9q-15 0 -25 -5q-35 -14 -49.5 -46t-14.5 -70q0 -46 15 -91.5t34 -69.5q5 -6 24.5 -7.5t27.5 -3.5q16 -1 23 -7t7 -13q0 -11 -13 -19
q-5 -5 -17 -5q-17 0 -38 6.5t-35 9.5q-30 -1 -69 -10t-79.5 -25.5t-75 -40.5t-56 -54.5t-22.5 -66.5q-1 -40 31 -69t117 -29q40 0 86 7t90.5 18.5t82.5 24.5t62 26q19 9 46 27.5t53.5 42.5t44 49.5t17.5 49.5v5t-1 5q-1 4 4 4t7 -2q14 -20 14 -44q0 -32 -22.5 -63t-53.5 -56
t-57 -39q-31 -18 -74.5 -32.5t-91 -25t-92.5 -16t-80 -5.5zM491 794q8 0 17.5 -18.5t17.5 -40.5t12 -32q2 -9 2.5 -13t0.5 -8q-1 -10 -9 -12q-7 5 -18.5 21.5t-23.5 34.5t-18 28q-17 -10 -41 -29t-45.5 -34.5t-30.5 -15.5q-4 0 -4 4q1 7 16 19q10 9 28.5 25t38.5 32.5
t36 27.5t21 11z" />
    <glyph glyph-name="Edieresis" unicode="&#xcb;" horiz-adv-x="716" 
d="M251 -62q-42 0 -82 7t-73 23.5t-52.5 46t-19.5 75.5q0 50 24 84.5t63 56t84.5 33.5t89 17.5t76.5 6.5q-30 35 -54 88t-24 103q0 18 4 35t13 32q10 18 32 30.5t48 19.5t48 7q37 0 61 -19.5t45 -39.5q5 -5 12.5 -11.5t16.5 -9.5q4 -1 9.5 -1.5t9.5 -3.5q8 -7 14.5 -21
t10.5 -25q6 -16 6 -42q0 -20 -4.5 -37t-13.5 -17q-5 0 -13 9q-12 14 -17 37.5t-15 42.5q-12 26 -26 48t-34 38q-8 9 -23.5 18t-35.5 9q-15 0 -25 -5q-35 -14 -49.5 -46t-14.5 -70q0 -46 15 -91.5t34 -69.5q5 -6 24.5 -7.5t27.5 -3.5q16 -1 23 -7t7 -13q0 -11 -13 -19
q-5 -5 -17 -5q-17 0 -38 6.5t-35 9.5q-30 -1 -69 -10t-79.5 -25.5t-75 -40.5t-56 -54.5t-22.5 -66.5q-1 -40 31 -69t117 -29q40 0 86 7t90.5 18.5t82.5 24.5t62 26q19 9 46 27.5t53.5 42.5t44 49.5t17.5 49.5v5t-1 5q-1 4 4 4t7 -2q14 -20 14 -44q0 -32 -22.5 -63t-53.5 -56
t-57 -39q-31 -18 -74.5 -32.5t-91 -25t-92.5 -16t-80 -5.5zM406 681q-11 0 -22.5 2t-11.5 14q0 3 10.5 11.5t22.5 17.5t14 11q12 11 17 11q2 0 2 -2q0 -4 -3.5 -11.5t-3.5 -14.5q0 -8 -9.5 -23.5t-15.5 -15.5zM506 681q-11 0 -22 2t-11 14q0 3 10.5 11.5t22.5 17.5t14 11
q12 11 17 11q1 0 1 -2q0 -4 -3 -11.5t-3 -14.5q0 -8 -10 -23.5t-16 -15.5z" />
    <glyph glyph-name="Igrave" unicode="&#xcc;" horiz-adv-x="430" 
d="M52 -9q-21 0 -32.5 3.5t-11.5 16.5q0 5 1 10.5t4 12.5q5 11 17 16.5t22 5.5t18 -5q14 -10 33 -17.5t40 -7.5q24 0 49 11.5t47 42.5q30 39 56 97.5t47.5 123.5t38.5 126.5t28 106.5q-52 -4 -101 -17.5t-80.5 -38t-31.5 -60.5q0 -20 11 -32.5t25.5 -19.5t23.5 -12
q7 -4 7 -7q0 -6 -9 -2q-12 3 -30.5 13.5t-33 28.5t-15.5 41q0 2 -1.5 6t-1.5 7q-2 38 19.5 64t58 42.5t81 24t89.5 7.5l4 10q2 5 11.5 8.5t19.5 3.5t16.5 -3t6.5 -8t-5 -13q33 -3 60.5 -10t46.5 -17q7 -3 16.5 -12.5t9.5 -15.5q0 -5 -8 -5q-4 0 -10 1t-14 4q-19 7 -49.5 10
t-65.5 3q-15 -46 -35.5 -109t-46 -130.5t-55.5 -129t-63 -103.5q-10 -10 -19.5 -20t-18.5 -18q55 -1 100.5 1t76.5 3h6q11 0 11 -5t-6 -11t-10 -8q-5 -2 -34.5 -4.5t-73 -4t-90.5 -3t-87 -2t-62 -0.5zM505 671q-6 0 -26 8t-44 19.5t-44.5 22.5t-27.5 17q-4 3 -7 6t-3 7
q0 9 11 17q8 6 15 6q5 0 15 -8t24 -20q27 -21 48.5 -36.5t31.5 -20.5q15 -7 15 -14q0 -4 -8 -4z" />
    <glyph glyph-name="Iacute" unicode="&#xcd;" horiz-adv-x="430" 
d="M52 -9q-21 0 -32.5 3.5t-11.5 16.5q0 5 1 10.5t4 12.5q5 11 17 16.5t22 5.5t18 -5q14 -10 33 -17.5t40 -7.5q24 0 49 11.5t47 42.5q30 39 56 97.5t47.5 123.5t38.5 126.5t28 106.5q-52 -4 -101 -17.5t-80.5 -38t-31.5 -60.5q0 -20 11 -32.5t25.5 -19.5t23.5 -12
q7 -4 7 -7q0 -6 -9 -2q-12 3 -30.5 13.5t-33 28.5t-15.5 41q0 2 -1.5 6t-1.5 7q-2 38 19.5 64t58 42.5t81 24t89.5 7.5l4 10q2 5 11.5 8.5t19.5 3.5t16.5 -3t6.5 -8t-5 -13q33 -3 60.5 -10t46.5 -17q7 -3 16.5 -12.5t9.5 -15.5q0 -5 -8 -5q-4 0 -10 1t-14 4q-19 7 -49.5 10
t-65.5 3q-15 -46 -35.5 -109t-46 -130.5t-55.5 -129t-63 -103.5q-10 -10 -19.5 -20t-18.5 -18q55 -1 100.5 1t76.5 3h6q11 0 11 -5t-6 -11t-10 -8q-5 -2 -34.5 -4.5t-73 -4t-90.5 -3t-87 -2t-62 -0.5zM407 670q-8 0 -8 4q0 5 15 14q10 6 31.5 21t48.5 36q14 12 23 19t13 7
h7.5t9.5 -5q11 -8 11 -14q0 -4 -2 -7.5t-5 -7.5q-7 -6 -28 -17t-46 -22.5t-45 -19.5t-25 -8z" />
    <glyph glyph-name="Icircumflex" unicode="&#xce;" horiz-adv-x="430" 
d="M52 -9q-21 0 -32.5 3.5t-11.5 16.5q0 5 1 10.5t4 12.5q5 11 17 16.5t22 5.5t18 -5q14 -10 33 -17.5t40 -7.5q24 0 49 11.5t47 42.5q30 39 56 97.5t47.5 123.5t38.5 126.5t28 106.5q-52 -4 -101 -17.5t-80.5 -38t-31.5 -60.5q0 -20 11 -32.5t25.5 -19.5t23.5 -12
q7 -4 7 -7q0 -6 -9 -2q-12 3 -30.5 13.5t-33 28.5t-15.5 41q0 2 -1.5 6t-1.5 7q-2 38 19.5 64t58 42.5t81 24t89.5 7.5l4 10q2 5 11.5 8.5t19.5 3.5t16.5 -3t6.5 -8t-5 -13q33 -3 60.5 -10t46.5 -17q7 -3 16.5 -12.5t9.5 -15.5q0 -5 -8 -5q-4 0 -10 1t-14 4q-19 7 -49.5 10
t-65.5 3q-15 -46 -35.5 -109t-46 -130.5t-55.5 -129t-63 -103.5q-10 -10 -19.5 -20t-18.5 -18q55 -1 100.5 1t76.5 3h6q11 0 11 -5t-6 -11t-10 -8q-5 -2 -34.5 -4.5t-73 -4t-90.5 -3t-87 -2t-62 -0.5zM499 784q8 0 17.5 -18.5t17.5 -40.5t12 -32q2 -9 2.5 -13t0.5 -8
q-1 -10 -9 -12q-7 5 -18.5 21.5t-23.5 34.5t-18 28q-17 -10 -41 -29t-45.5 -34.5t-30.5 -15.5q-4 0 -4 4q1 7 16 19q10 9 28.5 25t38.5 32.5t36 27.5t21 11z" />
    <glyph glyph-name="Idieresis" unicode="&#xcf;" horiz-adv-x="430" 
d="M52 -9q-21 0 -32.5 3.5t-11.5 16.5q0 5 1 10.5t4 12.5q5 11 17 16.5t22 5.5t18 -5q14 -10 33 -17.5t40 -7.5q24 0 49 11.5t47 42.5q30 39 56 97.5t47.5 123.5t38.5 126.5t28 106.5q-52 -4 -101 -17.5t-80.5 -38t-31.5 -60.5q0 -20 11 -32.5t25.5 -19.5t23.5 -12
q7 -4 7 -7q0 -6 -9 -2q-12 3 -30.5 13.5t-33 28.5t-15.5 41q0 2 -1.5 6t-1.5 7q-2 38 19.5 64t58 42.5t81 24t89.5 7.5l4 10q2 5 11.5 8.5t19.5 3.5t16.5 -3t6.5 -8t-5 -13q33 -3 60.5 -10t46.5 -17q7 -3 16.5 -12.5t9.5 -15.5q0 -5 -8 -5q-4 0 -10 1t-14 4q-19 7 -49.5 10
t-65.5 3q-15 -46 -35.5 -109t-46 -130.5t-55.5 -129t-63 -103.5q-10 -10 -19.5 -20t-18.5 -18q55 -1 100.5 1t76.5 3h6q11 0 11 -5t-6 -11t-10 -8q-5 -2 -34.5 -4.5t-73 -4t-90.5 -3t-87 -2t-62 -0.5zM414 671q-11 0 -22.5 2t-11.5 14q0 3 10.5 11.5t22.5 17.5t14 11
q12 11 17 11q2 0 2 -2q0 -4 -3.5 -11.5t-3.5 -14.5q0 -8 -9.5 -23.5t-15.5 -15.5zM514 671q-11 0 -22 2t-11 14q0 3 10.5 11.5t22.5 17.5t14 11q12 11 17 11q1 0 1 -2q0 -4 -3 -11.5t-3 -14.5q0 -8 -10 -23.5t-16 -15.5z" />
    <glyph glyph-name="Eth" unicode="&#xd0;" horiz-adv-x="567" 
d="M186 -11q-31 0 -61.5 5.5t-54.5 15.5l-1 -4q-9 -7 -25 -7q-13 0 -14 7q0 5 1.5 11.5t2.5 16.5q-12 10 -17 22q-1 4 -1.5 7.5t-0.5 6.5q0 15 8 15q2 0 7 -5q3 -4 6 -7.5t6 -6.5q8 29 22 67.5t30 78.5l-48 -2q-23 -1 -23 11q0 8 11 17.5t21 9.5h51q22 55 43.5 105.5
t38.5 86t24 44.5q4 4 12 4q14 0 30 -8t12 -17q-29 -58 -58.5 -110.5t-55.5 -104.5h52q24 0 38.5 -4t14.5 -10q1 -6 -10.5 -9t-24.5 -4t-17 -1q-14 -1 -32 -2t-36 -3q-19 -41 -35 -84.5t-27 -91.5q23 -15 51 -22t58 -7q61 0 125 25.5t118 71t87.5 106.5t33.5 133
q0 68 -32 107.5t-83 56.5t-109 17q-47 0 -97.5 -9t-97.5 -23q-10 -2 -22.5 6t-12.5 18q0 11 15 16q28 11 57 14.5t72 7.5q10 1 20 1h20q44 0 86.5 -6t79.5 -20q80 -30 115.5 -85t35.5 -118q0 -78 -37 -140.5t-97.5 -107t-132.5 -68.5t-142 -24z" />
    <glyph glyph-name="Ntilde" unicode="&#xd1;" horiz-adv-x="784" 
d="M-88 -129q-17 0 -32 4q-41 14 -51 56q-1 3 -1 9q0 14 6 14q5 0 12 -18q7 -28 34 -34q6 -2 15 -3t17 -1q37 0 70.5 21t62 53.5t51.5 67t38 62.5q44 84 74 170.5t58 180.5q-29 -26 -64 -39t-66 -16h-1q-10 0 -10 7q0 8 12 10q29 5 60 24.5t57.5 49.5t40.5 65q2 6 14 9.5
t24 3.5q11 0 19.5 -3t6.5 -10q-4 -11 -6.5 -34t-4.5 -37q-3 -18 -3 -52q0 -43 5 -101t16.5 -119t29.5 -114t43.5 -85.5t59.5 -32.5q35 0 66 34t56 89t43 119.5t27.5 126t9.5 107.5q0 25 -3 43q-4 27 -11.5 46.5t-15.5 40.5v1q0 4 8 10.5t12 7.5q15 0 27.5 -14t23.5 -34.5
t22 -40.5t24 -32q8 -7 12.5 -9t14.5 -2l6 3q8 0 11 -1.5t4 -9.5q0 -8 -7.5 -13t-15.5 -7q-13 0 -33 13.5t-30 21.5q1 -6 1 -12v-12q0 -55 -14 -122.5t-38.5 -135.5t-57 -125t-70.5 -92t-79 -35q-48 0 -81.5 29t-56 78t-35.5 108t-18 120.5t-5 114.5q-31 -81 -61.5 -153
t-70.5 -145q-18 -33 -43.5 -71.5t-57.5 -74t-70 -58t-81 -22.5zM407 680q-8 0 -8 4v1q17 23 34.5 43.5t40.5 20.5q10 0 27.5 -9t37 -18.5t35.5 -9.5q10 0 16.5 7.5t11.5 14.5t10 7q9 0 9 -3v-2q-10 -20 -27 -36.5t-37 -16.5q-15 0 -30.5 7.5t-30.5 15t-31 7.5q-10 0 -23 -8
t-22.5 -16.5t-12.5 -8.5z" />
    <glyph glyph-name="Ograve" unicode="&#xd2;" horiz-adv-x="705" 
d="M316 -72q-70 0 -118.5 35t-73.5 90.5t-25 119.5t26 127t80 111t136 67q11 2 22 3.5t24 1.5q22 0 43 -6t36 -22q11 -10 11 -14t-2 -4q-3 0 -7.5 3t-9.5 4q-18 7 -40 7q-6 0 -11.5 -0.5t-10.5 -1.5q-59 -14 -105.5 -48t-79 -81t-49.5 -98.5t-17 -99.5q0 -47 17 -86
t52.5 -62t90.5 -23q15 0 32 2t36 6q40 9 81.5 38.5t79.5 73t67.5 95t47 106.5t17.5 107q0 100 -55.5 149.5t-149.5 49.5q-62 0 -123.5 -22.5t-105.5 -54.5q-45 -31 -81.5 -73.5t-59.5 -90t-28 -95.5q0 -11 -5 -11q-4 0 -8 9.5t-4 19.5q0 56 23.5 107t63.5 94t91 74.5
t106.5 49t108.5 17.5q80 1 142.5 -29t98.5 -87t36 -138q0 -79 -29.5 -148t-78 -123.5t-107 -90.5t-116.5 -49q-19 -5 -35.5 -7t-33.5 -2zM571 673q-6 0 -26 8t-44 19.5t-44.5 22.5t-27.5 17q-4 3 -7 6t-3 7q0 9 11 17q8 6 15 6q5 0 15 -8t24 -20q27 -21 48.5 -36.5
t31.5 -20.5q15 -7 15 -14q0 -4 -8 -4z" />
    <glyph glyph-name="Oacute" unicode="&#xd3;" horiz-adv-x="705" 
d="M316 -72q-70 0 -118.5 35t-73.5 90.5t-25 119.5t26 127t80 111t136 67q11 2 22 3.5t24 1.5q22 0 43 -6t36 -22q11 -10 11 -14t-2 -4q-3 0 -7.5 3t-9.5 4q-18 7 -40 7q-6 0 -11.5 -0.5t-10.5 -1.5q-59 -14 -105.5 -48t-79 -81t-49.5 -98.5t-17 -99.5q0 -47 17 -86
t52.5 -62t90.5 -23q15 0 32 2t36 6q40 9 81.5 38.5t79.5 73t67.5 95t47 106.5t17.5 107q0 100 -55.5 149.5t-149.5 49.5q-62 0 -123.5 -22.5t-105.5 -54.5q-45 -31 -81.5 -73.5t-59.5 -90t-28 -95.5q0 -11 -5 -11q-4 0 -8 9.5t-4 19.5q0 56 23.5 107t63.5 94t91 74.5
t106.5 49t108.5 17.5q80 1 142.5 -29t98.5 -87t36 -138q0 -79 -29.5 -148t-78 -123.5t-107 -90.5t-116.5 -49q-19 -5 -35.5 -7t-33.5 -2zM473 672q-8 0 -8 4q0 5 15 14q10 6 31.5 21t48.5 36q14 12 23 19t13 7h7.5t9.5 -5q11 -8 11 -14q0 -4 -2 -7.5t-5 -7.5q-7 -6 -28 -17
t-46 -22.5t-45 -19.5t-25 -8z" />
    <glyph glyph-name="Ocircumflex" unicode="&#xd4;" horiz-adv-x="705" 
d="M316 -72q-70 0 -118.5 35t-73.5 90.5t-25 119.5t26 127t80 111t136 67q11 2 22 3.5t24 1.5q22 0 43 -6t36 -22q11 -10 11 -14t-2 -4q-3 0 -7.5 3t-9.5 4q-18 7 -40 7q-6 0 -11.5 -0.5t-10.5 -1.5q-59 -14 -105.5 -48t-79 -81t-49.5 -98.5t-17 -99.5q0 -47 17 -86
t52.5 -62t90.5 -23q15 0 32 2t36 6q40 9 81.5 38.5t79.5 73t67.5 95t47 106.5t17.5 107q0 100 -55.5 149.5t-149.5 49.5q-62 0 -123.5 -22.5t-105.5 -54.5q-45 -31 -81.5 -73.5t-59.5 -90t-28 -95.5q0 -11 -5 -11q-4 0 -8 9.5t-4 19.5q0 56 23.5 107t63.5 94t91 74.5
t106.5 49t108.5 17.5q80 1 142.5 -29t98.5 -87t36 -138q0 -79 -29.5 -148t-78 -123.5t-107 -90.5t-116.5 -49q-19 -5 -35.5 -7t-33.5 -2zM565 786q8 0 17.5 -18.5t17.5 -40.5t12 -32q2 -9 2.5 -13t0.5 -8q-1 -10 -9 -12q-7 5 -18.5 21.5t-23.5 34.5t-18 28q-17 -10 -41 -29
t-45.5 -34.5t-30.5 -15.5q-4 0 -4 4q1 7 16 19q10 9 28.5 25t38.5 32.5t36 27.5t21 11z" />
    <glyph glyph-name="Otilde" unicode="&#xd5;" horiz-adv-x="705" 
d="M316 -72q-70 0 -118.5 35t-73.5 90.5t-25 119.5t26 127t80 111t136 67q11 2 22 3.5t24 1.5q22 0 43 -6t36 -22q11 -10 11 -14t-2 -4q-3 0 -7.5 3t-9.5 4q-18 7 -40 7q-6 0 -11.5 -0.5t-10.5 -1.5q-59 -14 -105.5 -48t-79 -81t-49.5 -98.5t-17 -99.5q0 -47 17 -86
t52.5 -62t90.5 -23q15 0 32 2t36 6q40 9 81.5 38.5t79.5 73t67.5 95t47 106.5t17.5 107q0 100 -55.5 149.5t-149.5 49.5q-62 0 -123.5 -22.5t-105.5 -54.5q-45 -31 -81.5 -73.5t-59.5 -90t-28 -95.5q0 -11 -5 -11q-4 0 -8 9.5t-4 19.5q0 56 23.5 107t63.5 94t91 74.5
t106.5 49t108.5 17.5q80 1 142.5 -29t98.5 -87t36 -138q0 -79 -29.5 -148t-78 -123.5t-107 -90.5t-116.5 -49q-19 -5 -35.5 -7t-33.5 -2zM420 679q-8 0 -8 4v1q17 23 34.5 43.5t40.5 20.5q10 0 27.5 -9t37 -18.5t35.5 -9.5q10 0 16.5 7.5t11.5 14.5t10 7q9 0 9 -3v-2
q-10 -20 -27 -36.5t-37 -16.5q-15 0 -30.5 7.5t-30.5 15t-31 7.5q-10 0 -23 -8t-22.5 -16.5t-12.5 -8.5z" />
    <glyph glyph-name="Odieresis" unicode="&#xd6;" horiz-adv-x="705" 
d="M316 -72q-70 0 -118.5 35t-73.5 90.5t-25 119.5t26 127t80 111t136 67q11 2 22 3.5t24 1.5q22 0 43 -6t36 -22q11 -10 11 -14t-2 -4q-3 0 -7.5 3t-9.5 4q-18 7 -40 7q-6 0 -11.5 -0.5t-10.5 -1.5q-59 -14 -105.5 -48t-79 -81t-49.5 -98.5t-17 -99.5q0 -47 17 -86
t52.5 -62t90.5 -23q15 0 32 2t36 6q40 9 81.5 38.5t79.5 73t67.5 95t47 106.5t17.5 107q0 100 -55.5 149.5t-149.5 49.5q-62 0 -123.5 -22.5t-105.5 -54.5q-45 -31 -81.5 -73.5t-59.5 -90t-28 -95.5q0 -11 -5 -11q-4 0 -8 9.5t-4 19.5q0 56 23.5 107t63.5 94t91 74.5
t106.5 49t108.5 17.5q80 1 142.5 -29t98.5 -87t36 -138q0 -79 -29.5 -148t-78 -123.5t-107 -90.5t-116.5 -49q-19 -5 -35.5 -7t-33.5 -2zM480 673q-11 0 -22.5 2t-11.5 14q0 3 10.5 11.5t22.5 17.5t14 11q12 11 17 11q2 0 2 -2q0 -4 -3.5 -11.5t-3.5 -14.5q0 -8 -9.5 -23.5
t-15.5 -15.5zM580 673q-11 0 -22 2t-11 14q0 3 10.5 11.5t22.5 17.5t14 11q12 11 17 11q1 0 1 -2q0 -4 -3 -11.5t-3 -14.5q0 -8 -10 -23.5t-16 -15.5z" />
    <glyph glyph-name="multiply" unicode="&#xd7;" horiz-adv-x="466" 
d="M33 -2q-12 0 -12 8t17.5 29t47.5 49.5t67 61.5t76 66q-28 34 -63.5 70.5t-80.5 76.5q-6 6 -6 10q0 13 18 13q17 0 60 -42.5t97 -107.5q48 41 89 74.5t69.5 53.5t36.5 20t15.5 -5t7.5 -12q0 -6 -21 -22t-53 -38t-66.5 -46t-60.5 -45q35 -41 68 -83t55 -74t22 -43
q0 -5 -6.5 -8.5t-14.5 -3.5q-18 0 -26 11q-22 38 -50 83t-71 98q-45 -37 -92.5 -81.5t-99.5 -100.5q-5 -7 -11.5 -9.5t-11.5 -2.5z" />
    <glyph glyph-name="Oslash" unicode="&#xd8;" horiz-adv-x="613" 
d="M123 -53q-11 0 -8 11q3 6 10.5 19.5t19.5 32.5q-33 25 -49 62.5t-16 80.5q0 50 20 102q-27 11 -36 44q-3 14 -3 28q0 43 23 81.5t58 68.5t72 45q35 14 77 22.5t85 8.5q37 0 72 -6.5t65 -23.5q12 15 16 18q5 5 13 7t15 2q8 0 12.5 -3t-1.5 -9q-5 -7 -12.5 -15t-15.5 -18
l1 -1q36 -36 56.5 -81.5t20.5 -98.5q0 -56 -27 -118q-28 -64 -76.5 -116.5t-111.5 -83.5t-136 -31q-28 0 -52 5t-44 14q-4 -7 -8.5 -14t-9.5 -14q-5 -8 -14 -13.5t-16 -5.5zM112 281q23 53 69 98q26 24 65 45t82 32.5t78 7.5q31 -2 44 -21q16 20 28 36.5t22 29.5
q-23 12 -51 17.5t-58 5.5q-52 0 -105 -15.5t-96.5 -45t-68.5 -70.5t-21 -91q1 -8 3 -16t9 -13zM246 4q61 0 121.5 31.5t110.5 83.5t77 115q32 76 32 136q0 79 -54 119l-4 3q-32 -39 -76.5 -96.5t-93 -123.5t-95 -133t-82.5 -126q26 -9 64 -9zM158 29q24 38 58 87t72 103.5
t76.5 107l71.5 97.5q-8 5 -19.5 6.5t-19.5 1.5q-59 0 -120.5 -35t-104.5 -89q-8 -10 -15 -21l-14 -22q3 -2 9 -2q10 -1 10 -4q0 -4 -10 -7q-4 -1 -8 -1.5t-8 -0.5q-12 -27 -19 -56t-7 -57q0 -33 11.5 -61t36.5 -47z" />
    <glyph glyph-name="Ugrave" unicode="&#xd9;" horiz-adv-x="526" 
d="M452 -188q-36 0 -54 28t-24 69q-2 15 -3.5 31.5t-1.5 34.5q0 35 4 75.5t11 83.5q-38 -37 -82.5 -72.5t-92 -58.5t-95.5 -23q-25 0 -44.5 15t-24.5 50q-1 7 -1.5 13.5t-0.5 13.5q0 44 15 92t37.5 96.5t46 95.5t39.5 87q2 3 2 5.5v3.5q0 4 -3 4q-6 0 -22 -13
q-34 -28 -70 -48t-67 -22h-1q-9 0 -9 6q0 9 13 11q17 2 41.5 15.5t51.5 33.5t51.5 41.5t42 39.5t22.5 28q2 5 14.5 9t24.5 4q11 0 19 -3t6 -10q-7 -11 -26.5 -43.5t-45 -78t-51 -97.5t-45 -102.5t-27.5 -91.5q-2 -13 -3 -24.5t-1 -22.5q0 -40 14 -56.5t35 -16.5
q26 0 57.5 14.5t64 38t63.5 50.5t56 52q10 65 24.5 127t31 114t32.5 84q24 52 57 82.5t79 28.5q34 -3 47 -21t13 -42q0 -18 -6 -38q-13 -44 -40.5 -88.5t-61.5 -87.5t-68 -83t-61 -75q-5 -27 -9.5 -61.5t-7 -67.5t-2.5 -57q0 -97 33 -138q12 -15 28 -15q12 0 21 10
q4 8 12 16q6 6 10 6q7 0 4 -13q-1 -4 -4.5 -9.5t-8.5 -10.5q-7 -9 -25 -14t-34 -5zM450 234q36 34 73.5 83t68 103t43.5 102q2 8 3 15.5t1 13.5q0 29 -18 29q-15 0 -37 -23q-55 -61 -84.5 -143.5t-49.5 -179.5zM495 641q-6 0 -26 8t-44 19.5t-44.5 22.5t-27.5 17q-4 3 -7 6
t-3 7q0 9 11 17q8 6 15 6q5 0 15 -8t24 -20q27 -21 48.5 -36.5t31.5 -20.5q15 -7 15 -14q0 -4 -8 -4z" />
    <glyph glyph-name="Uacute" unicode="&#xda;" horiz-adv-x="526" 
d="M452 -188q-36 0 -54 28t-24 69q-2 15 -3.5 31.5t-1.5 34.5q0 35 4 75.5t11 83.5q-38 -37 -82.5 -72.5t-92 -58.5t-95.5 -23q-25 0 -44.5 15t-24.5 50q-1 7 -1.5 13.5t-0.5 13.5q0 44 15 92t37.5 96.5t46 95.5t39.5 87q2 3 2 5.5v3.5q0 4 -3 4q-6 0 -22 -13
q-34 -28 -70 -48t-67 -22h-1q-9 0 -9 6q0 9 13 11q17 2 41.5 15.5t51.5 33.5t51.5 41.5t42 39.5t22.5 28q2 5 14.5 9t24.5 4q11 0 19 -3t6 -10q-7 -11 -26.5 -43.5t-45 -78t-51 -97.5t-45 -102.5t-27.5 -91.5q-2 -13 -3 -24.5t-1 -22.5q0 -40 14 -56.5t35 -16.5
q26 0 57.5 14.5t64 38t63.5 50.5t56 52q10 65 24.5 127t31 114t32.5 84q24 52 57 82.5t79 28.5q34 -3 47 -21t13 -42q0 -18 -6 -38q-13 -44 -40.5 -88.5t-61.5 -87.5t-68 -83t-61 -75q-5 -27 -9.5 -61.5t-7 -67.5t-2.5 -57q0 -97 33 -138q12 -15 28 -15q12 0 21 10
q4 8 12 16q6 6 10 6q7 0 4 -13q-1 -4 -4.5 -9.5t-8.5 -10.5q-7 -9 -25 -14t-34 -5zM450 234q36 34 73.5 83t68 103t43.5 102q2 8 3 15.5t1 13.5q0 29 -18 29q-15 0 -37 -23q-55 -61 -84.5 -143.5t-49.5 -179.5zM397 640q-8 0 -8 4q0 5 15 14q10 6 31.5 21t48.5 36
q14 12 23 19t13 7h7.5t9.5 -5q11 -8 11 -14q0 -4 -2 -7.5t-5 -7.5q-7 -6 -28 -17t-46 -22.5t-45 -19.5t-25 -8z" />
    <glyph glyph-name="Ucircumflex" unicode="&#xdb;" horiz-adv-x="526" 
d="M452 -188q-36 0 -54 28t-24 69q-2 15 -3.5 31.5t-1.5 34.5q0 35 4 75.5t11 83.5q-38 -37 -82.5 -72.5t-92 -58.5t-95.5 -23q-25 0 -44.5 15t-24.5 50q-1 7 -1.5 13.5t-0.5 13.5q0 44 15 92t37.5 96.5t46 95.5t39.5 87q2 3 2 5.5v3.5q0 4 -3 4q-6 0 -22 -13
q-34 -28 -70 -48t-67 -22h-1q-9 0 -9 6q0 9 13 11q17 2 41.5 15.5t51.5 33.5t51.5 41.5t42 39.5t22.5 28q2 5 14.5 9t24.5 4q11 0 19 -3t6 -10q-7 -11 -26.5 -43.5t-45 -78t-51 -97.5t-45 -102.5t-27.5 -91.5q-2 -13 -3 -24.5t-1 -22.5q0 -40 14 -56.5t35 -16.5
q26 0 57.5 14.5t64 38t63.5 50.5t56 52q10 65 24.5 127t31 114t32.5 84q24 52 57 82.5t79 28.5q34 -3 47 -21t13 -42q0 -18 -6 -38q-13 -44 -40.5 -88.5t-61.5 -87.5t-68 -83t-61 -75q-5 -27 -9.5 -61.5t-7 -67.5t-2.5 -57q0 -97 33 -138q12 -15 28 -15q12 0 21 10
q4 8 12 16q6 6 10 6q7 0 4 -13q-1 -4 -4.5 -9.5t-8.5 -10.5q-7 -9 -25 -14t-34 -5zM450 234q36 34 73.5 83t68 103t43.5 102q2 8 3 15.5t1 13.5q0 29 -18 29q-15 0 -37 -23q-55 -61 -84.5 -143.5t-49.5 -179.5zM489 754q8 0 17.5 -18.5t17.5 -40.5t12 -32q2 -9 2.5 -13
t0.5 -8q-1 -10 -9 -12q-7 5 -18.5 21.5t-23.5 34.5t-18 28q-17 -10 -41 -29t-45.5 -34.5t-30.5 -15.5q-4 0 -4 4q1 7 16 19q10 9 28.5 25t38.5 32.5t36 27.5t21 11z" />
    <glyph glyph-name="Udieresis" unicode="&#xdc;" horiz-adv-x="526" 
d="M452 -188q-36 0 -54 28t-24 69q-2 15 -3.5 31.5t-1.5 34.5q0 35 4 75.5t11 83.5q-38 -37 -82.5 -72.5t-92 -58.5t-95.5 -23q-25 0 -44.5 15t-24.5 50q-1 7 -1.5 13.5t-0.5 13.5q0 44 15 92t37.5 96.5t46 95.5t39.5 87q2 3 2 5.5v3.5q0 4 -3 4q-6 0 -22 -13
q-34 -28 -70 -48t-67 -22h-1q-9 0 -9 6q0 9 13 11q17 2 41.5 15.5t51.5 33.5t51.5 41.5t42 39.5t22.5 28q2 5 14.5 9t24.5 4q11 0 19 -3t6 -10q-7 -11 -26.5 -43.5t-45 -78t-51 -97.5t-45 -102.5t-27.5 -91.5q-2 -13 -3 -24.5t-1 -22.5q0 -40 14 -56.5t35 -16.5
q26 0 57.5 14.5t64 38t63.5 50.5t56 52q10 65 24.5 127t31 114t32.5 84q24 52 57 82.5t79 28.5q34 -3 47 -21t13 -42q0 -18 -6 -38q-13 -44 -40.5 -88.5t-61.5 -87.5t-68 -83t-61 -75q-5 -27 -9.5 -61.5t-7 -67.5t-2.5 -57q0 -97 33 -138q12 -15 28 -15q12 0 21 10
q4 8 12 16q6 6 10 6q7 0 4 -13q-1 -4 -4.5 -9.5t-8.5 -10.5q-7 -9 -25 -14t-34 -5zM450 234q36 34 73.5 83t68 103t43.5 102q2 8 3 15.5t1 13.5q0 29 -18 29q-15 0 -37 -23q-55 -61 -84.5 -143.5t-49.5 -179.5zM404 641q-11 0 -22.5 2t-11.5 14q0 3 10.5 11.5t22.5 17.5
t14 11q12 11 17 11q2 0 2 -2q0 -4 -3.5 -11.5t-3.5 -14.5q0 -8 -9.5 -23.5t-15.5 -15.5zM504 641q-11 0 -22 2t-11 14q0 3 10.5 11.5t22.5 17.5t14 11q12 11 17 11q1 0 1 -2q0 -4 -3 -11.5t-3 -14.5q0 -8 -10 -23.5t-16 -15.5z" />
    <glyph glyph-name="Yacute" unicode="&#xdd;" horiz-adv-x="526" 
d="M87 -370q-36 0 -57.5 20.5t-21.5 54.5q0 26 14.5 59.5t47.5 70.5q68 78 151.5 128t180.5 81q6 17 17 56t25 91t29 106q-39 -60 -84 -116.5t-92.5 -102t-94 -72t-88.5 -26.5q-25 0 -44.5 15t-24.5 50q-1 7 -1.5 13.5t-0.5 13.5q0 44 15 92t37.5 96.5t46 95.5t39.5 87
q2 3 2 5.5v3.5q0 4 -3 4q-6 0 -22 -13q-34 -28 -70 -48t-67 -22h-1q-9 0 -9 6q0 9 13 11q17 2 41.5 15.5t51.5 33.5t51.5 41.5t42 39.5t22.5 28q2 5 14.5 9t24.5 4q11 0 19 -3t6 -10q-7 -11 -26.5 -43.5t-45 -78.5t-51 -97.5t-45 -102t-27.5 -91.5q-2 -13 -3 -24.5t-1 -22.5
q0 -40 14 -56.5t35 -16.5q34 0 74 27.5t82.5 74t82.5 104t75.5 118.5t61.5 116q8 17 13.5 31.5t12.5 26.5q4 8 7 13.5t7 7.5q12 20 34 27.5t44 7.5q19 0 32.5 -2.5t19.5 -3.5q10 -1 10 -9q0 -4 -4 -7.5t-11 -3.5q-39 4 -63.5 -25t-46.5 -86q-8 -19 -20.5 -58.5t-27.5 -87
t-29.5 -94.5t-26 -83t-16.5 -51q50 14 77 14q11 0 15 -3q3 -3 3 -7t-2 -6.5t-6 -0.5t-12 2q-13 0 -32.5 -4.5t-36 -11.5t-20.5 -17q-57 -145 -122.5 -231.5t-127 -124.5t-107.5 -38zM115 -344q37 0 73 28.5t69 73.5t60.5 96t48 97t30.5 74q-82 -27 -152 -72t-125 -113
q-31 -37 -44 -69.5t-13 -56.5q0 -27 14.5 -42.5t38.5 -15.5zM404 634q-8 0 -8 4q0 5 15 14q10 6 31.5 21t48.5 36q14 12 23 19t13 7h7.5t9.5 -5q11 -8 11 -14q0 -4 -2 -7.5t-5 -7.5q-7 -6 -28 -17t-46 -22.5t-45 -19.5t-25 -8z" />
    <glyph glyph-name="Thorn" unicode="&#xde;" horiz-adv-x="453" 
d="M44 -1q-13 0 -14 7q-1 12 8.5 45t26 80t36.5 102t42 110.5t42 104.5q-49 -12 -91 -30t-69 -32q-4 -1 -8.5 -2t-4.5 9q0 21 25 40t68 33.5t96 19.5q20 47 34.5 78.5t20.5 38.5q3 3 10 3q9 0 20.5 -4t19 -10t4.5 -12q-10 -21 -22.5 -43.5t-24.5 -47.5q35 0 70.5 -4
t69.5 -14q62 -18 92.5 -55t30.5 -80q0 -42 -28.5 -83t-84.5 -67q-23 -11 -58.5 -21.5t-74 -17.5t-71.5 -7q-30 0 -50 6q-10 3 -10 10q0 10 11 8q8 -2 19.5 -3t24.5 -1q50 0 100 19t91.5 49.5t66.5 66t25 68.5q0 32 -27 57t-90 37q-34 6 -70 6q-27 0 -51 -3q-36 -72 -73 -151
t-65.5 -157t-41.5 -146q-9 -7 -25 -7z" />
    <glyph glyph-name="germandbls" unicode="&#xdf;" horiz-adv-x="523" 
d="M-58 -192q-31 0 -59.5 17t-33.5 50q-1 11 7 19.5t16 8.5q13 0 12 -24q-1 -19 10 -31.5t28 -12.5q22 0 41.5 14.5t35.5 35.5q35 45 64 105.5t54.5 130t49.5 139.5h-2q-33 -6 -63 -9t-41 -3q-7 0 -14 5t-7 12t9 11.5t20.5 7.5t16.5 3q9 0 13.5 -6.5t8.5 -6.5q14 2 29 3.5
t29 3.5h9q5 14 10 28.5t11 29.5q10 28 29 64t45.5 70t59.5 56.5t72 22.5q28 2 50.5 -5.5t35.5 -24.5q16 -21 16 -49q0 -34 -22 -65t-46.5 -48.5t-50.5 -32.5q-11 -6 -26.5 -15.5t-26.5 -21t-11 -25.5q0 -16 19 -31q18 -14 43 -33.5t47.5 -40.5t33.5 -39q14 -21 14 -43
q0 -25 -16.5 -47t-41 -39t-48.5 -27q-10 -4 -40.5 -9.5t-62.5 -5.5q-27 0 -48.5 5.5t-29.5 19.5q-1 2 -1 4q0 5 5 5q4 0 11 -5q8 -7 19.5 -9.5t25.5 -2.5q24 0 52.5 8t53.5 24t41 39t16 53q0 22 -14 41t-34.5 36l-41 34t-34.5 35t-14 39q0 11 13.5 20.5t31.5 17.5
q40 20 80 42t64 62q16 25 16 50t-17.5 42t-50.5 17q-12 0 -37 -8.5t-51 -31.5q-45 -41 -77 -104.5t-57 -138t-48 -149t-50 -138t-63 -104.5q-18 -20 -40 -32.5t-48 -12.5z" />
    <glyph glyph-name="agrave" unicode="&#xe0;" horiz-adv-x="453" 
d="M319 -10q-17 0 -31.5 8t-21.5 30q-3 9 -3 25q0 22 6 49t13 46q-5 -2 -18.5 -17.5t-33 -37t-43 -43t-48.5 -35.5t-49 -14q-16 0 -34 9.5t-29 24.5q-15 20 -15 41q0 27 18.5 56t48 56.5t63 50t64 38t49.5 20.5q20 6 45 6q14 0 29 -3.5t25 -11.5q8 -4 13 -11t5 -15t-7 -5
q-8 12 -21.5 15.5t-27.5 3.5q-40 0 -88 -26t-86 -61q-12 -10 -32.5 -34.5t-37.5 -53.5t-17 -53q0 -13 7 -23q4 -7 13 -7q14 0 37.5 15t48.5 36.5t45.5 41.5t29.5 29q5 5 19.5 20.5t31.5 33.5t30.5 31t17.5 13q5 0 16.5 -2.5t19.5 -7.5t3 -13q-26 -38 -41.5 -79.5
t-18.5 -65.5q-1 -4 -1 -7.5v-7.5q0 -40 28 -40q15 0 40 18t51 43t47.5 48.5t29.5 35.5q3 3 6 3q4 0 7 -3.5t0 -8.5q-11 -18 -32 -43t-47 -50t-51 -43q-13 -10 -33 -17.5t-40 -7.5zM379 365q-6 0 -26 8t-44 19.5t-44.5 22.5t-27.5 17q-4 3 -7 6t-3 7q0 9 11 17q8 6 15 6
q5 0 15 -8t24 -20q27 -21 48.5 -36.5t31.5 -20.5q15 -7 15 -14q0 -4 -8 -4z" />
    <glyph glyph-name="aacute" unicode="&#xe1;" horiz-adv-x="453" 
d="M319 -10q-17 0 -31.5 8t-21.5 30q-3 9 -3 25q0 22 6 49t13 46q-5 -2 -18.5 -17.5t-33 -37t-43 -43t-48.5 -35.5t-49 -14q-16 0 -34 9.5t-29 24.5q-15 20 -15 41q0 27 18.5 56t48 56.5t63 50t64 38t49.5 20.5q20 6 45 6q14 0 29 -3.5t25 -11.5q8 -4 13 -11t5 -15t-7 -5
q-8 12 -21.5 15.5t-27.5 3.5q-40 0 -88 -26t-86 -61q-12 -10 -32.5 -34.5t-37.5 -53.5t-17 -53q0 -13 7 -23q4 -7 13 -7q14 0 37.5 15t48.5 36.5t45.5 41.5t29.5 29q5 5 19.5 20.5t31.5 33.5t30.5 31t17.5 13q5 0 16.5 -2.5t19.5 -7.5t3 -13q-26 -38 -41.5 -79.5
t-18.5 -65.5q-1 -4 -1 -7.5v-7.5q0 -40 28 -40q15 0 40 18t51 43t47.5 48.5t29.5 35.5q3 3 6 3q4 0 7 -3.5t0 -8.5q-11 -18 -32 -43t-47 -50t-51 -43q-13 -10 -33 -17.5t-40 -7.5zM281 364q-8 0 -8 4q0 5 15 14q10 6 31.5 21t48.5 36q14 12 23 19t13 7h7.5t9.5 -5
q11 -8 11 -14q0 -4 -2 -7.5t-5 -7.5q-7 -6 -28 -17t-46 -22.5t-45 -19.5t-25 -8z" />
    <glyph glyph-name="acircumflex" unicode="&#xe2;" horiz-adv-x="453" 
d="M319 -10q-17 0 -31.5 8t-21.5 30q-3 9 -3 25q0 22 6 49t13 46q-5 -2 -18.5 -17.5t-33 -37t-43 -43t-48.5 -35.5t-49 -14q-16 0 -34 9.5t-29 24.5q-15 20 -15 41q0 27 18.5 56t48 56.5t63 50t64 38t49.5 20.5q20 6 45 6q14 0 29 -3.5t25 -11.5q8 -4 13 -11t5 -15t-7 -5
q-8 12 -21.5 15.5t-27.5 3.5q-40 0 -88 -26t-86 -61q-12 -10 -32.5 -34.5t-37.5 -53.5t-17 -53q0 -13 7 -23q4 -7 13 -7q14 0 37.5 15t48.5 36.5t45.5 41.5t29.5 29q5 5 19.5 20.5t31.5 33.5t30.5 31t17.5 13q5 0 16.5 -2.5t19.5 -7.5t3 -13q-26 -38 -41.5 -79.5
t-18.5 -65.5q-1 -4 -1 -7.5v-7.5q0 -40 28 -40q15 0 40 18t51 43t47.5 48.5t29.5 35.5q3 3 6 3q4 0 7 -3.5t0 -8.5q-11 -18 -32 -43t-47 -50t-51 -43q-13 -10 -33 -17.5t-40 -7.5zM373 478q8 0 17.5 -18.5t17.5 -40.5t12 -32q2 -9 2.5 -13t0.5 -8q-1 -10 -9 -12
q-7 5 -18.5 21.5t-23.5 34.5t-18 28q-17 -10 -41 -29t-45.5 -34.5t-30.5 -15.5q-4 0 -4 4q1 7 16 19q10 9 28.5 25t38.5 32.5t36 27.5t21 11z" />
    <glyph glyph-name="atilde" unicode="&#xe3;" horiz-adv-x="453" 
d="M319 -10q-17 0 -31.5 8t-21.5 30q-3 9 -3 25q0 22 6 49t13 46q-5 -2 -18.5 -17.5t-33 -37t-43 -43t-48.5 -35.5t-49 -14q-16 0 -34 9.5t-29 24.5q-15 20 -15 41q0 27 18.5 56t48 56.5t63 50t64 38t49.5 20.5q20 6 45 6q14 0 29 -3.5t25 -11.5q8 -4 13 -11t5 -15t-7 -5
q-8 12 -21.5 15.5t-27.5 3.5q-40 0 -88 -26t-86 -61q-12 -10 -32.5 -34.5t-37.5 -53.5t-17 -53q0 -13 7 -23q4 -7 13 -7q14 0 37.5 15t48.5 36.5t45.5 41.5t29.5 29q5 5 19.5 20.5t31.5 33.5t30.5 31t17.5 13q5 0 16.5 -2.5t19.5 -7.5t3 -13q-26 -38 -41.5 -79.5
t-18.5 -65.5q-1 -4 -1 -7.5v-7.5q0 -40 28 -40q15 0 40 18t51 43t47.5 48.5t29.5 35.5q3 3 6 3q4 0 7 -3.5t0 -8.5q-11 -18 -32 -43t-47 -50t-51 -43q-13 -10 -33 -17.5t-40 -7.5zM234 371q-8 0 -8 4v1q17 23 34.5 43.5t40.5 20.5q10 0 27.5 -9t37 -18.5t35.5 -9.5
q10 0 16.5 7.5t11.5 14.5t10 7q9 0 9 -3v-2q-10 -20 -27 -36.5t-37 -16.5q-15 0 -30.5 7.5t-30.5 15t-31 7.5q-10 0 -23 -8t-22.5 -16.5t-12.5 -8.5z" />
    <glyph glyph-name="adieresis" unicode="&#xe4;" horiz-adv-x="453" 
d="M319 -10q-17 0 -31.5 8t-21.5 30q-3 9 -3 25q0 22 6 49t13 46q-5 -2 -18.5 -17.5t-33 -37t-43 -43t-48.5 -35.5t-49 -14q-16 0 -34 9.5t-29 24.5q-15 20 -15 41q0 27 18.5 56t48 56.5t63 50t64 38t49.5 20.5q20 6 45 6q14 0 29 -3.5t25 -11.5q8 -4 13 -11t5 -15t-7 -5
q-8 12 -21.5 15.5t-27.5 3.5q-40 0 -88 -26t-86 -61q-12 -10 -32.5 -34.5t-37.5 -53.5t-17 -53q0 -13 7 -23q4 -7 13 -7q14 0 37.5 15t48.5 36.5t45.5 41.5t29.5 29q5 5 19.5 20.5t31.5 33.5t30.5 31t17.5 13q5 0 16.5 -2.5t19.5 -7.5t3 -13q-26 -38 -41.5 -79.5
t-18.5 -65.5q-1 -4 -1 -7.5v-7.5q0 -40 28 -40q15 0 40 18t51 43t47.5 48.5t29.5 35.5q3 3 6 3q4 0 7 -3.5t0 -8.5q-11 -18 -32 -43t-47 -50t-51 -43q-13 -10 -33 -17.5t-40 -7.5zM287 366q-11 0 -22.5 2t-11.5 14q0 3 10.5 11.5t22.5 17.5t14 11q12 11 17 11q2 0 2 -2
q0 -4 -3.5 -11.5t-3.5 -14.5q0 -8 -9.5 -23.5t-15.5 -15.5zM387 366q-11 0 -22 2t-11 14q0 3 10.5 11.5t22.5 17.5t14 11q12 11 17 11q1 0 1 -2q0 -4 -3 -11.5t-3 -14.5q0 -8 -10 -23.5t-16 -15.5z" />
    <glyph glyph-name="aring" unicode="&#xe5;" horiz-adv-x="453" 
d="M319 -10q-17 0 -31.5 8t-21.5 30q-3 9 -3 25q0 22 6 49t13 46q-5 -2 -18.5 -17.5t-33 -37t-43 -43t-48.5 -35.5t-49 -14q-16 0 -34 9.5t-29 24.5q-15 20 -15 41q0 27 18.5 56t48 56.5t63 50t64 38t49.5 20.5q20 6 45 6q14 0 29 -3.5t25 -11.5q8 -4 13 -11t5 -15t-7 -5
q-8 12 -21.5 15.5t-27.5 3.5q-40 0 -88 -26t-86 -61q-12 -10 -32.5 -34.5t-37.5 -53.5t-17 -53q0 -13 7 -23q4 -7 13 -7q14 0 37.5 15t48.5 36.5t45.5 41.5t29.5 29q5 5 19.5 20.5t31.5 33.5t30.5 31t17.5 13q5 0 16.5 -2.5t19.5 -7.5t3 -13q-26 -38 -41.5 -79.5
t-18.5 -65.5q-1 -4 -1 -7.5v-7.5q0 -40 28 -40q15 0 40 18t51 43t47.5 48.5t29.5 35.5q3 3 6 3q4 0 7 -3.5t0 -8.5q-11 -18 -32 -43t-47 -50t-51 -43q-13 -10 -33 -17.5t-40 -7.5zM338 362q-25 0 -44.5 12t-19.5 37q0 8 8.5 26t30 33t60.5 15q20 0 38 -9.5t18 -32.5
q0 -19 -12.5 -38t-33 -31t-45.5 -12zM341 383q20 0 36.5 17t16.5 38q0 10 -5 18.5t-22 8.5q-13 0 -25.5 -10t-20.5 -23.5t-8 -24.5q0 -10 6.5 -17t21.5 -7z" />
    <glyph glyph-name="ae" unicode="&#xe6;" horiz-adv-x="564" 
d="M375 -16q-37 0 -64 15q-25 13 -35 33t-10 43q0 18 4.5 37t11.5 36q-5 -2 -18.5 -17.5t-33 -37t-43 -43t-48.5 -35.5t-49 -14q-16 0 -34 9.5t-29 24.5q-15 20 -15 41q0 27 18.5 56t48 56.5t63 50t64 38t49.5 20.5q20 6 45 6q14 0 29 -3.5t25 -11.5q8 -4 13 -11t5 -15
t-7 -5q-8 12 -21.5 15.5t-27.5 3.5q-40 0 -88 -26t-86 -61q-12 -10 -32.5 -34.5t-37.5 -53.5t-17 -53q0 -13 7 -23q4 -7 13 -7q14 0 37.5 15t48.5 36.5t45.5 41.5t29.5 29q5 5 19.5 20.5t31.5 33.5t30.5 31t17.5 13q5 0 15.5 -2t17.5 -7q36 31 76.5 52.5t72.5 21.5
q12 0 21 -3q17 -6 24 -19t7 -27q0 -26 -15 -46q-18 -27 -50.5 -48t-67 -33t-57.5 -14h-2q-13 0 -13 8q0 5 8 5q24 2 60.5 22.5t64.5 42.5q11 10 27.5 28t16.5 35q0 18 -16 18q-9 0 -19 -4t-16 -6q-29 -14 -63.5 -43.5t-63 -66t-40.5 -73.5q-2 -7 -3 -14.5t-1 -13.5
q0 -25 15.5 -35.5t37.5 -10.5q33 0 68 14.5t68.5 37.5t61 50t45.5 52q6 8 10 4q8 -5 1 -14q-23 -40 -63.5 -78t-89 -62.5t-98.5 -24.5z" />
    <glyph glyph-name="ccedilla" unicode="&#xe7;" horiz-adv-x="312" 
d="M158 -11q-18 -3 -36 -3q-44 0 -73 21t-29 61q0 24 14 58q10 23 37 53t63 58.5t73 47t67 18.5q11 0 20 -3q11 -4 19 -11t8 -21v-6t-2 -7q0 -3 -4.5 -13t-10 -17.5t-9.5 -3.5q-4 3 -4 8t2.5 11.5t2.5 11.5q0 7 -3.5 13.5t-11.5 6.5q-19 0 -49 -17t-61.5 -45.5t-56.5 -62.5
t-35 -68q-3 -8 -4 -15.5t-1 -14.5q0 -22 14.5 -31.5t35.5 -9.5q23 0 47 7q68 20 110.5 55t85.5 90q4 5 7 4t5 -1q3 -1 3 -6q0 -2 -1 -5t-2 -5q-43 -58 -95 -101.5t-126 -56.5zM38 -234q-23 0 -43 9.5t-30 28.5q-3 6 -3 9q0 5 3 5.5t5 -1.5q4 -7 20 -22t40 -15q26 0 50 10
t39 28t15 41q0 17 -10.5 27.5t-29.5 10.5q-11 0 -24.5 -3t-20.5 -3t-7 4q0 3 10 19t23.5 35.5t26 34t16.5 14.5q9 0 9 -7q0 -1 -7 -11.5t-16.5 -24.5t-18 -25.5t-11.5 -16.5q8 2 13.5 2.5t12.5 0.5q35 0 53.5 -16.5t18.5 -40.5q0 -27 -20.5 -48t-51 -33t-62.5 -12z" />
    <glyph glyph-name="egrave" unicode="&#xe8;" horiz-adv-x="319" 
d="M131 -15q-45 0 -78 21t-33 64q0 23 14 56q10 23 37 53t63 58.5t73 47t67 18.5q11 0 20 -3q17 -6 23.5 -19t6.5 -27q0 -13 -4 -25t-10 -21q-18 -27 -51.5 -48t-68 -33t-56.5 -14h-2q-13 0 -13 8q0 5 8 5q24 2 60.5 22.5t64.5 42.5q12 10 28.5 28t16.5 35q0 18 -17 18
q-9 0 -18.5 -4t-15.5 -6q-29 -14 -64 -43.5t-63.5 -66t-39.5 -73.5q-3 -8 -4 -15.5t-1 -14.5q0 -24 15.5 -34t37.5 -10q33 0 68 14.5t68 37.5t60.5 49.5t46.5 51.5q3 4 7 4.5t5 -1.5q4 -1 4 -5.5t-2 -8.5q-28 -39 -67.5 -76t-87 -61.5t-98.5 -24.5zM335 365q-6 0 -26 8
t-44 19.5t-44.5 22.5t-27.5 17q-4 3 -7 6t-3 7q0 9 11 17q8 6 15 6q5 0 15 -8t24 -20q27 -21 48.5 -36.5t31.5 -20.5q15 -7 15 -14q0 -4 -8 -4z" />
    <glyph glyph-name="eacute" unicode="&#xe9;" horiz-adv-x="319" 
d="M131 -15q-45 0 -78 21t-33 64q0 23 14 56q10 23 37 53t63 58.5t73 47t67 18.5q11 0 20 -3q17 -6 23.5 -19t6.5 -27q0 -13 -4 -25t-10 -21q-18 -27 -51.5 -48t-68 -33t-56.5 -14h-2q-13 0 -13 8q0 5 8 5q24 2 60.5 22.5t64.5 42.5q12 10 28.5 28t16.5 35q0 18 -17 18
q-9 0 -18.5 -4t-15.5 -6q-29 -14 -64 -43.5t-63.5 -66t-39.5 -73.5q-3 -8 -4 -15.5t-1 -14.5q0 -24 15.5 -34t37.5 -10q33 0 68 14.5t68 37.5t60.5 49.5t46.5 51.5q3 4 7 4.5t5 -1.5q4 -1 4 -5.5t-2 -8.5q-28 -39 -67.5 -76t-87 -61.5t-98.5 -24.5zM237 364q-8 0 -8 4
q0 5 15 14q10 6 31.5 21t48.5 36q14 12 23 19t13 7h7.5t9.5 -5q11 -8 11 -14q0 -4 -2 -7.5t-5 -7.5q-7 -6 -28 -17t-46 -22.5t-45 -19.5t-25 -8z" />
    <glyph glyph-name="ecircumflex" unicode="&#xea;" horiz-adv-x="319" 
d="M131 -15q-45 0 -78 21t-33 64q0 23 14 56q10 23 37 53t63 58.5t73 47t67 18.5q11 0 20 -3q17 -6 23.5 -19t6.5 -27q0 -13 -4 -25t-10 -21q-18 -27 -51.5 -48t-68 -33t-56.5 -14h-2q-13 0 -13 8q0 5 8 5q24 2 60.5 22.5t64.5 42.5q12 10 28.5 28t16.5 35q0 18 -17 18
q-9 0 -18.5 -4t-15.5 -6q-29 -14 -64 -43.5t-63.5 -66t-39.5 -73.5q-3 -8 -4 -15.5t-1 -14.5q0 -24 15.5 -34t37.5 -10q33 0 68 14.5t68 37.5t60.5 49.5t46.5 51.5q3 4 7 4.5t5 -1.5q4 -1 4 -5.5t-2 -8.5q-28 -39 -67.5 -76t-87 -61.5t-98.5 -24.5zM329 478q8 0 17.5 -18.5
t17.5 -40.5t12 -32q2 -9 2.5 -13t0.5 -8q-1 -10 -9 -12q-7 5 -18.5 21.5t-23.5 34.5t-18 28q-17 -10 -41 -29t-45.5 -34.5t-30.5 -15.5q-4 0 -4 4q1 7 16 19q10 9 28.5 25t38.5 32.5t36 27.5t21 11z" />
    <glyph glyph-name="edieresis" unicode="&#xeb;" horiz-adv-x="319" 
d="M131 -15q-45 0 -78 21t-33 64q0 23 14 56q10 23 37 53t63 58.5t73 47t67 18.5q11 0 20 -3q17 -6 23.5 -19t6.5 -27q0 -13 -4 -25t-10 -21q-18 -27 -51.5 -48t-68 -33t-56.5 -14h-2q-13 0 -13 8q0 5 8 5q24 2 60.5 22.5t64.5 42.5q12 10 28.5 28t16.5 35q0 18 -17 18
q-9 0 -18.5 -4t-15.5 -6q-29 -14 -64 -43.5t-63.5 -66t-39.5 -73.5q-3 -8 -4 -15.5t-1 -14.5q0 -24 15.5 -34t37.5 -10q33 0 68 14.5t68 37.5t60.5 49.5t46.5 51.5q3 4 7 4.5t5 -1.5q4 -1 4 -5.5t-2 -8.5q-28 -39 -67.5 -76t-87 -61.5t-98.5 -24.5zM243 366q-11 0 -22.5 2
t-11.5 14q0 3 10.5 11.5t22.5 17.5t14 11q12 11 17 11q2 0 2 -2q0 -4 -3.5 -11.5t-3.5 -14.5q0 -8 -9.5 -23.5t-15.5 -15.5zM343 366q-11 0 -22 2t-11 14q0 3 10.5 11.5t22.5 17.5t14 11q12 11 17 11q1 0 1 -2q0 -4 -3 -11.5t-3 -14.5q0 -8 -10 -23.5t-16 -15.5z" />
    <glyph glyph-name="igrave" unicode="&#xec;" horiz-adv-x="226" 
d="M212 387q-7 0 -31 10t-52.5 24.5t-49.5 25.5q-8 4 -22 15t-14 21q0 8 14 14q3 1 9 1q11 0 23.5 -7t25.5 -16q25 -20 50.5 -38.5t50.5 -38.5q5 -2 5 -6q0 -5 -9 -5zM89 -10q-19 0 -37.5 11t-18.5 40q0 20 9 50t22 58l-8.5 -13.5t-19 -26.5t-18.5 -13q-7 0 -7 8q0 3 4 10
q26 33 46.5 59t30.5 44q-1 2 -1 4q0 22 9 37t20 22.5t15 7.5q11 0 20.5 -4.5t9.5 -15.5q0 -15 -22 -53q-26 -54 -43 -94t-17 -66q0 -17 6.5 -28.5t19.5 -11.5q11 0 41 20.5t65.5 53.5t62.5 71q1 4 6 4q8 0 8 -7q0 -4 -1 -5q-11 -21 -33.5 -48.5t-51.5 -53.5t-59.5 -43
t-57.5 -17z" />
    <glyph glyph-name="iacute" unicode="&#xed;" horiz-adv-x="226" 
d="M170 376q-8 0 -8 5q0 3 4 7q1 2 12 9.5t24.5 16.5t18.5 13q20 17 40.5 30.5t34.5 32.5q6 2 9 2q6 0 11 -2t8 -3q12 -7 12 -20q0 -8 -6 -13l-1 -1q-8 -6 -31 -18.5t-50 -25.5t-49.5 -22.5t-28.5 -10.5zM89 -10q-19 0 -37.5 11t-18.5 40q0 20 9 50t22 58l-8.5 -13.5
t-19 -26.5t-18.5 -13q-7 0 -7 8q0 3 4 10q26 33 46.5 59t30.5 44q-1 2 -1 4q0 22 9 37t20 22.5t15 7.5q11 0 20.5 -4.5t9.5 -15.5q0 -15 -22 -53q-26 -54 -43 -94t-17 -66q0 -17 6.5 -28.5t19.5 -11.5q11 0 41 20.5t65.5 53.5t62.5 71q1 4 6 4q8 0 8 -7q0 -4 -1 -5
q-11 -21 -33.5 -48.5t-51.5 -53.5t-59.5 -43t-57.5 -17z" />
    <glyph glyph-name="icircumflex" unicode="&#xee;" horiz-adv-x="226" 
d="M277 359q2 0 -8.5 8.5t-26.5 21t-31.5 26t-24.5 22.5q-16 -10 -37 -28t-39.5 -32.5t-29.5 -14.5q-4 0 -4 3q0 4 4 10t7 10q6 5 21 18.5t33 29.5t34 27.5t23 11.5q10 -4 25.5 -21t31 -37t23.5 -34q4 -7 4 -13q0 -8 -5 -8zM89 -10q-19 0 -37.5 11t-18.5 40q0 20 9 50t22 58
l-8.5 -13.5t-19 -26.5t-18.5 -13q-7 0 -7 8q0 3 4 10q26 33 46.5 59t30.5 44q-1 2 -1 4q0 22 9 37t20 22.5t15 7.5q11 0 20.5 -4.5t9.5 -15.5q0 -15 -22 -53q-26 -54 -43 -94t-17 -66q0 -17 6.5 -28.5t19.5 -11.5q11 0 41 20.5t65.5 53.5t62.5 71q1 4 6 4q8 0 8 -7
q0 -4 -1 -5q-11 -21 -33.5 -48.5t-51.5 -53.5t-59.5 -43t-57.5 -17z" />
    <glyph glyph-name="idieresis" unicode="&#xef;" horiz-adv-x="226" 
d="M109 373q-10 0 -21.5 2t-11.5 15q0 3 11 11.5t23 17.5t14 11q13 10 16 10q2 0 2 -3q0 -4 -3 -11.5t-3 -13.5q0 -7 -9.5 -23t-17.5 -16zM268 373q-10 0 -22 2t-12 15q0 3 11 11.5t23 17.5t14 11q14 10 17 10q2 0 2 -3q0 -4 -3 -11.5t-3 -13.5q0 -5 -5 -14.5t-11.5 -17
t-10.5 -7.5zM89 -10q-19 0 -37.5 11t-18.5 40q0 20 9 50t22 58l-8.5 -13.5t-19 -26.5t-18.5 -13q-7 0 -7 8q0 3 4 10q26 33 46.5 59t30.5 44q-1 2 -1 4q0 22 9 37t20 22.5t15 7.5q11 0 20.5 -4.5t9.5 -15.5q0 -15 -22 -53q-26 -54 -43 -94t-17 -66q0 -17 6.5 -28.5
t19.5 -11.5q11 0 41 20.5t65.5 53.5t62.5 71q1 4 6 4q8 0 8 -7q0 -4 -1 -5q-11 -21 -33.5 -48.5t-51.5 -53.5t-59.5 -43t-57.5 -17z" />
    <glyph glyph-name="eth" unicode="&#xf0;" horiz-adv-x="344" 
d="M118 -11q-28 0 -49 13q-35 21 -35 76q0 23 8 53q7 25 25 54.5t42.5 56.5t53.5 44t58 17q12 0 21 -3q12 -4 20.5 -14.5t8.5 -26.5q0 -17 -8.5 -19t-8.5 4q0 2 0.5 4t0.5 3q0 8 -4.5 14.5t-16.5 6.5q-16 0 -39.5 -17t-48 -45.5t-43 -62.5t-24.5 -68q-1 -5 -1.5 -9.5
t-0.5 -9.5q0 -23 10.5 -38.5t33.5 -15.5q31 0 58.5 25.5t50.5 68t40 95.5t26 109t9 107q0 21 -2 48.5t-8 54t-18.5 43.5t-34.5 17t-45 -14t-49 -50q-6 -9 -10.5 -5t-5 14t4.5 18q26 44 60 55.5t66 11.5q53 0 70.5 -34t17.5 -119q0 -57 -10.5 -120.5t-30 -124t-48 -110
t-64.5 -78.5t-80 -29zM242 427q-16 -8 -20 1q-4 7 2 20.5t16 17.5q9 5 33.5 17.5t52 26.5t45.5 23q22 10 38 13t19 -1q2 -6 -7 -14t-20.5 -15t-15.5 -10q-21 -12 -49.5 -28t-54 -30t-39.5 -21z" />
    <glyph glyph-name="ntilde" unicode="&#xf1;" horiz-adv-x="404" 
d="M-2 -13q-7 0 -4 7q3 6 11 27.5t18.5 51.5t21.5 62t20.5 60t15.5 44q2 6 4 17.5t8.5 21t22.5 9.5q30 0 30 -14q0 -5 -5 -17q-12 -27 -26 -62t-25 -66t-17 -48q10 14 32.5 40t50.5 56t58.5 58t57 45.5t45.5 17.5q24 0 24 -26q0 -9 -5 -27q-9 -25 -23 -48.5t-25 -49.5
q-19 -47 -22 -76q-1 -4 -1 -7.5v-7.5q0 -40 27 -40q15 0 40 18t51.5 43t47.5 48.5t29 35.5q3 3 6 3q4 0 6.5 -3t0.5 -8q-9 -17 -30.5 -42.5t-47.5 -51t-51 -43.5q-15 -10 -37 -18t-44 -7q-28 3 -40 19.5t-12 39.5q0 27 10.5 57.5t23.5 57.5t21 41q8 16 8 25q0 8 -7 8t-21 -9
t-38 -31q-22 -19 -47 -49.5t-48.5 -62.5t-41 -55t-24.5 -27q-5 -3 -22.5 -10t-26.5 -7zM147 371q-8 0 -8 4v1q17 23 34.5 43.5t40.5 20.5q10 0 27.5 -9t37 -18.5t35.5 -9.5q10 0 16.5 7.5t11.5 14.5t10 7q9 0 9 -3v-2q-10 -20 -27 -36.5t-37 -16.5q-15 0 -30.5 7.5t-30.5 15
t-31 7.5q-10 0 -23 -8t-22.5 -16.5t-12.5 -8.5z" />
    <glyph glyph-name="ograve" unicode="&#xf2;" horiz-adv-x="347" 
d="M118 -11q-28 0 -49 13q-35 21 -35 76q0 23 8 53q7 25 25 54.5t42.5 56.5t53.5 44t58 17q12 0 21 -3q12 -4 20.5 -14.5t8.5 -26.5q0 -17 -8.5 -19t-8.5 4q0 2 0.5 4t0.5 3q0 8 -4.5 14.5t-16.5 6.5q-16 0 -39.5 -17t-48 -45.5t-43 -62.5t-24.5 -68q-1 -5 -1.5 -9.5
t-0.5 -9.5q0 -23 10.5 -38.5t33.5 -15.5q28 0 54 21.5t46.5 51.5t30.5 53q8 18 11 31t3 22q0 8 -1.5 14t-3.5 10q-2 6 -2 9q0 8 6.5 13t13.5 5q6 0 13 -4q8 -2 22 -3t30 -1q17 0 34.5 1t30.5 4q2 1 6 1q7 0 7 -4t-7 -7q-35 -16 -62.5 -17t-47.5 -1q2 -25 -11 -53.5
t-27 -50.5q-17 -25 -39 -51t-49 -43.5t-61 -17.5zM319 365q-6 0 -26 8t-44 19.5t-44.5 22.5t-27.5 17q-4 3 -7 6t-3 7q0 9 11 17q8 6 15 6q5 0 15 -8t24 -20q27 -21 48.5 -36.5t31.5 -20.5q15 -7 15 -14q0 -4 -8 -4z" />
    <glyph glyph-name="oacute" unicode="&#xf3;" horiz-adv-x="347" 
d="M118 -11q-28 0 -49 13q-35 21 -35 76q0 23 8 53q7 25 25 54.5t42.5 56.5t53.5 44t58 17q12 0 21 -3q12 -4 20.5 -14.5t8.5 -26.5q0 -17 -8.5 -19t-8.5 4q0 2 0.5 4t0.5 3q0 8 -4.5 14.5t-16.5 6.5q-16 0 -39.5 -17t-48 -45.5t-43 -62.5t-24.5 -68q-1 -5 -1.5 -9.5
t-0.5 -9.5q0 -23 10.5 -38.5t33.5 -15.5q28 0 54 21.5t46.5 51.5t30.5 53q8 18 11 31t3 22q0 8 -1.5 14t-3.5 10q-2 6 -2 9q0 8 6.5 13t13.5 5q6 0 13 -4q8 -2 22 -3t30 -1q17 0 34.5 1t30.5 4q2 1 6 1q7 0 7 -4t-7 -7q-35 -16 -62.5 -17t-47.5 -1q2 -25 -11 -53.5
t-27 -50.5q-17 -25 -39 -51t-49 -43.5t-61 -17.5zM221 364q-8 0 -8 4q0 5 15 14q10 6 31.5 21t48.5 36q14 12 23 19t13 7h7.5t9.5 -5q11 -8 11 -14q0 -4 -2 -7.5t-5 -7.5q-7 -6 -28 -17t-46 -22.5t-45 -19.5t-25 -8z" />
    <glyph glyph-name="ocircumflex" unicode="&#xf4;" horiz-adv-x="347" 
d="M118 -11q-28 0 -49 13q-35 21 -35 76q0 23 8 53q7 25 25 54.5t42.5 56.5t53.5 44t58 17q12 0 21 -3q12 -4 20.5 -14.5t8.5 -26.5q0 -17 -8.5 -19t-8.5 4q0 2 0.5 4t0.5 3q0 8 -4.5 14.5t-16.5 6.5q-16 0 -39.5 -17t-48 -45.5t-43 -62.5t-24.5 -68q-1 -5 -1.5 -9.5
t-0.5 -9.5q0 -23 10.5 -38.5t33.5 -15.5q28 0 54 21.5t46.5 51.5t30.5 53q8 18 11 31t3 22q0 8 -1.5 14t-3.5 10q-2 6 -2 9q0 8 6.5 13t13.5 5q6 0 13 -4q8 -2 22 -3t30 -1q17 0 34.5 1t30.5 4q2 1 6 1q7 0 7 -4t-7 -7q-35 -16 -62.5 -17t-47.5 -1q2 -25 -11 -53.5
t-27 -50.5q-17 -25 -39 -51t-49 -43.5t-61 -17.5zM313 478q8 0 17.5 -18.5t17.5 -40.5t12 -32q2 -9 2.5 -13t0.5 -8q-1 -10 -9 -12q-7 5 -18.5 21.5t-23.5 34.5t-18 28q-17 -10 -41 -29t-45.5 -34.5t-30.5 -15.5q-4 0 -4 4q1 7 16 19q10 9 28.5 25t38.5 32.5t36 27.5t21 11z
" />
    <glyph glyph-name="otilde" unicode="&#xf5;" horiz-adv-x="347" 
d="M118 -11q-28 0 -49 13q-35 21 -35 76q0 23 8 53q7 25 25 54.5t42.5 56.5t53.5 44t58 17q12 0 21 -3q12 -4 20.5 -14.5t8.5 -26.5q0 -17 -8.5 -19t-8.5 4q0 2 0.5 4t0.5 3q0 8 -4.5 14.5t-16.5 6.5q-16 0 -39.5 -17t-48 -45.5t-43 -62.5t-24.5 -68q-1 -5 -1.5 -9.5
t-0.5 -9.5q0 -23 10.5 -38.5t33.5 -15.5q28 0 54 21.5t46.5 51.5t30.5 53q8 18 11 31t3 22q0 8 -1.5 14t-3.5 10q-2 6 -2 9q0 8 6.5 13t13.5 5q6 0 13 -4q8 -2 22 -3t30 -1q17 0 34.5 1t30.5 4q2 1 6 1q7 0 7 -4t-7 -7q-35 -16 -62.5 -17t-47.5 -1q2 -25 -11 -53.5
t-27 -50.5q-17 -25 -39 -51t-49 -43.5t-61 -17.5zM174 371q-8 0 -8 4v1q17 23 34.5 43.5t40.5 20.5q10 0 27.5 -9t37 -18.5t35.5 -9.5q10 0 16.5 7.5t11.5 14.5t10 7q9 0 9 -3v-2q-10 -20 -27 -36.5t-37 -16.5q-15 0 -30.5 7.5t-30.5 15t-31 7.5q-10 0 -23 -8t-22.5 -16.5
t-12.5 -8.5z" />
    <glyph glyph-name="odieresis" unicode="&#xf6;" horiz-adv-x="347" 
d="M118 -11q-28 0 -49 13q-35 21 -35 76q0 23 8 53q7 25 25 54.5t42.5 56.5t53.5 44t58 17q12 0 21 -3q12 -4 20.5 -14.5t8.5 -26.5q0 -17 -8.5 -19t-8.5 4q0 2 0.5 4t0.5 3q0 8 -4.5 14.5t-16.5 6.5q-16 0 -39.5 -17t-48 -45.5t-43 -62.5t-24.5 -68q-1 -5 -1.5 -9.5
t-0.5 -9.5q0 -23 10.5 -38.5t33.5 -15.5q28 0 54 21.5t46.5 51.5t30.5 53q8 18 11 31t3 22q0 8 -1.5 14t-3.5 10q-2 6 -2 9q0 8 6.5 13t13.5 5q6 0 13 -4q8 -2 22 -3t30 -1q17 0 34.5 1t30.5 4q2 1 6 1q7 0 7 -4t-7 -7q-35 -16 -62.5 -17t-47.5 -1q2 -25 -11 -53.5
t-27 -50.5q-17 -25 -39 -51t-49 -43.5t-61 -17.5zM227 366q-11 0 -22.5 2t-11.5 14q0 3 10.5 11.5t22.5 17.5t14 11q12 11 17 11q2 0 2 -2q0 -4 -3.5 -11.5t-3.5 -14.5q0 -8 -9.5 -23.5t-15.5 -15.5zM327 366q-11 0 -22 2t-11 14q0 3 10.5 11.5t22.5 17.5t14 11q12 11 17 11
q1 0 1 -2q0 -4 -3 -11.5t-3 -14.5q0 -8 -10 -23.5t-16 -15.5z" />
    <glyph glyph-name="divide" unicode="&#xf7;" horiz-adv-x="469" 
d="M319 262q-10 0 -22 2t-12 14q0 2 5 7t10 11l18 16q15 11 22 11q6 0 6 -7v-15q0 -5 -5 -14.5t-11.5 -17t-10.5 -7.5zM111 170q-11 0 -4 0q-14 1 -14 10q0 8 11 17t21 9h34.5t65.5 0.5t77 1t70 0.5h43q25 0 40 -4.5t15 -9.5q1 -6 -11 -9t-25 -4.5t-18 -2.5q-14 -1 -47 -2
t-74 -2t-81 -1.5t-69 -1.5t-38 -1h4zM248 55q-11 0 -22.5 2t-11.5 15q0 3 11 14t24 21t18 10q6 0 6 -8v-15q0 -5 -5 -14.5t-10.5 -17t-9.5 -7.5z" />
    <glyph glyph-name="oslash" unicode="&#xf8;" horiz-adv-x="351" 
d="M39 -52q-6 0 -6 5q0 9 30 53q-28 22 -28 72q0 12 1.5 25.5t5.5 27.5q7 25 25 54.5t42.5 56.5t53.5 44t58 17q11 0 23.5 -4t18.5 -15q20 26 33.5 44t20.5 22q8 6 20 6q7 0 10.5 -2t-1.5 -7q-13 -13 -32 -35.5t-43 -52.5v-7q-2 -9 -6.5 -11.5t-7.5 -1.5
q-39 -49 -83.5 -108.5t-79.5 -115.5q5 -4 11.5 -6.5t15.5 -2.5q23 0 52 22t52 56q-3 3 -3 6q-1 4 -1 10q0 12 7.5 18.5t19.5 4.5q11 22 14.5 37t3.5 25q0 8 -1.5 14t-3.5 10q-2 6 -2 9q0 8 7 13t14 5q18 0 22 -16q3 -10 3 -21q0 -29 -16 -61t-30 -52q1 -13 8 -20.5t16 -7.5
q20 0 43.5 18.5t44 43t32.5 40.5q3 3 6 3q4 0 6 -3t0 -8q-4 -9 -13 -20.5t-20 -25.5q-11 -13 -27.5 -29.5t-35.5 -28.5t-38 -12q-27 0 -42 25q-23 -27 -52.5 -49t-68.5 -22q-20 0 -35 6q-6 -9 -11.5 -18t-10.5 -17q-8 -13 -22 -13zM81 33q23 34 52.5 75t60 82.5t56.5 75.5
q-3 6 -16 6q-16 0 -39.5 -17t-48 -45.5t-43 -62.5t-24.5 -68q-1 -6 -1.5 -11.5t-0.5 -10.5q0 -15 4 -24z" />
    <glyph glyph-name="ugrave" unicode="&#xf9;" horiz-adv-x="444" 
d="M307 -10q-18 0 -32 8t-21 30q-1 5 -2.5 11.5t-1.5 13.5q0 24 6.5 54t14.5 50q-4 -3 -14 -20t-25 -39.5t-33.5 -45t-40 -37t-45.5 -14.5q-16 0 -38.5 9t-32.5 25t-10 40q0 29 13 63.5t33 64.5q7 10 16 24t18 24.5t13 11.5q12 4 28 4q17 0 25 -4q7 -3 7 -7q0 -5 -8 -13
q-11 -10 -30 -30t-37.5 -48t-30.5 -62q-10 -27 -10 -47q0 -35 28 -35q24 0 51 20t52.5 49t46 57.5t31.5 45.5q10 14 22.5 36t24.5 43t19 31q7 0 21.5 -2.5t25 -8.5t5.5 -15q-6 -10 -18.5 -31t-25 -42.5t-19.5 -34.5q-24 -46 -31 -99q-1 -4 -1 -7.5v-7.5q0 -40 27 -40
q15 0 40 18t51.5 43t48 48.5t29.5 35.5q2 3 6 3t6.5 -3t-0.5 -8q-9 -17 -30.5 -42.5t-47.5 -51t-51 -43.5q-13 -10 -33 -17.5t-40 -7.5zM314 360q-6 0 -26 8t-44 19.5t-44.5 22.5t-27.5 17q-4 3 -7 6t-3 7q0 9 11 17q8 6 15 6q5 0 15 -8t24 -20q27 -21 48.5 -36.5
t31.5 -20.5q15 -7 15 -14q0 -4 -8 -4z" />
    <glyph glyph-name="uacute" unicode="&#xfa;" horiz-adv-x="444" 
d="M307 -10q-18 0 -32 8t-21 30q-1 5 -2.5 11.5t-1.5 13.5q0 24 6.5 54t14.5 50q-4 -3 -14 -20t-25 -39.5t-33.5 -45t-40 -37t-45.5 -14.5q-16 0 -38.5 9t-32.5 25t-10 40q0 29 13 63.5t33 64.5q7 10 16 24t18 24.5t13 11.5q12 4 28 4q17 0 25 -4q7 -3 7 -7q0 -5 -8 -13
q-11 -10 -30 -30t-37.5 -48t-30.5 -62q-10 -27 -10 -47q0 -35 28 -35q24 0 51 20t52.5 49t46 57.5t31.5 45.5q10 14 22.5 36t24.5 43t19 31q7 0 21.5 -2.5t25 -8.5t5.5 -15q-6 -10 -18.5 -31t-25 -42.5t-19.5 -34.5q-24 -46 -31 -99q-1 -4 -1 -7.5v-7.5q0 -40 27 -40
q15 0 40 18t51.5 43t48 48.5t29.5 35.5q2 3 6 3t6.5 -3t-0.5 -8q-9 -17 -30.5 -42.5t-47.5 -51t-51 -43.5q-13 -10 -33 -17.5t-40 -7.5zM216 359q-8 0 -8 4q0 5 15 14q10 6 31.5 21t48.5 36q14 12 23 19t13 7h7.5t9.5 -5q11 -8 11 -14q0 -4 -2 -7.5t-5 -7.5q-7 -6 -28 -17
t-46 -22.5t-45 -19.5t-25 -8z" />
    <glyph glyph-name="ucircumflex" unicode="&#xfb;" horiz-adv-x="444" 
d="M307 -10q-18 0 -32 8t-21 30q-1 5 -2.5 11.5t-1.5 13.5q0 24 6.5 54t14.5 50q-4 -3 -14 -20t-25 -39.5t-33.5 -45t-40 -37t-45.5 -14.5q-16 0 -38.5 9t-32.5 25t-10 40q0 29 13 63.5t33 64.5q7 10 16 24t18 24.5t13 11.5q12 4 28 4q17 0 25 -4q7 -3 7 -7q0 -5 -8 -13
q-11 -10 -30 -30t-37.5 -48t-30.5 -62q-10 -27 -10 -47q0 -35 28 -35q24 0 51 20t52.5 49t46 57.5t31.5 45.5q10 14 22.5 36t24.5 43t19 31q7 0 21.5 -2.5t25 -8.5t5.5 -15q-6 -10 -18.5 -31t-25 -42.5t-19.5 -34.5q-24 -46 -31 -99q-1 -4 -1 -7.5v-7.5q0 -40 27 -40
q15 0 40 18t51.5 43t48 48.5t29.5 35.5q2 3 6 3t6.5 -3t-0.5 -8q-9 -17 -30.5 -42.5t-47.5 -51t-51 -43.5q-13 -10 -33 -17.5t-40 -7.5zM308 473q8 0 17.5 -18.5t17.5 -40.5t12 -32q2 -9 2.5 -13t0.5 -8q-1 -10 -9 -12q-7 5 -18.5 21.5t-23.5 34.5t-18 28q-17 -10 -41 -29
t-45.5 -34.5t-30.5 -15.5q-4 0 -4 4q1 7 16 19q10 9 28.5 25t38.5 32.5t36 27.5t21 11z" />
    <glyph glyph-name="udieresis" unicode="&#xfc;" horiz-adv-x="444" 
d="M307 -10q-18 0 -32 8t-21 30q-1 5 -2.5 11.5t-1.5 13.5q0 24 6.5 54t14.5 50q-4 -3 -14 -20t-25 -39.5t-33.5 -45t-40 -37t-45.5 -14.5q-16 0 -38.5 9t-32.5 25t-10 40q0 29 13 63.5t33 64.5q7 10 16 24t18 24.5t13 11.5q12 4 28 4q17 0 25 -4q7 -3 7 -7q0 -5 -8 -13
q-11 -10 -30 -30t-37.5 -48t-30.5 -62q-10 -27 -10 -47q0 -35 28 -35q24 0 51 20t52.5 49t46 57.5t31.5 45.5q10 14 22.5 36t24.5 43t19 31q7 0 21.5 -2.5t25 -8.5t5.5 -15q-6 -10 -18.5 -31t-25 -42.5t-19.5 -34.5q-24 -46 -31 -99q-1 -4 -1 -7.5v-7.5q0 -40 27 -40
q15 0 40 18t51.5 43t48 48.5t29.5 35.5q2 3 6 3t6.5 -3t-0.5 -8q-9 -17 -30.5 -42.5t-47.5 -51t-51 -43.5q-13 -10 -33 -17.5t-40 -7.5zM222 361q-11 0 -22.5 2t-11.5 14q0 3 10.5 11.5t22.5 17.5t14 11q12 11 17 11q2 0 2 -2q0 -4 -3.5 -11.5t-3.5 -14.5q0 -8 -9.5 -23.5
t-15.5 -15.5zM322 361q-11 0 -22 2t-11 14q0 3 10.5 11.5t22.5 17.5t14 11q12 11 17 11q1 0 1 -2q0 -4 -3 -11.5t-3 -14.5q0 -8 -10 -23.5t-16 -15.5z" />
    <glyph glyph-name="yacute" unicode="&#xfd;" horiz-adv-x="415" 
d="M-2 -367q-12 3 -21 6q-19 10 -27 22.5t-8 26.5q0 23 15.5 49.5t40.5 54.5q25 30 63.5 61t80.5 59.5t74 49.5q17 35 35.5 75t35.5 77.5t29.5 68.5t18.5 48q-16 -19 -37 -47.5t-46 -60t-51.5 -59.5t-54.5 -45.5t-55 -17.5q-40 0 -55.5 20.5t-15.5 48.5q0 20 5.5 40t14.5 37
q6 12 19 32t30 41t34.5 35t33.5 14q19 0 29 -13.5t2 -18.5q-16 -11 -39.5 -33.5t-46.5 -51.5q-6 -8 -14.5 -25t-15.5 -36.5t-7 -35.5q0 -7 2 -13.5t7 -9.5q8 -6 18 -6q14 0 31.5 9t33.5 23q56 54 100 113t93 117q3 10 17 10q16 0 33.5 -9.5t14.5 -15.5q-9 -20 -23.5 -53
t-31.5 -71t-34 -75.5t-31 -67.5q12 6 43 30t68 58.5t67 71.5q6 6 9 6q6 0 6 -8q0 -7 -6 -16q-15 -20 -41.5 -47t-57 -54.5t-59.5 -50t-50 -34.5q-31 -66 -60 -124.5t-53 -94.5q-16 -25 -39 -51t-50 -43.5t-57 -17.5q-4 0 -8 0.5t-9 1.5zM1 -345q8 0 19.5 5t24.5 16
q38 31 64 72.5t46.5 87.5t41.5 88q-39 -29 -88 -68.5t-89 -78.5q-24 -24 -35 -47.5t-11 -41.5q0 -33 27 -33zM226 369q-8 0 -8 4q0 5 15 14q10 6 31.5 21t48.5 36q14 12 23 19t13 7h7.5t9.5 -5q11 -8 11 -14q0 -4 -2 -7.5t-5 -7.5q-7 -6 -28 -17t-46 -22.5t-45 -19.5t-25 -8
z" />
    <glyph glyph-name="thorn" unicode="&#xfe;" horiz-adv-x="351" 
d="M-128 -342q-12 0 -12 10q0 4 3 11q10 21 29.5 67t44.5 108t53 133.5t56 145t53 141.5t45 124t31.5 92t11.5 45q0 8 11 9.5t21 1.5q33 0 33 -21q0 -17 -20 -48q-7 -12 -22.5 -46t-34.5 -79.5t-37.5 -91t-32.5 -80.5t-19 -48q24 32 45 63t49 53q22 17 43.5 27.5t46.5 10.5
q26 0 52 -12.5t30 -39.5q1 -3 1 -6.5v-6.5q0 -35 -20.5 -68.5t-48.5 -59.5t-52 -42q-20 -12 -48.5 -26t-60 -24t-60.5 -10q-18 0 -30 4q-13 -30 -30 -77.5t-32 -93.5q-7 -20 -5 -32.5t-5 -31.5q-6 -20 -13 -38.5t-16 -35.5q-2 -4 -12.5 -11t-24 -12t-23.5 -5zM41 11
q32 0 67 15t69 40t61.5 54.5t44.5 57.5q20 32 20 59q0 31 -27 31q-7 0 -17 -2.5t-23 -9.5q-53 -28 -87 -65.5t-58 -82.5t-50 -97z" />
    <glyph glyph-name="ydieresis" unicode="&#xff;" horiz-adv-x="415" 
d="M-2 -367q-12 3 -21 6q-19 10 -27 22.5t-8 26.5q0 23 15.5 49.5t40.5 54.5q25 30 63.5 61t80.5 59.5t74 49.5q17 35 35.5 75t35.5 77.5t29.5 68.5t18.5 48q-16 -19 -37 -47.5t-46 -60t-51.5 -59.5t-54.5 -45.5t-55 -17.5q-40 0 -55.5 20.5t-15.5 48.5q0 20 5.5 40t14.5 37
q6 12 19 32t30 41t34.5 35t33.5 14q19 0 29 -13.5t2 -18.5q-16 -11 -39.5 -33.5t-46.5 -51.5q-6 -8 -14.5 -25t-15.5 -36.5t-7 -35.5q0 -7 2 -13.5t7 -9.5q8 -6 18 -6q14 0 31.5 9t33.5 23q56 54 100 113t93 117q3 10 17 10q16 0 33.5 -9.5t14.5 -15.5q-9 -20 -23.5 -53
t-31.5 -71t-34 -75.5t-31 -67.5q12 6 43 30t68 58.5t67 71.5q6 6 9 6q6 0 6 -8q0 -7 -6 -16q-15 -20 -41.5 -47t-57 -54.5t-59.5 -50t-50 -34.5q-31 -66 -60 -124.5t-53 -94.5q-16 -25 -39 -51t-50 -43.5t-57 -17.5q-4 0 -8 0.5t-9 1.5zM1 -345q8 0 19.5 5t24.5 16
q38 31 64 72.5t46.5 87.5t41.5 88q-39 -29 -88 -68.5t-89 -78.5q-24 -24 -35 -47.5t-11 -41.5q0 -33 27 -33zM232 371q-11 0 -22.5 2t-11.5 14q0 3 10.5 11.5t22.5 17.5t14 11q12 11 17 11q2 0 2 -2q0 -4 -3.5 -11.5t-3.5 -14.5q0 -8 -9.5 -23.5t-15.5 -15.5zM332 371
q-11 0 -22 2t-11 14q0 3 10.5 11.5t22.5 17.5t14 11q12 11 17 11q1 0 1 -2q0 -4 -3 -11.5t-3 -14.5q0 -8 -10 -23.5t-16 -15.5z" />
    <glyph glyph-name="Amacron" unicode="&#x100;" horiz-adv-x="847" 
d="M142 -83q-33 0 -63 11t-49 35t-19 61q0 9 4.5 16.5t8.5 7.5q8 0 8 -24q0 -34 29 -53q23 -15 62 -15t81 14t80 40q45 30 100.5 86.5t115.5 123.5q-48 5 -95.5 11t-95.5 6q-32 0 -64 -6.5t-58 -24.5t-39 -53q-1 -4 -2.5 -9t-1.5 -10q0 -10 5 -18q2 -6 2 -7q0 -9 -8 -9
q-7 0 -11 7q-10 18 -10 46q0 53 19.5 81t52.5 38t71 10q17 0 35.5 -1.5t36.5 -3.5q44 -4 91 -13.5t94 -19.5q52 61 102.5 123t94.5 117.5t75 95.5q1 3 4 4q2 2 3 2q11 6 28 10.5t23 4.5q10 0 10 -11q0 -3 -5 -11q-50 -85 -85.5 -174t-62.5 -183l-2 -7q6 0 12.5 -0.5
t11.5 -0.5q43 -3 73 9q22 8 30 23q3 4 5 4q5 0 7 -5.5t-1 -10.5q-11 -19 -39 -28q-16 -7 -36.5 -9t-42.5 -1h-6l-12 1h-6q-15 -55 -21 -114q-1 -5 -1 -9.5v-9.5q0 -57 31 -57q20 0 47.5 18t56 44t51.5 51.5t34 40.5q2 2 6 2q10 0 6 -11q-2 -3 -17 -23.5t-41 -49t-61 -56.5
q-28 -22 -55.5 -28.5t-41.5 -6.5q-28 0 -44.5 25.5t-16.5 65.5q0 29 6 60t14 62q-29 3 -59 6.5t-60 7.5q-60 -73 -119.5 -136.5t-111.5 -102.5q-39 -28 -80.5 -43.5t-83.5 -15.5zM660 220q18 70 42.5 140.5t48.5 128.5l5 12q-43 -60 -94.5 -128t-104.5 -135q26 -5 52 -9.5
t51 -8.5zM799 668q-25 0 -25 9q0 17 25.5 21.5t64.5 4.5q20 0 43.5 -0.5t46.5 -0.5q11 0 22 -2t11 -9q1 -6 -8 -9.5t-19 -4.5t-13 -2q-23 -1 -51 -2.5t-54 -3t-43 -1.5z" />
    <glyph glyph-name="amacron" unicode="&#x101;" horiz-adv-x="453" 
d="M319 -10q-17 0 -31.5 8t-21.5 30q-3 9 -3 25q0 22 6 49t13 46q-5 -2 -18.5 -17.5t-33 -37t-43 -43t-48.5 -35.5t-49 -14q-16 0 -34 9.5t-29 24.5q-15 20 -15 41q0 27 18.5 56t48 56.5t63 50t64 38t49.5 20.5q20 6 45 6q14 0 29 -3.5t25 -11.5q8 -4 13 -11t5 -15t-7 -5
q-8 12 -21.5 15.5t-27.5 3.5q-40 0 -88 -26t-86 -61q-12 -10 -32.5 -34.5t-37.5 -53.5t-17 -53q0 -13 7 -23q4 -7 13 -7q14 0 37.5 15t48.5 36.5t45.5 41.5t29.5 29q5 5 19.5 20.5t31.5 33.5t30.5 31t17.5 13q5 0 16.5 -2.5t19.5 -7.5t3 -13q-26 -38 -41.5 -79.5
t-18.5 -65.5q-1 -4 -1 -7.5v-7.5q0 -40 28 -40q15 0 40 18t51 43t47.5 48.5t29.5 35.5q3 3 6 3q4 0 7 -3.5t0 -8.5q-11 -18 -32 -43t-47 -50t-51 -43q-13 -10 -33 -17.5t-40 -7.5zM255 380q-25 0 -25 9q0 17 25.5 21.5t64.5 4.5q20 0 43.5 -0.5t46.5 -0.5q11 0 22 -2t11 -9
q1 -6 -8 -9.5t-19 -4.5t-13 -2q-23 -1 -51 -2.5t-54 -3t-43 -1.5z" />
    <glyph glyph-name="Abreve" unicode="&#x102;" horiz-adv-x="847" 
d="M142 -83q-33 0 -63 11t-49 35t-19 61q0 9 4.5 16.5t8.5 7.5q8 0 8 -24q0 -34 29 -53q23 -15 62 -15t81 14t80 40q45 30 100.5 86.5t115.5 123.5q-48 5 -95.5 11t-95.5 6q-32 0 -64 -6.5t-58 -24.5t-39 -53q-1 -4 -2.5 -9t-1.5 -10q0 -10 5 -18q2 -6 2 -7q0 -9 -8 -9
q-7 0 -11 7q-10 18 -10 46q0 53 19.5 81t52.5 38t71 10q17 0 35.5 -1.5t36.5 -3.5q44 -4 91 -13.5t94 -19.5q52 61 102.5 123t94.5 117.5t75 95.5q1 3 4 4q2 2 3 2q11 6 28 10.5t23 4.5q10 0 10 -11q0 -3 -5 -11q-50 -85 -85.5 -174t-62.5 -183l-2 -7q6 0 12.5 -0.5
t11.5 -0.5q43 -3 73 9q22 8 30 23q3 4 5 4q5 0 7 -5.5t-1 -10.5q-11 -19 -39 -28q-16 -7 -36.5 -9t-42.5 -1h-6l-12 1h-6q-15 -55 -21 -114q-1 -5 -1 -9.5v-9.5q0 -57 31 -57q20 0 47.5 18t56 44t51.5 51.5t34 40.5q2 2 6 2q10 0 6 -11q-2 -3 -17 -23.5t-41 -49t-61 -56.5
q-28 -22 -55.5 -28.5t-41.5 -6.5q-28 0 -44.5 25.5t-16.5 65.5q0 29 6 60t14 62q-29 3 -59 6.5t-60 7.5q-60 -73 -119.5 -136.5t-111.5 -102.5q-39 -28 -80.5 -43.5t-83.5 -15.5zM660 220q18 70 42.5 140.5t48.5 128.5l5 12q-43 -60 -94.5 -128t-104.5 -135q26 -5 52 -9.5
t51 -8.5zM857 671q-30 0 -52 16.5t-22 52.5q0 14 5 22.5t11 8.5q5 0 9.5 -3.5t4.5 -8.5q0 -33 19 -50t45 -17q21 0 46.5 18.5t38.5 60.5q0 4 7 4q14 0 14 -11q-10 -45 -44.5 -69t-81.5 -24z" />
    <glyph glyph-name="abreve" unicode="&#x103;" horiz-adv-x="453" 
d="M319 -10q-17 0 -31.5 8t-21.5 30q-3 9 -3 25q0 22 6 49t13 46q-5 -2 -18.5 -17.5t-33 -37t-43 -43t-48.5 -35.5t-49 -14q-16 0 -34 9.5t-29 24.5q-15 20 -15 41q0 27 18.5 56t48 56.5t63 50t64 38t49.5 20.5q20 6 45 6q14 0 29 -3.5t25 -11.5q8 -4 13 -11t5 -15t-7 -5
q-8 12 -21.5 15.5t-27.5 3.5q-40 0 -88 -26t-86 -61q-12 -10 -32.5 -34.5t-37.5 -53.5t-17 -53q0 -13 7 -23q4 -7 13 -7q14 0 37.5 15t48.5 36.5t45.5 41.5t29.5 29q5 5 19.5 20.5t31.5 33.5t30.5 31t17.5 13q5 0 16.5 -2.5t19.5 -7.5t3 -13q-26 -38 -41.5 -79.5
t-18.5 -65.5q-1 -4 -1 -7.5v-7.5q0 -40 28 -40q15 0 40 18t51 43t47.5 48.5t29.5 35.5q3 3 6 3q4 0 7 -3.5t0 -8.5q-11 -18 -32 -43t-47 -50t-51 -43q-13 -10 -33 -17.5t-40 -7.5zM332 365q-30 0 -52 16.5t-22 52.5q0 14 5 22.5t11 8.5q5 0 9.5 -3.5t4.5 -8.5q0 -33 19 -50
t45 -17q21 0 46.5 18.5t38.5 60.5q0 4 7 4q14 0 14 -11q-10 -45 -44.5 -69t-81.5 -24z" />
    <glyph glyph-name="Aogonek" unicode="&#x104;" horiz-adv-x="847" 
d="M142 -83q-33 0 -63 11t-49 35t-19 61q0 9 4.5 16.5t8.5 7.5q8 0 8 -24q0 -34 29 -53q23 -15 62 -15t81 14t80 40q45 30 100.5 86.5t115.5 123.5q-48 5 -95.5 11t-95.5 6q-32 0 -64 -6.5t-58 -24.5t-39 -53q-1 -4 -2.5 -9t-1.5 -10q0 -10 5 -18q2 -6 2 -7q0 -9 -8 -9
q-7 0 -11 7q-10 18 -10 46q0 53 19.5 81t52.5 38t71 10q17 0 35.5 -1.5t36.5 -3.5q44 -4 91 -13.5t94 -19.5q52 61 102.5 123t94.5 117.5t75 95.5q1 3 4 4q2 2 3 2q11 6 28 10.5t23 4.5q10 0 10 -11q0 -3 -5 -11q-50 -85 -85.5 -174t-62.5 -183l-2 -7q6 0 12.5 -0.5
t11.5 -0.5q43 -3 73 9q22 8 30 23q3 4 5 4q5 0 7 -5.5t-1 -10.5q-11 -19 -39 -28q-16 -7 -36.5 -9t-42.5 -1h-6l-12 1h-6q-15 -55 -21 -114q-1 -5 -1 -9.5v-9.5q0 -57 31 -57q20 0 47.5 18t56 44t51.5 51.5t34 40.5q2 2 6 2q10 0 6 -11q-2 -3 -17 -23.5t-41 -49t-61 -56.5
q-28 -22 -55.5 -28.5t-41.5 -6.5q-28 0 -44.5 25.5t-16.5 65.5q0 29 6 60t14 62q-29 3 -59 6.5t-60 7.5q-60 -73 -119.5 -136.5t-111.5 -102.5q-39 -28 -80.5 -43.5t-83.5 -15.5zM660 220q18 70 42.5 140.5t48.5 128.5l5 12q-43 -60 -94.5 -128t-104.5 -135q26 -5 52 -9.5
t51 -8.5zM599 -233q-20 0 -40.5 17.5t-20.5 42.5q0 22 13 44.5t35 39.5q23 19 48.5 38.5t45.5 33t27 13.5q9 0 9 -3l-2 -1q-15 -13 -41.5 -34.5t-51.5 -47.5q-7 -8 -19 -26t-22 -38.5t-10 -38.5q0 -7 4.5 -17.5t12.5 -10.5q11 0 27.5 12.5t33.5 29.5t30.5 32t18.5 19
q7 5 9 5q4 0 4 -4q0 -1 -0.5 -4.5t-3.5 -6.5q-3 -5 -12.5 -20t-23.5 -32.5t-32 -30t-39 -12.5z" />
    <glyph glyph-name="aogonek" unicode="&#x105;" horiz-adv-x="453" 
d="M319 -10q-17 0 -31.5 8t-21.5 30q-3 9 -3 25q0 22 6 49t13 46q-5 -2 -18.5 -17.5t-33 -37t-43 -43t-48.5 -35.5t-49 -14q-16 0 -34 9.5t-29 24.5q-15 20 -15 41q0 27 18.5 56t48 56.5t63 50t64 38t49.5 20.5q20 6 45 6q14 0 29 -3.5t25 -11.5q8 -4 13 -11t5 -15t-7 -5
q-8 12 -21.5 15.5t-27.5 3.5q-40 0 -88 -26t-86 -61q-12 -10 -32.5 -34.5t-37.5 -53.5t-17 -53q0 -13 7 -23q4 -7 13 -7q14 0 37.5 15t48.5 36.5t45.5 41.5t29.5 29q5 5 19.5 20.5t31.5 33.5t30.5 31t17.5 13q5 0 16.5 -2.5t19.5 -7.5t3 -13q-26 -38 -41.5 -79.5
t-18.5 -65.5q-1 -4 -1 -7.5v-7.5q0 -40 28 -40q15 0 40 18t51 43t47.5 48.5t29.5 35.5q3 3 6 3q4 0 7 -3.5t0 -8.5q-11 -18 -32 -43t-47 -50t-51 -43q-13 -10 -33 -17.5t-40 -7.5zM210 -233q-20 0 -40.5 17.5t-20.5 42.5q0 22 13 44.5t35 39.5q23 19 48.5 38.5t45.5 33
t27 13.5q9 0 9 -3l-2 -1q-15 -13 -41.5 -34.5t-51.5 -47.5q-7 -8 -19 -26t-22 -38.5t-10 -38.5q0 -7 4.5 -17.5t12.5 -10.5q11 0 27.5 12.5t33.5 29.5t30.5 32t18.5 19q7 5 9 5q4 0 4 -4q0 -1 -0.5 -4.5t-3.5 -6.5q-3 -5 -12.5 -20t-23.5 -32.5t-32 -30t-39 -12.5z" />
    <glyph glyph-name="Cacute" unicode="&#x106;" horiz-adv-x="534" 
d="M211 -46q-52 0 -95.5 17.5t-69 54t-25.5 93.5q0 32 9 69q14 59 46.5 118t78 111t99.5 92.5t111.5 64t114.5 23.5q17 0 35 -3q40 -7 59.5 -29.5t19.5 -51.5q0 -34 -22 -68t-57.5 -64.5t-77 -54.5t-81.5 -39t-71 -17q-19 -1 -19 11q0 6 6.5 12.5t18.5 7.5q78 7 145.5 47.5
t103.5 110.5q8 15 12.5 30.5t4.5 29.5q0 22 -12.5 37.5t-43.5 15.5q-34 0 -80 -20.5t-96.5 -57.5t-99 -87.5t-87 -110t-59.5 -125.5q-13 -40 -13 -74q0 -61 42 -89.5t109 -28.5q58 0 127.5 20t135.5 61.5t111 105.5q3 4 7 4t7.5 -4t0.5 -8q-52 -72 -119.5 -117t-139.5 -66
t-136 -21zM431 665q-8 0 -8 4q0 5 15 14q10 6 31.5 21t48.5 36q14 12 23 19t13 7h7.5t9.5 -5q11 -8 11 -14q0 -4 -2 -7.5t-5 -7.5q-7 -6 -28 -17t-46 -22.5t-45 -19.5t-25 -8z" />
    <glyph glyph-name="cacute" unicode="&#x107;" horiz-adv-x="312" 
d="M158 -11q-18 -3 -36 -3q-44 0 -73 21t-29 61q0 24 14 58q10 23 37 53t63 58.5t73 47t67 18.5q11 0 20 -3q11 -4 19 -11t8 -21v-6t-2 -7q0 -3 -4.5 -13t-10 -17.5t-9.5 -3.5q-4 3 -4 8t2.5 11.5t2.5 11.5q0 7 -3.5 13.5t-11.5 6.5q-19 0 -49 -17t-61.5 -45.5t-56.5 -62.5
t-35 -68q-3 -8 -4 -15.5t-1 -14.5q0 -22 14.5 -31.5t35.5 -9.5q23 0 47 7q68 20 110.5 55t85.5 90q4 5 7 4t5 -1q3 -1 3 -6q0 -2 -1 -5t-2 -5q-43 -58 -95 -101.5t-126 -56.5zM237 364q-8 0 -8 4q0 5 15 14q10 6 31.5 21t48.5 36q14 12 23 19t13 7h7.5t9.5 -5q11 -8 11 -14
q0 -4 -2 -7.5t-5 -7.5q-7 -6 -28 -17t-46 -22.5t-45 -19.5t-25 -8z" />
    <glyph glyph-name="Ccircumflex" unicode="&#x108;" horiz-adv-x="534" 
d="M211 -46q-52 0 -95.5 17.5t-69 54t-25.5 93.5q0 32 9 69q14 59 46.5 118t78 111t99.5 92.5t111.5 64t114.5 23.5q17 0 35 -3q40 -7 59.5 -29.5t19.5 -51.5q0 -34 -22 -68t-57.5 -64.5t-77 -54.5t-81.5 -39t-71 -17q-19 -1 -19 11q0 6 6.5 12.5t18.5 7.5q78 7 145.5 47.5
t103.5 110.5q8 15 12.5 30.5t4.5 29.5q0 22 -12.5 37.5t-43.5 15.5q-34 0 -80 -20.5t-96.5 -57.5t-99 -87.5t-87 -110t-59.5 -125.5q-13 -40 -13 -74q0 -61 42 -89.5t109 -28.5q58 0 127.5 20t135.5 61.5t111 105.5q3 4 7 4t7.5 -4t0.5 -8q-52 -72 -119.5 -117t-139.5 -66
t-136 -21zM523 779q8 0 17.5 -18.5t17.5 -40.5t12 -32q2 -9 2.5 -13t0.5 -8q-1 -10 -9 -12q-7 5 -18.5 21.5t-23.5 34.5t-18 28q-17 -10 -41 -29t-45.5 -34.5t-30.5 -15.5q-4 0 -4 4q1 7 16 19q10 9 28.5 25t38.5 32.5t36 27.5t21 11z" />
    <glyph glyph-name="ccircumflex" unicode="&#x109;" horiz-adv-x="312" 
d="M158 -11q-18 -3 -36 -3q-44 0 -73 21t-29 61q0 24 14 58q10 23 37 53t63 58.5t73 47t67 18.5q11 0 20 -3q11 -4 19 -11t8 -21v-6t-2 -7q0 -3 -4.5 -13t-10 -17.5t-9.5 -3.5q-4 3 -4 8t2.5 11.5t2.5 11.5q0 7 -3.5 13.5t-11.5 6.5q-19 0 -49 -17t-61.5 -45.5t-56.5 -62.5
t-35 -68q-3 -8 -4 -15.5t-1 -14.5q0 -22 14.5 -31.5t35.5 -9.5q23 0 47 7q68 20 110.5 55t85.5 90q4 5 7 4t5 -1q3 -1 3 -6q0 -2 -1 -5t-2 -5q-43 -58 -95 -101.5t-126 -56.5zM329 478q8 0 17.5 -18.5t17.5 -40.5t12 -32q2 -9 2.5 -13t0.5 -8q-1 -10 -9 -12q-7 5 -18.5 21.5
t-23.5 34.5t-18 28q-17 -10 -41 -29t-45.5 -34.5t-30.5 -15.5q-4 0 -4 4q1 7 16 19q10 9 28.5 25t38.5 32.5t36 27.5t21 11z" />
    <glyph glyph-name="Cdotaccent" unicode="&#x10a;" horiz-adv-x="534" 
d="M211 -46q-52 0 -95.5 17.5t-69 54t-25.5 93.5q0 32 9 69q14 59 46.5 118t78 111t99.5 92.5t111.5 64t114.5 23.5q17 0 35 -3q40 -7 59.5 -29.5t19.5 -51.5q0 -34 -22 -68t-57.5 -64.5t-77 -54.5t-81.5 -39t-71 -17q-19 -1 -19 11q0 6 6.5 12.5t18.5 7.5q78 7 145.5 47.5
t103.5 110.5q8 15 12.5 30.5t4.5 29.5q0 22 -12.5 37.5t-43.5 15.5q-34 0 -80 -20.5t-96.5 -57.5t-99 -87.5t-87 -110t-59.5 -125.5q-13 -40 -13 -74q0 -61 42 -89.5t109 -28.5q58 0 127.5 20t135.5 61.5t111 105.5q3 4 7 4t7.5 -4t0.5 -8q-52 -72 -119.5 -117t-139.5 -66
t-136 -21zM502 667q-13 0 -29 3t-16 21q0 3 9.5 12.5t20.5 19.5t14 12q23 16 30 16q9 0 9 -17v-14q0 -6 -7 -19t-15.5 -23.5t-15.5 -10.5z" />
    <glyph glyph-name="cdotaccent" unicode="&#x10b;" horiz-adv-x="312" 
d="M158 -11q-18 -3 -36 -3q-44 0 -73 21t-29 61q0 24 14 58q10 23 37 53t63 58.5t73 47t67 18.5q11 0 20 -3q11 -4 19 -11t8 -21v-6t-2 -7q0 -3 -4.5 -13t-10 -17.5t-9.5 -3.5q-4 3 -4 8t2.5 11.5t2.5 11.5q0 7 -3.5 13.5t-11.5 6.5q-19 0 -49 -17t-61.5 -45.5t-56.5 -62.5
t-35 -68q-3 -8 -4 -15.5t-1 -14.5q0 -22 14.5 -31.5t35.5 -9.5q23 0 47 7q68 20 110.5 55t85.5 90q4 5 7 4t5 -1q3 -1 3 -6q0 -2 -1 -5t-2 -5q-43 -58 -95 -101.5t-126 -56.5zM298 368q-13 0 -29 3t-16 21q0 3 9.5 12.5t20.5 19.5t14 12q23 16 30 16q9 0 9 -17v-14
q0 -6 -7 -19t-15.5 -23.5t-15.5 -10.5z" />
    <glyph glyph-name="Ccaron" unicode="&#x10c;" horiz-adv-x="534" 
d="M211 -46q-52 0 -95.5 17.5t-69 54t-25.5 93.5q0 32 9 69q14 59 46.5 118t78 111t99.5 92.5t111.5 64t114.5 23.5q17 0 35 -3q40 -7 59.5 -29.5t19.5 -51.5q0 -34 -22 -68t-57.5 -64.5t-77 -54.5t-81.5 -39t-71 -17q-19 -1 -19 11q0 6 6.5 12.5t18.5 7.5q78 7 145.5 47.5
t103.5 110.5q8 15 12.5 30.5t4.5 29.5q0 22 -12.5 37.5t-43.5 15.5q-34 0 -80 -20.5t-96.5 -57.5t-99 -87.5t-87 -110t-59.5 -125.5q-13 -40 -13 -74q0 -61 42 -89.5t109 -28.5q58 0 127.5 20t135.5 61.5t111 105.5q3 4 7 4t7.5 -4t0.5 -8q-52 -72 -119.5 -117t-139.5 -66
t-136 -21zM490 669q-8 0 -21 17t-24.5 36.5t-16.5 28.5q-6 14 -6 19q0 9 8 11q8 -4 22.5 -19t30 -31t23.5 -26q17 10 40 27t44.5 31t30.5 14q5 0 5 -4q0 -6 -14 -17q-10 -9 -28 -23t-37.5 -29t-35 -25t-21.5 -10z" />
    <glyph glyph-name="ccaron" unicode="&#x10d;" horiz-adv-x="312" 
d="M158 -11q-18 -3 -36 -3q-44 0 -73 21t-29 61q0 24 14 58q10 23 37 53t63 58.5t73 47t67 18.5q11 0 20 -3q11 -4 19 -11t8 -21v-6t-2 -7q0 -3 -4.5 -13t-10 -17.5t-9.5 -3.5q-4 3 -4 8t2.5 11.5t2.5 11.5q0 7 -3.5 13.5t-11.5 6.5q-19 0 -49 -17t-61.5 -45.5t-56.5 -62.5
t-35 -68q-3 -8 -4 -15.5t-1 -14.5q0 -22 14.5 -31.5t35.5 -9.5q23 0 47 7q68 20 110.5 55t85.5 90q4 5 7 4t5 -1q3 -1 3 -6q0 -2 -1 -5t-2 -5q-43 -58 -95 -101.5t-126 -56.5zM288 365q-8 0 -21 17t-24.5 36.5t-16.5 28.5q-6 14 -6 19q0 9 8 11q8 -4 22.5 -19t30 -31
t23.5 -26q17 10 40 27t44.5 31t30.5 14q5 0 5 -4q0 -6 -14 -17q-10 -9 -28 -23t-37.5 -29t-35 -25t-21.5 -10z" />
    <glyph glyph-name="Dcaron" unicode="&#x10e;" horiz-adv-x="868" 
d="M239 -63q-19 0 -30.5 12t-17.5 28t-8 31t-2 21q0 33 2.5 57.5t5.5 49.5v4q0 6 -2.5 11.5t-4.5 12.5q0 2 -0.5 3t-0.5 2q0 7 7 14q6 5 16.5 8.5t18.5 3.5q4 0 8 -2q2 -2 2 -4q0 -7 -5 -17q-5 -13 -6 -15.5t-1 -16.5q0 -8 10 -21t23 -25.5t23.5 -21.5t12.5 -9q6 16 19 44.5
t28 61.5t30 63.5t25 51.5q5 11 7 19t2 12t-1 6.5t-2 3.5q2 12 19.5 37.5t42.5 53t51 46.5t46 19q6 0 19 -3.5t25 -11.5t14 -22v-4q0 -2 -1 -2t-4 2t-7 2q-23 0 -50 -22.5t-55.5 -60t-55.5 -82.5t-51 -90t-42.5 -82.5t-29.5 -60.5q32 -24 68 -34.5t73 -10.5q60 0 119 23
t110.5 59.5t86.5 79.5q42 50 63.5 103t21.5 102q0 56 -28 100.5t-85.5 71t-146.5 26.5q-64 0 -132 -13.5t-131 -37.5t-113.5 -56.5t-80 -70.5t-29.5 -79q0 -25 16 -37.5t36 -18.5t31 -12q8 -3 8 -7q0 -6 -11 -6q-12 0 -32 6t-40 18t-32.5 29.5t-9.5 41.5q0 2 -1 7t-1 9
q0 48 28 87t76.5 69t110 50t129.5 30t134 10q59 0 120.5 -9.5t113.5 -35t83.5 -71.5t31.5 -119q0 -80 -35.5 -148t-95.5 -118.5t-133.5 -78.5t-149.5 -28q-51 0 -98.5 12.5t-82.5 39.5q-2 -3 -9.5 -17.5t-18 -31t-22 -29t-22.5 -12.5zM235 -33q8 0 17 16.5t16 35t9 22.5
q-11 9 -29.5 29t-31.5 32q0 -10 0.5 -45t6.5 -70q4 -20 12 -20zM732 644q-8 0 -21 17t-24.5 36.5t-16.5 28.5q-6 14 -6 19q0 9 8 11q8 -4 22.5 -19t30 -31t23.5 -26q17 10 40 27t44.5 31t30.5 14q5 0 5 -4q0 -6 -14 -17q-10 -9 -28 -23t-37.5 -29t-35 -25t-21.5 -10z" />
    <glyph glyph-name="dcaron" unicode="&#x10f;" horiz-adv-x="374" 
d="M308 -109q-26 4 -37 25t-11 52q0 37 10.5 80t24.5 81t22 58q-23 -27 -52.5 -59t-61.5 -61t-61.5 -47.5t-51.5 -18.5q-16 0 -34 9.5t-29 24.5q-15 20 -15 41q0 27 18.5 56t48 56.5t63 50t64 38t49.5 20.5q10 2 21 4t23 2q15 0 30 -3.5t25 -11.5l4 -3q24 55 53 111.5
t62 103.5t70 75.5t77 28.5q5 0 10 -0.5t9 -1.5q25 -5 35.5 -17.5t10.5 -29.5q0 -12 -4.5 -25.5t-12.5 -26.5q-22 -39 -57.5 -77t-77.5 -73.5t-83.5 -68.5t-75.5 -62q-15 -35 -30 -82t-25 -80q-6 -24 -9.5 -45t-3.5 -39q0 -33 12 -54q10 -16 25 -16q11 0 20 8q4 2 7.5 5
t8.5 6q6 3 10 3q7 0 1 -11q-3 -3 -7 -7.5t-9 -9.5q-7 -5 -21 -8t-28 -3q-4 0 -8.5 0.5t-8.5 1.5zM404 279q40 27 87 67.5t88 87t63 88.5q13 24 13 38q0 17 -15 17q-14 0 -37 -16q-67 -52 -113 -123.5t-86 -158.5zM62 25q5 -6 13 -6q15 0 35.5 13t27.5 20q51 41 102.5 88.5
t96.5 95.5q4 9 7 17.5t7 16.5q-15 6 -35 6q-40 0 -88 -26t-86 -61q-12 -10 -32.5 -34.5t-37.5 -53.5t-17 -53q0 -13 7 -23zM730 424q-4 0 -4.5 3.5t-0.5 5.5q0 3 11 15t25 30t25 38t11 38q0 10 -4.5 15t-4.5 16t13 12.5t15 1.5q12 0 19 -12.5t7 -20.5q0 -10 -15 -33
t-35.5 -48.5t-38.5 -43t-23 -17.5z" />
    <glyph glyph-name="Dcroat" unicode="&#x110;" horiz-adv-x="868" 
d="M239 -63q-19 0 -30.5 12t-17.5 28t-8 31t-2 21q0 33 2.5 57.5t5.5 49.5v4q0 6 -2.5 11.5t-4.5 12.5q0 2 -0.5 3t-0.5 2q0 7 7 14q6 5 16.5 8.5t18.5 3.5q4 0 8 -2q2 -2 2 -4q0 -7 -5 -17q-5 -13 -6 -15.5t-1 -16.5q0 -8 10 -21t23 -25.5t23.5 -21.5t12.5 -9q8 20 25.5 59
t36.5 79q-34 -3 -56 -3q-13 0 -18 2.5t-5 8.5q0 18 28 23t68 5q6 14 12.5 25.5t10.5 21.5q5 11 7 19t2 12t-1 6.5t-2 3.5q2 12 19.5 37.5t42.5 53t51 46.5t46 19q6 0 19 -3.5t25 -11.5t14 -22v-4q0 -2 -1 -2t-4 2t-7 2q-27 0 -58.5 -29.5t-64 -76.5t-62.5 -100h35
q25 0 39.5 -4t15.5 -9q0 -6 -12 -9t-25 -4t-17 -2q-11 -1 -25 -1.5t-29 -2.5q-27 -49 -48 -92t-33 -68q32 -24 68 -34.5t73 -10.5q60 0 119 23t110.5 59.5t86.5 79.5q42 50 63.5 103t21.5 102q0 56 -28 100.5t-85.5 71t-146.5 26.5q-64 0 -132 -13.5t-131 -37.5
t-113.5 -56.5t-80 -70.5t-29.5 -79q0 -25 16 -37.5t36 -18.5t31 -12q8 -3 8 -7q0 -6 -11 -6q-12 0 -32 6t-40 18t-32.5 29.5t-9.5 41.5q0 2 -1 7t-1 9q0 48 28 87t76.5 69t110 50t129.5 30t134 10q59 0 120.5 -9.5t113.5 -35t83.5 -71.5t31.5 -119q0 -80 -35.5 -148
t-95.5 -118.5t-133.5 -78.5t-149.5 -28q-51 0 -98.5 12.5t-82.5 39.5q-2 -3 -9.5 -17.5t-18 -31t-22 -29t-22.5 -12.5zM235 -33q8 0 17 16.5t16 35t9 22.5q-11 9 -29.5 29t-31.5 32q0 -10 0.5 -45t6.5 -70q4 -20 12 -20z" />
    <glyph glyph-name="dcroat" unicode="&#x111;" horiz-adv-x="469" 
d="M308 -109q-26 4 -37 25t-11 52q0 37 10.5 80t24.5 81t22 58q-23 -27 -52.5 -59t-61.5 -61t-61.5 -47.5t-51.5 -18.5q-16 0 -34 9.5t-29 24.5q-15 20 -15 41q0 27 18.5 56t48 56.5t63 50t64 38t49.5 20.5q9 2 20 4t23 2q15 0 30.5 -3.5t25.5 -11.5l4 -3q13 30 27.5 61
t29.5 61q-20 -1 -38 -2t-28 -1q-19 0 -19 10q0 8 11 17.5t21 9.5h29t45 1q26 45 55.5 82t62 58.5t66.5 21.5q5 0 10 -0.5t9 -1.5q25 -5 35.5 -17.5t10.5 -29.5q0 -12 -4.5 -25.5t-12.5 -26.5q-22 -39 -57.5 -77t-77.5 -73.5t-83.5 -68.5t-75.5 -62q-15 -35 -30 -82t-25 -80
q-6 -24 -9.5 -45t-3.5 -39q0 -33 12 -54q10 -16 25 -16q11 0 20 8q4 2 7.5 5t8.5 6q6 3 10 3q7 0 1 -11q-3 -3 -7 -7.5t-9 -9.5q-7 -5 -21 -8t-28 -3q-4 0 -8.5 0.5t-8.5 1.5zM404 279q40 27 87 67.5t88 87t63 88.5q13 24 13 38q0 17 -15 17q-14 0 -37 -16
q-33 -25 -59.5 -55t-49.5 -64h15q24 0 39.5 -3.5t15.5 -8.5q0 -7 -11.5 -10.5t-24.5 -4.5t-18 -2q-8 -1 -17.5 -1.5t-19.5 -1.5q-19 -30 -35.5 -63t-33.5 -68zM75 18q15 0 43 19t61.5 47.5t65.5 59.5t57 56.5t35 35.5q2 6 4 8l6 18q3 4 4 8q-15 6 -35 6q-40 0 -88 -26
t-86 -61q-12 -10 -32.5 -34.5t-37.5 -53.5t-17 -53q0 -13 7 -23q4 -7 13 -7z" />
    <glyph glyph-name="Emacron" unicode="&#x112;" horiz-adv-x="716" 
d="M251 -62q-42 0 -82 7t-73 23.5t-52.5 46t-19.5 75.5q0 50 24 84.5t63 56t84.5 33.5t89 17.5t76.5 6.5q-30 35 -54 88t-24 103q0 18 4 35t13 32q10 18 32 30.5t48 19.5t48 7q37 0 61 -19.5t45 -39.5q5 -5 12.5 -11.5t16.5 -9.5q4 -1 9.5 -1.5t9.5 -3.5q8 -7 14.5 -21
t10.5 -25q6 -16 6 -42q0 -20 -4.5 -37t-13.5 -17q-5 0 -13 9q-12 14 -17 37.5t-15 42.5q-12 26 -26 48t-34 38q-8 9 -23.5 18t-35.5 9q-15 0 -25 -5q-35 -14 -49.5 -46t-14.5 -70q0 -46 15 -91.5t34 -69.5q5 -6 24.5 -7.5t27.5 -3.5q16 -1 23 -7t7 -13q0 -11 -13 -19
q-5 -5 -17 -5q-17 0 -38 6.5t-35 9.5q-30 -1 -69 -10t-79.5 -25.5t-75 -40.5t-56 -54.5t-22.5 -66.5q-1 -40 31 -69t117 -29q40 0 86 7t90.5 18.5t82.5 24.5t62 26q19 9 46 27.5t53.5 42.5t44 49.5t17.5 49.5v5t-1 5q-1 4 4 4t7 -2q14 -20 14 -44q0 -32 -22.5 -63t-53.5 -56
t-57 -39q-31 -18 -74.5 -32.5t-91 -25t-92.5 -16t-80 -5.5zM392 678q-25 0 -25 9q0 17 25.5 21.5t64.5 4.5q20 0 43.5 -0.5t46.5 -0.5q11 0 22 -2t11 -9q1 -6 -8 -9.5t-19 -4.5t-13 -2q-23 -1 -51 -2.5t-54 -3t-43 -1.5z" />
    <glyph glyph-name="emacron" unicode="&#x113;" horiz-adv-x="319" 
d="M131 -15q-45 0 -78 21t-33 64q0 23 14 56q10 23 37 53t63 58.5t73 47t67 18.5q11 0 20 -3q17 -6 23.5 -19t6.5 -27q0 -13 -4 -25t-10 -21q-18 -27 -51.5 -48t-68 -33t-56.5 -14h-2q-13 0 -13 8q0 5 8 5q24 2 60.5 22.5t64.5 42.5q12 10 28.5 28t16.5 35q0 18 -17 18
q-9 0 -18.5 -4t-15.5 -6q-29 -14 -64 -43.5t-63.5 -66t-39.5 -73.5q-3 -8 -4 -15.5t-1 -14.5q0 -24 15.5 -34t37.5 -10q33 0 68 14.5t68 37.5t60.5 49.5t46.5 51.5q3 4 7 4.5t5 -1.5q4 -1 4 -5.5t-2 -8.5q-28 -39 -67.5 -76t-87 -61.5t-98.5 -24.5zM211 380q-25 0 -25 9
q0 17 25.5 21.5t64.5 4.5q20 0 43.5 -0.5t46.5 -0.5q11 0 22 -2t11 -9q1 -6 -8 -9.5t-19 -4.5t-13 -2q-23 -1 -51 -2.5t-54 -3t-43 -1.5z" />
    <glyph glyph-name="Ebreve" unicode="&#x114;" horiz-adv-x="716" 
d="M251 -62q-42 0 -82 7t-73 23.5t-52.5 46t-19.5 75.5q0 50 24 84.5t63 56t84.5 33.5t89 17.5t76.5 6.5q-30 35 -54 88t-24 103q0 18 4 35t13 32q10 18 32 30.5t48 19.5t48 7q37 0 61 -19.5t45 -39.5q5 -5 12.5 -11.5t16.5 -9.5q4 -1 9.5 -1.5t9.5 -3.5q8 -7 14.5 -21
t10.5 -25q6 -16 6 -42q0 -20 -4.5 -37t-13.5 -17q-5 0 -13 9q-12 14 -17 37.5t-15 42.5q-12 26 -26 48t-34 38q-8 9 -23.5 18t-35.5 9q-15 0 -25 -5q-35 -14 -49.5 -46t-14.5 -70q0 -46 15 -91.5t34 -69.5q5 -6 24.5 -7.5t27.5 -3.5q16 -1 23 -7t7 -13q0 -11 -13 -19
q-5 -5 -17 -5q-17 0 -38 6.5t-35 9.5q-30 -1 -69 -10t-79.5 -25.5t-75 -40.5t-56 -54.5t-22.5 -66.5q-1 -40 31 -69t117 -29q40 0 86 7t90.5 18.5t82.5 24.5t62 26q19 9 46 27.5t53.5 42.5t44 49.5t17.5 49.5v5t-1 5q-1 4 4 4t7 -2q14 -20 14 -44q0 -32 -22.5 -63t-53.5 -56
t-57 -39q-31 -18 -74.5 -32.5t-91 -25t-92.5 -16t-80 -5.5zM450 681q-30 0 -52 16.5t-22 52.5q0 14 5 22.5t11 8.5q5 0 9.5 -3.5t4.5 -8.5q0 -33 19 -50t45 -17q21 0 46.5 18.5t38.5 60.5q0 4 7 4q14 0 14 -11q-10 -45 -44.5 -69t-81.5 -24z" />
    <glyph glyph-name="ebreve" unicode="&#x115;" horiz-adv-x="319" 
d="M131 -15q-45 0 -78 21t-33 64q0 23 14 56q10 23 37 53t63 58.5t73 47t67 18.5q11 0 20 -3q17 -6 23.5 -19t6.5 -27q0 -13 -4 -25t-10 -21q-18 -27 -51.5 -48t-68 -33t-56.5 -14h-2q-13 0 -13 8q0 5 8 5q24 2 60.5 22.5t64.5 42.5q12 10 28.5 28t16.5 35q0 18 -17 18
q-9 0 -18.5 -4t-15.5 -6q-29 -14 -64 -43.5t-63.5 -66t-39.5 -73.5q-3 -8 -4 -15.5t-1 -14.5q0 -24 15.5 -34t37.5 -10q33 0 68 14.5t68 37.5t60.5 49.5t46.5 51.5q3 4 7 4.5t5 -1.5q4 -1 4 -5.5t-2 -8.5q-28 -39 -67.5 -76t-87 -61.5t-98.5 -24.5zM288 365q-30 0 -52 16.5
t-22 52.5q0 14 5 22.5t11 8.5q5 0 9.5 -3.5t4.5 -8.5q0 -33 19 -50t45 -17q21 0 46.5 18.5t38.5 60.5q0 4 7 4q14 0 14 -11q-10 -45 -44.5 -69t-81.5 -24z" />
    <glyph glyph-name="Edotaccent" unicode="&#x116;" horiz-adv-x="716" 
d="M251 -62q-42 0 -82 7t-73 23.5t-52.5 46t-19.5 75.5q0 50 24 84.5t63 56t84.5 33.5t89 17.5t76.5 6.5q-30 35 -54 88t-24 103q0 18 4 35t13 32q10 18 32 30.5t48 19.5t48 7q37 0 61 -19.5t45 -39.5q5 -5 12.5 -11.5t16.5 -9.5q4 -1 9.5 -1.5t9.5 -3.5q8 -7 14.5 -21
t10.5 -25q6 -16 6 -42q0 -20 -4.5 -37t-13.5 -17q-5 0 -13 9q-12 14 -17 37.5t-15 42.5q-12 26 -26 48t-34 38q-8 9 -23.5 18t-35.5 9q-15 0 -25 -5q-35 -14 -49.5 -46t-14.5 -70q0 -46 15 -91.5t34 -69.5q5 -6 24.5 -7.5t27.5 -3.5q16 -1 23 -7t7 -13q0 -11 -13 -19
q-5 -5 -17 -5q-17 0 -38 6.5t-35 9.5q-30 -1 -69 -10t-79.5 -25.5t-75 -40.5t-56 -54.5t-22.5 -66.5q-1 -40 31 -69t117 -29q40 0 86 7t90.5 18.5t82.5 24.5t62 26q19 9 46 27.5t53.5 42.5t44 49.5t17.5 49.5v5t-1 5q-1 4 4 4t7 -2q14 -20 14 -44q0 -32 -22.5 -63t-53.5 -56
t-57 -39q-31 -18 -74.5 -32.5t-91 -25t-92.5 -16t-80 -5.5zM470 682q-13 0 -29 3t-16 21q0 3 9.5 12.5t20.5 19.5t14 12q23 16 30 16q9 0 9 -17v-14q0 -6 -7 -19t-15.5 -23.5t-15.5 -10.5z" />
    <glyph glyph-name="edotaccent" unicode="&#x117;" horiz-adv-x="319" 
d="M131 -15q-45 0 -78 21t-33 64q0 23 14 56q10 23 37 53t63 58.5t73 47t67 18.5q11 0 20 -3q17 -6 23.5 -19t6.5 -27q0 -13 -4 -25t-10 -21q-18 -27 -51.5 -48t-68 -33t-56.5 -14h-2q-13 0 -13 8q0 5 8 5q24 2 60.5 22.5t64.5 42.5q12 10 28.5 28t16.5 35q0 18 -17 18
q-9 0 -18.5 -4t-15.5 -6q-29 -14 -64 -43.5t-63.5 -66t-39.5 -73.5q-3 -8 -4 -15.5t-1 -14.5q0 -24 15.5 -34t37.5 -10q33 0 68 14.5t68 37.5t60.5 49.5t46.5 51.5q3 4 7 4.5t5 -1.5q4 -1 4 -5.5t-2 -8.5q-28 -39 -67.5 -76t-87 -61.5t-98.5 -24.5zM298 368q-13 0 -29 3
t-16 21q0 3 9.5 12.5t20.5 19.5t14 12q23 16 30 16q9 0 9 -17v-14q0 -6 -7 -19t-15.5 -23.5t-15.5 -10.5z" />
    <glyph glyph-name="Eogonek" unicode="&#x118;" horiz-adv-x="716" 
d="M251 -62q-42 0 -82 7t-73 23.5t-52.5 46t-19.5 75.5q0 50 24 84.5t63 56t84.5 33.5t89 17.5t76.5 6.5q-30 35 -54 88t-24 103q0 18 4 35t13 32q10 18 32 30.5t48 19.5t48 7q37 0 61 -19.5t45 -39.5q5 -5 12.5 -11.5t16.5 -9.5q4 -1 9.5 -1.5t9.5 -3.5q8 -7 14.5 -21
t10.5 -25q6 -16 6 -42q0 -20 -4.5 -37t-13.5 -17q-5 0 -13 9q-12 14 -17 37.5t-15 42.5q-12 26 -26 48t-34 38q-8 9 -23.5 18t-35.5 9q-15 0 -25 -5q-35 -14 -49.5 -46t-14.5 -70q0 -46 15 -91.5t34 -69.5q5 -6 24.5 -7.5t27.5 -3.5q16 -1 23 -7t7 -13q0 -11 -13 -19
q-5 -5 -17 -5q-17 0 -38 6.5t-35 9.5q-30 -1 -69 -10t-79.5 -25.5t-75 -40.5t-56 -54.5t-22.5 -66.5q-1 -40 31 -69t117 -29q40 0 86 7t90.5 18.5t82.5 24.5t62 26q19 9 46 27.5t53.5 42.5t44 49.5t17.5 49.5v5t-1 5q-1 4 4 4t7 -2q14 -20 14 -44q0 -32 -22.5 -63t-53.5 -56
t-57 -39q-31 -18 -74.5 -32.5t-91 -25t-92.5 -16t-80 -5.5zM231 -267q-20 0 -40.5 17.5t-20.5 42.5q0 22 13 44.5t35 39.5q23 19 48.5 38.5t45.5 33t27 13.5q9 0 9 -3l-2 -1q-15 -13 -41.5 -34.5t-51.5 -47.5q-7 -8 -19 -26t-22 -38.5t-10 -38.5q0 -7 4.5 -17.5t12.5 -10.5
q11 0 27.5 12.5t33.5 29.5t30.5 32t18.5 19q7 5 9 5q4 0 4 -4q0 -1 -0.5 -4.5t-3.5 -6.5q-3 -5 -12.5 -20t-23.5 -32.5t-32 -30t-39 -12.5z" />
    <glyph glyph-name="eogonek" unicode="&#x119;" horiz-adv-x="319" 
d="M131 -15q-45 0 -78 21t-33 64q0 23 14 56q10 23 37 53t63 58.5t73 47t67 18.5q11 0 20 -3q17 -6 23.5 -19t6.5 -27q0 -13 -4 -25t-10 -21q-18 -27 -51.5 -48t-68 -33t-56.5 -14h-2q-13 0 -13 8q0 5 8 5q24 2 60.5 22.5t64.5 42.5q12 10 28.5 28t16.5 35q0 18 -17 18
q-9 0 -18.5 -4t-15.5 -6q-29 -14 -64 -43.5t-63.5 -66t-39.5 -73.5q-3 -8 -4 -15.5t-1 -14.5q0 -24 15.5 -34t37.5 -10q33 0 68 14.5t68 37.5t60.5 49.5t46.5 51.5q3 4 7 4.5t5 -1.5q4 -1 4 -5.5t-2 -8.5q-28 -39 -67.5 -76t-87 -61.5t-98.5 -24.5zM19 -235
q-20 0 -40.5 17.5t-20.5 42.5q0 22 13 44.5t35 39.5q23 19 48.5 38.5t45.5 33t27 13.5q9 0 9 -3l-2 -1q-15 -13 -41.5 -34.5t-51.5 -47.5q-7 -8 -19 -26t-22 -38.5t-10 -38.5q0 -7 4.5 -17.5t12.5 -10.5q11 0 27.5 12.5t33.5 29.5t30.5 32t18.5 19q7 5 9 5q4 0 4 -4
q0 -1 -0.5 -4.5t-3.5 -6.5q-3 -5 -12.5 -20t-23.5 -32.5t-32 -30t-39 -12.5z" />
    <glyph glyph-name="Ecaron" unicode="&#x11a;" horiz-adv-x="716" 
d="M251 -62q-42 0 -82 7t-73 23.5t-52.5 46t-19.5 75.5q0 50 24 84.5t63 56t84.5 33.5t89 17.5t76.5 6.5q-30 35 -54 88t-24 103q0 18 4 35t13 32q10 18 32 30.5t48 19.5t48 7q37 0 61 -19.5t45 -39.5q5 -5 12.5 -11.5t16.5 -9.5q4 -1 9.5 -1.5t9.5 -3.5q8 -7 14.5 -21
t10.5 -25q6 -16 6 -42q0 -20 -4.5 -37t-13.5 -17q-5 0 -13 9q-12 14 -17 37.5t-15 42.5q-12 26 -26 48t-34 38q-8 9 -23.5 18t-35.5 9q-15 0 -25 -5q-35 -14 -49.5 -46t-14.5 -70q0 -46 15 -91.5t34 -69.5q5 -6 24.5 -7.5t27.5 -3.5q16 -1 23 -7t7 -13q0 -11 -13 -19
q-5 -5 -17 -5q-17 0 -38 6.5t-35 9.5q-30 -1 -69 -10t-79.5 -25.5t-75 -40.5t-56 -54.5t-22.5 -66.5q-1 -40 31 -69t117 -29q40 0 86 7t90.5 18.5t82.5 24.5t62 26q19 9 46 27.5t53.5 42.5t44 49.5t17.5 49.5v5t-1 5q-1 4 4 4t7 -2q14 -20 14 -44q0 -32 -22.5 -63t-53.5 -56
t-57 -39q-31 -18 -74.5 -32.5t-91 -25t-92.5 -16t-80 -5.5zM458 684q-8 0 -21 17t-24.5 36.5t-16.5 28.5q-6 14 -6 19q0 9 8 11q8 -4 22.5 -19t30 -31t23.5 -26q17 10 40 27t44.5 31t30.5 14q5 0 5 -4q0 -6 -14 -17q-10 -9 -28 -23t-37.5 -29t-35 -25t-21.5 -10z" />
    <glyph glyph-name="ecaron" unicode="&#x11b;" horiz-adv-x="319" 
d="M131 -15q-45 0 -78 21t-33 64q0 23 14 56q10 23 37 53t63 58.5t73 47t67 18.5q11 0 20 -3q17 -6 23.5 -19t6.5 -27q0 -13 -4 -25t-10 -21q-18 -27 -51.5 -48t-68 -33t-56.5 -14h-2q-13 0 -13 8q0 5 8 5q24 2 60.5 22.5t64.5 42.5q12 10 28.5 28t16.5 35q0 18 -17 18
q-9 0 -18.5 -4t-15.5 -6q-29 -14 -64 -43.5t-63.5 -66t-39.5 -73.5q-3 -8 -4 -15.5t-1 -14.5q0 -24 15.5 -34t37.5 -10q33 0 68 14.5t68 37.5t60.5 49.5t46.5 51.5q3 4 7 4.5t5 -1.5q4 -1 4 -5.5t-2 -8.5q-28 -39 -67.5 -76t-87 -61.5t-98.5 -24.5zM288 365q-8 0 -21 17
t-24.5 36.5t-16.5 28.5q-6 14 -6 19q0 9 8 11q8 -4 22.5 -19t30 -31t23.5 -26q17 10 40 27t44.5 31t30.5 14q5 0 5 -4q0 -6 -14 -17q-10 -9 -28 -23t-37.5 -29t-35 -25t-21.5 -10z" />
    <glyph glyph-name="Gcircumflex" unicode="&#x11c;" horiz-adv-x="798" 
d="M282 -370q-36 0 -57.5 20t-21.5 54q0 27 15 60.5t48 70.5q68 78 151.5 128t179.5 81q14 38 26 77.5t24 79.5q-49 -46 -108 -91.5t-125 -76t-137 -30.5q-52 0 -98.5 19.5t-75.5 59.5t-29 103q0 155 138 279q80 73 174.5 105.5t199.5 32.5q12 0 34.5 -2.5t46.5 -10t42 -21
t21 -34.5q1 -4 1 -7v-6q0 -12 -4 -18t-9 -6q-10 0 -10 16q-2 27 -17.5 41.5t-38 19.5t-45.5 5q-37 0 -88.5 -15.5t-108.5 -43t-112.5 -65t-100.5 -82t-72 -93.5t-27 -99q0 -69 45.5 -99.5t115.5 -30.5q68 0 144 24q57 17 98 42.5t78 59t79 73.5q18 46 47 59t54 13
q14 0 25 -2t15 -2q8 -1 8 -6q0 -9 -12 -7q-31 2 -54 -28.5t-37 -72.5q-13 -35 -25 -72t-26 -74q51 14 76 14q12 0 16 -3t4 -8q0 -9 -7 -6q-6 2 -13 2q-13 0 -33 -4.5t-36 -11.5t-20 -17q-43 -109 -91 -184t-96.5 -121.5t-92.5 -67.5t-78 -21zM310 -344q37 0 73 28.5
t69.5 73.5t61 96t47.5 97t30 74q-82 -27 -152 -72t-125 -113q-30 -37 -43.5 -69t-13.5 -57q0 -27 14.5 -42.5t38.5 -15.5zM570 785q8 0 17.5 -18.5t17.5 -40.5t12 -32q2 -9 2.5 -13t0.5 -8q-1 -10 -9 -12q-7 5 -18.5 21.5t-23.5 34.5t-18 28q-17 -10 -41 -29t-45.5 -34.5
t-30.5 -15.5q-4 0 -4 4q1 7 16 19q10 9 28.5 25t38.5 32.5t36 27.5t21 11z" />
    <glyph glyph-name="gcircumflex" unicode="&#x11d;" horiz-adv-x="415" 
d="M-2 -367q-12 3 -21 6q-19 10 -27 22.5t-8 26.5q0 23 15.5 49.5t40.5 54.5q25 30 63.5 61t80.5 59.5t74 49.5q35 71 62 134.5t38 97.5q-21 -23 -45 -51.5t-35 -41.5q-19 -20 -43 -43.5t-50.5 -40t-51.5 -16.5q-16 0 -34 9.5t-29 24.5q-15 20 -15 41q0 27 18.5 56t48 56.5
t63 50t64 38t49.5 20.5q18 6 44 6q12 0 29 -4t30.5 -12.5t13.5 -24.5q0 -8 -8 -5q-7 12 -20.5 15.5t-27.5 3.5q-39 0 -87.5 -26t-86.5 -61q-12 -10 -33 -34.5t-37.5 -53.5t-16.5 -53q0 -13 7 -23q3 -5 12 -5q19 0 46.5 17t58.5 43t60.5 55.5t52.5 54.5t34 38q2 5 7 7t11 2
q16 0 33.5 -8.5t14.5 -14.5q-19 -41 -44.5 -95t-53.5 -113q13 7 43 31t66 57.5t67 69.5q12 13 18 13t3 -10.5t-16 -26.5q-16 -19 -44 -45.5t-59 -54t-57.5 -49t-41.5 -29.5q-31 -66 -60 -124.5t-53 -94.5q-16 -25 -39 -51t-50 -43.5t-57 -17.5q-4 0 -8 0.5t-9 1.5zM-12 -341
q6 -4 17.5 0t29.5 18q39 31 67 72.5t51 87t44 87.5q-39 -29 -88 -68.5t-89 -78.5q-20 -20 -33.5 -44.5t-13.5 -44.5q0 -21 15 -29zM355 478q8 0 17.5 -18.5t17.5 -40.5t12 -32q2 -9 2.5 -13t0.5 -8q-1 -10 -9 -12q-7 5 -18.5 21.5t-23.5 34.5t-18 28q-17 -10 -41 -29
t-45.5 -34.5t-30.5 -15.5q-4 0 -4 4q1 7 16 19q10 9 28.5 25t38.5 32.5t36 27.5t21 11z" />
    <glyph glyph-name="Gbreve" unicode="&#x11e;" horiz-adv-x="798" 
d="M282 -370q-36 0 -57.5 20t-21.5 54q0 27 15 60.5t48 70.5q68 78 151.5 128t179.5 81q14 38 26 77.5t24 79.5q-49 -46 -108 -91.5t-125 -76t-137 -30.5q-52 0 -98.5 19.5t-75.5 59.5t-29 103q0 155 138 279q80 73 174.5 105.5t199.5 32.5q12 0 34.5 -2.5t46.5 -10t42 -21
t21 -34.5q1 -4 1 -7v-6q0 -12 -4 -18t-9 -6q-10 0 -10 16q-2 27 -17.5 41.5t-38 19.5t-45.5 5q-37 0 -88.5 -15.5t-108.5 -43t-112.5 -65t-100.5 -82t-72 -93.5t-27 -99q0 -69 45.5 -99.5t115.5 -30.5q68 0 144 24q57 17 98 42.5t78 59t79 73.5q18 46 47 59t54 13
q14 0 25 -2t15 -2q8 -1 8 -6q0 -9 -12 -7q-31 2 -54 -28.5t-37 -72.5q-13 -35 -25 -72t-26 -74q51 14 76 14q12 0 16 -3t4 -8q0 -9 -7 -6q-6 2 -13 2q-13 0 -33 -4.5t-36 -11.5t-20 -17q-43 -109 -91 -184t-96.5 -121.5t-92.5 -67.5t-78 -21zM310 -344q37 0 73 28.5
t69.5 73.5t61 96t47.5 97t30 74q-82 -27 -152 -72t-125 -113q-30 -37 -43.5 -69t-13.5 -57q0 -27 14.5 -42.5t38.5 -15.5zM529 672q-30 0 -52 16.5t-22 52.5q0 14 5 22.5t11 8.5q5 0 9.5 -3.5t4.5 -8.5q0 -33 19 -50t45 -17q21 0 46.5 18.5t38.5 60.5q0 4 7 4q14 0 14 -11
q-10 -45 -44.5 -69t-81.5 -24z" />
    <glyph glyph-name="gbreve" unicode="&#x11f;" horiz-adv-x="415" 
d="M-2 -367q-12 3 -21 6q-19 10 -27 22.5t-8 26.5q0 23 15.5 49.5t40.5 54.5q25 30 63.5 61t80.5 59.5t74 49.5q35 71 62 134.5t38 97.5q-21 -23 -45 -51.5t-35 -41.5q-19 -20 -43 -43.5t-50.5 -40t-51.5 -16.5q-16 0 -34 9.5t-29 24.5q-15 20 -15 41q0 27 18.5 56t48 56.5
t63 50t64 38t49.5 20.5q18 6 44 6q12 0 29 -4t30.5 -12.5t13.5 -24.5q0 -8 -8 -5q-7 12 -20.5 15.5t-27.5 3.5q-39 0 -87.5 -26t-86.5 -61q-12 -10 -33 -34.5t-37.5 -53.5t-16.5 -53q0 -13 7 -23q3 -5 12 -5q19 0 46.5 17t58.5 43t60.5 55.5t52.5 54.5t34 38q2 5 7 7t11 2
q16 0 33.5 -8.5t14.5 -14.5q-19 -41 -44.5 -95t-53.5 -113q13 7 43 31t66 57.5t67 69.5q12 13 18 13t3 -10.5t-16 -26.5q-16 -19 -44 -45.5t-59 -54t-57.5 -49t-41.5 -29.5q-31 -66 -60 -124.5t-53 -94.5q-16 -25 -39 -51t-50 -43.5t-57 -17.5q-4 0 -8 0.5t-9 1.5zM-12 -341
q6 -4 17.5 0t29.5 18q39 31 67 72.5t51 87t44 87.5q-39 -29 -88 -68.5t-89 -78.5q-20 -20 -33.5 -44.5t-13.5 -44.5q0 -21 15 -29zM314 365q-30 0 -52 16.5t-22 52.5q0 14 5 22.5t11 8.5q5 0 9.5 -3.5t4.5 -8.5q0 -33 19 -50t45 -17q21 0 46.5 18.5t38.5 60.5q0 4 7 4
q14 0 14 -11q-10 -45 -44.5 -69t-81.5 -24z" />
    <glyph glyph-name="Gdotaccent" unicode="&#x120;" horiz-adv-x="798" 
d="M282 -370q-36 0 -57.5 20t-21.5 54q0 27 15 60.5t48 70.5q68 78 151.5 128t179.5 81q14 38 26 77.5t24 79.5q-49 -46 -108 -91.5t-125 -76t-137 -30.5q-52 0 -98.5 19.5t-75.5 59.5t-29 103q0 155 138 279q80 73 174.5 105.5t199.5 32.5q12 0 34.5 -2.5t46.5 -10t42 -21
t21 -34.5q1 -4 1 -7v-6q0 -12 -4 -18t-9 -6q-10 0 -10 16q-2 27 -17.5 41.5t-38 19.5t-45.5 5q-37 0 -88.5 -15.5t-108.5 -43t-112.5 -65t-100.5 -82t-72 -93.5t-27 -99q0 -69 45.5 -99.5t115.5 -30.5q68 0 144 24q57 17 98 42.5t78 59t79 73.5q18 46 47 59t54 13
q14 0 25 -2t15 -2q8 -1 8 -6q0 -9 -12 -7q-31 2 -54 -28.5t-37 -72.5q-13 -35 -25 -72t-26 -74q51 14 76 14q12 0 16 -3t4 -8q0 -9 -7 -6q-6 2 -13 2q-13 0 -33 -4.5t-36 -11.5t-20 -17q-43 -109 -91 -184t-96.5 -121.5t-92.5 -67.5t-78 -21zM310 -344q37 0 73 28.5
t69.5 73.5t61 96t47.5 97t30 74q-82 -27 -152 -72t-125 -113q-30 -37 -43.5 -69t-13.5 -57q0 -27 14.5 -42.5t38.5 -15.5zM549 673q-13 0 -29 3t-16 21q0 3 9.5 12.5t20.5 19.5t14 12q23 16 30 16q9 0 9 -17v-14q0 -6 -7 -19t-15.5 -23.5t-15.5 -10.5z" />
    <glyph glyph-name="gdotaccent" unicode="&#x121;" horiz-adv-x="415" 
d="M-2 -367q-12 3 -21 6q-19 10 -27 22.5t-8 26.5q0 23 15.5 49.5t40.5 54.5q25 30 63.5 61t80.5 59.5t74 49.5q35 71 62 134.5t38 97.5q-21 -23 -45 -51.5t-35 -41.5q-19 -20 -43 -43.5t-50.5 -40t-51.5 -16.5q-16 0 -34 9.5t-29 24.5q-15 20 -15 41q0 27 18.5 56t48 56.5
t63 50t64 38t49.5 20.5q18 6 44 6q12 0 29 -4t30.5 -12.5t13.5 -24.5q0 -8 -8 -5q-7 12 -20.5 15.5t-27.5 3.5q-39 0 -87.5 -26t-86.5 -61q-12 -10 -33 -34.5t-37.5 -53.5t-16.5 -53q0 -13 7 -23q3 -5 12 -5q19 0 46.5 17t58.5 43t60.5 55.5t52.5 54.5t34 38q2 5 7 7t11 2
q16 0 33.5 -8.5t14.5 -14.5q-19 -41 -44.5 -95t-53.5 -113q13 7 43 31t66 57.5t67 69.5q12 13 18 13t3 -10.5t-16 -26.5q-16 -19 -44 -45.5t-59 -54t-57.5 -49t-41.5 -29.5q-31 -66 -60 -124.5t-53 -94.5q-16 -25 -39 -51t-50 -43.5t-57 -17.5q-4 0 -8 0.5t-9 1.5zM-12 -341
q6 -4 17.5 0t29.5 18q39 31 67 72.5t51 87t44 87.5q-39 -29 -88 -68.5t-89 -78.5q-20 -20 -33.5 -44.5t-13.5 -44.5q0 -21 15 -29zM324 368q-13 0 -29 3t-16 21q0 3 9.5 12.5t20.5 19.5t14 12q23 16 30 16q9 0 9 -17v-14q0 -6 -7 -19t-15.5 -23.5t-15.5 -10.5z" />
    <glyph glyph-name="uni0122" unicode="&#x122;" horiz-adv-x="798" 
d="M282 -370q-36 0 -57.5 20t-21.5 54q0 27 15 60.5t48 70.5q68 78 151.5 128t179.5 81q14 38 26 77.5t24 79.5q-49 -46 -108 -91.5t-125 -76t-137 -30.5q-52 0 -98.5 19.5t-75.5 59.5t-29 103q0 155 138 279q80 73 174.5 105.5t199.5 32.5q12 0 34.5 -2.5t46.5 -10t42 -21
t21 -34.5q1 -4 1 -7v-6q0 -12 -4 -18t-9 -6q-10 0 -10 16q-2 27 -17.5 41.5t-38 19.5t-45.5 5q-37 0 -88.5 -15.5t-108.5 -43t-112.5 -65t-100.5 -82t-72 -93.5t-27 -99q0 -69 45.5 -99.5t115.5 -30.5q68 0 144 24q57 17 98 42.5t78 59t79 73.5q18 46 47 59t54 13
q14 0 25 -2t15 -2q8 -1 8 -6q0 -9 -12 -7q-31 2 -54 -28.5t-37 -72.5q-13 -35 -25 -72t-26 -74q51 14 76 14q12 0 16 -3t4 -8q0 -9 -7 -6q-6 2 -13 2q-13 0 -33 -4.5t-36 -11.5t-20 -17q-43 -109 -91 -184t-96.5 -121.5t-92.5 -67.5t-78 -21zM310 -344q37 0 73 28.5
t69.5 73.5t61 96t47.5 97t30 74q-82 -27 -152 -72t-125 -113q-30 -37 -43.5 -69t-13.5 -57q0 -27 14.5 -42.5t38.5 -15.5zM250 -530q-2 -2 -5 -2t-3.5 3t-0.5 4t6.5 10.5t12.5 19.5q10 16 16 30.5t6 22.5t-3.5 12t-3.5 11q0 15 20 15q14 0 20 -8t6 -19q0 -12 -13.5 -33
t-30.5 -40t-27 -26z" />
    <glyph glyph-name="uni0123" unicode="&#x123;" horiz-adv-x="415" 
d="M-2 -367q-12 3 -21 6q-19 10 -27 22.5t-8 26.5q0 23 15.5 49.5t40.5 54.5q25 30 63.5 61t80.5 59.5t74 49.5q35 71 62 134.5t38 97.5q-21 -23 -45 -51.5t-35 -41.5q-19 -20 -43 -43.5t-50.5 -40t-51.5 -16.5q-16 0 -34 9.5t-29 24.5q-15 20 -15 41q0 27 18.5 56t48 56.5
t63 50t64 38t49.5 20.5q18 6 44 6q12 0 29 -4t30.5 -12.5t13.5 -24.5q0 -8 -8 -5q-7 12 -20.5 15.5t-27.5 3.5q-39 0 -87.5 -26t-86.5 -61q-12 -10 -33 -34.5t-37.5 -53.5t-16.5 -53q0 -13 7 -23q3 -5 12 -5q19 0 46.5 17t58.5 43t60.5 55.5t52.5 54.5t34 38q2 5 7 7t11 2
q16 0 33.5 -8.5t14.5 -14.5q-19 -41 -44.5 -95t-53.5 -113q13 7 43 31t66 57.5t67 69.5q12 13 18 13t3 -10.5t-16 -26.5q-16 -19 -44 -45.5t-59 -54t-57.5 -49t-41.5 -29.5q-31 -66 -60 -124.5t-53 -94.5q-16 -25 -39 -51t-50 -43.5t-57 -17.5q-4 0 -8 0.5t-9 1.5zM-12 -341
q6 -4 17.5 0t29.5 18q39 31 67 72.5t51 87t44 87.5q-39 -29 -88 -68.5t-89 -78.5q-20 -20 -33.5 -44.5t-13.5 -44.5q0 -21 15 -29zM383 474q3 2 5 1q3 0 3.5 -2t0.5 -3t-6 -6.5t-13 -11.5q-12 -11 -22.5 -23t-16.5 -27q-4 -6 -4 -11q-1 -7 2.5 -10t3.5 -9q-1 -4 -2 -6
q-2 -6 -10.5 -5.5t-11.5 0.5q-10 1 -15 9t-4 14q0 7 11.5 20t27 28t30 26.5t21.5 15.5z" />
    <glyph glyph-name="Hcircumflex" unicode="&#x124;" horiz-adv-x="750" 
d="M-3 -134q-31 0 -55.5 15.5t-32.5 46.5q-1 2 -1 5v5q0 15 7 15q6 0 11 -19q9 -25 29.5 -32.5t43.5 -7.5q43 0 83 27.5t74.5 72t63 95.5t49.5 98.5t34 80.5q-13 2 -26 2.5t-26 1.5q-7 0 -13 0.5t-13 0.5q-32 0 -63.5 -6.5t-56 -24t-36.5 -51.5q-5 -12 -5 -21q0 -8 5 -18
q3 -4 3 -8q0 -8 -10 -8q-7 0 -11 7q-5 11 -8 27.5t-2 34.5q4 46 24.5 70.5t52 33.5t67.5 9q33 0 66 -4t66 -9q17 45 31 89.5t26 82.5q-28 -26 -63.5 -39t-66.5 -17h-1q-9 0 -9 7q0 9 12 10q29 3 59 22.5t56.5 50t41.5 66.5q2 5 14 8.5t24 3.5q11 0 19 -3t6 -9
q-19 -48 -47 -122.5t-63 -157.5q61 -12 122 -26t118 -21q20 43 41 86t38 88q5 10 6 17t1 11q0 5 -0.5 7.5t-1.5 4.5q1 12 12 32t29 40t39 33.5t40 13.5q6 0 21 -4.5t28 -14t12 -25.5q-3 1 -6.5 3t-5.5 2q-22 0 -47 -24t-50 -62t-47.5 -79.5t-39.5 -77t-26 -55.5q17 0 40 3
t44 10.5t31 22.5q3 4 6 4q4 0 6 -4.5t-2 -10.5q-12 -19 -36 -28.5t-50 -12t-47 -2.5q-10 -24 -21 -56t-18.5 -64t-7.5 -57q0 -19 6.5 -31.5t22.5 -12.5q21 0 49 17.5t55.5 43.5t51 51.5t35.5 41.5q2 2 6 2q3 0 5.5 -2.5t0.5 -8.5q-2 -4 -19 -27t-47 -55q-28 -32 -66.5 -57
t-82.5 -25q-34 0 -47 21t-13 50q0 32 10 67t17 54q5 13 10.5 25.5t10.5 25.5q-63 5 -124 15t-123 17q-17 -37 -41.5 -88.5t-56.5 -105t-70.5 -100t-83 -75t-93.5 -28.5zM649 766q8 0 17.5 -18.5t17.5 -40.5t12 -32q2 -9 2.5 -13t0.5 -8q-1 -10 -9 -12q-7 5 -18.5 21.5
t-23.5 34.5t-18 28q-17 -10 -41 -29t-45.5 -34.5t-30.5 -15.5q-4 0 -4 4q1 7 16 19q10 9 28.5 25t38.5 32.5t36 27.5t21 11z" />
    <glyph glyph-name="hcircumflex" unicode="&#x125;" horiz-adv-x="455" 
d="M558 631q2 0 -9 8.5t-27 21t-31.5 26t-24.5 22.5q-15 -10 -35.5 -28t-39.5 -32.5t-30 -14.5q-4 0 -4 3q0 4 3.5 10t7.5 10q7 5 22 18.5t33 29.5t33.5 27.5t22.5 11.5q10 -3 25.5 -20.5t31 -37.5t24.5 -34q3 -6 3 -13q0 -8 -5 -8zM48 -13q-8 0 -4 7q2 6 10.5 30t20.5 58
t25 69.5t24 63.5q-7 -9 -21.5 -26t-30.5 -36t-30 -33q-3 -3 -4 -3q-3 0 -3 6q0 12 6 22q22 28 42.5 52.5t37.5 46.5q-10 6 -10 15q0 14 14 14q6 0 9 -2q1 -1 2 -1t2 -2q5 7 8.5 13t6.5 13q4 9 16.5 34.5t31.5 60.5t43.5 72.5t53 70t59 52.5t62.5 20q4 0 8 -0.5t8 -1.5
q25 -5 35 -17.5t10 -29.5q0 -12 -4.5 -25.5t-12.5 -26.5q-20 -35 -53 -70.5t-73.5 -70t-81 -67t-75.5 -61.5q-24 -51 -37 -90.5t-20 -63.5q11 14 33 40t50 56t58 57.5t57 45t46 17.5q24 0 24 -25q0 -24 -17 -53t-28 -49q-14 -29 -22.5 -55.5t-10.5 -43.5q-1 -4 -1 -7.5v-7.5
q0 -40 28 -40q15 0 40 18t51 43t47.5 48.5t29.5 35.5q3 3 7 3t6 -3t0 -8q-10 -17 -31 -42.5t-47 -51t-51 -43.5q-13 -10 -33.5 -17.5t-40.5 -7.5q-16 0 -31 8t-22 30q-3 9 -3 25v10.5t1 11.5q4 32 21.5 67.5t32.5 63.5q4 8 6.5 14t2.5 10q0 8 -7 8t-22 -9t-40 -31
q-22 -19 -46.5 -49.5t-48 -62.5t-41 -55t-24.5 -27q-5 -3 -23 -10t-26 -7zM199 279q40 27 87 67.5t88.5 87t63.5 88.5q12 23 12 38q0 17 -15 17q-7 0 -16 -3.5t-21 -12.5q-67 -52 -113 -123.5t-86 -158.5z" />
    <glyph glyph-name="Hbar" unicode="&#x126;" horiz-adv-x="528" 
d="M-3 -134q-31 0 -55.5 15.5t-32.5 46.5q-1 2 -1 5v5q0 15 7 15q6 0 11 -19q9 -25 29.5 -32.5t43.5 -7.5q43 0 83 27.5t74.5 72t63 95.5t49.5 98.5t34 80.5q-13 2 -26 2.5t-26 1.5q-7 0 -13 0.5t-13 0.5q-32 0 -63.5 -6.5t-56 -24t-36.5 -51.5q-5 -12 -5 -21q0 -8 5 -18
q3 -4 3 -8q0 -8 -10 -8q-7 0 -11 7q-5 11 -8 27.5t-2 34.5q4 46 24.5 70.5t52 33.5t67.5 9q33 0 66 -4t66 -9q17 45 31 89.5t26 82.5q-28 -26 -63.5 -39t-66.5 -17h-1q-9 0 -9 7q0 9 12 10q42 5 83 41q-17 3 -17 11q0 11 15 18.5t41 11.5q11 13 19.5 27.5t15.5 29.5
q2 5 14 8.5t24 3.5q11 0 19 -3t6 -9q-4 -11 -9 -24.5t-11 -27.5q14 1 28 1h29q44 0 94 -1t100 -1h14q19 23 42.5 41t46.5 18q6 0 21 -4.5t28 -14t12 -25.5q-3 1 -6.5 3t-5.5 2q-24 0 -50 -28q12 -3 14 -7q0 -4 -9 -7.5t-23 -5.5q-22 -27 -44 -62.5t-41.5 -72t-34 -67
t-22.5 -48.5q17 0 40 3t44 10.5t31 22.5q3 4 6 4q4 0 6 -4.5t-2 -10.5q-12 -19 -36 -28.5t-50 -12t-47 -2.5q-10 -24 -21 -56t-18.5 -64t-7.5 -57q0 -19 6.5 -31.5t22.5 -12.5q21 0 49 17.5t55.5 43.5t51 51.5t35.5 41.5q2 2 6 2q3 0 5.5 -2.5t0.5 -8.5q-2 -4 -19 -27
t-47 -55q-28 -32 -66.5 -57t-82.5 -25q-34 0 -47 21t-13 50q0 32 10 67t17 54q5 13 10.5 25.5t10.5 25.5q-63 5 -124 15t-123 17q-17 -37 -41.5 -88.5t-56.5 -105t-70.5 -100t-83 -75t-93.5 -28.5zM596 250q20 43 41 86t38 88q5 10 6 17t1 11q0 5 -0.5 7.5t-1.5 4.5
q0 5 2 11t5 13q-37 -1 -82.5 -2.5l-91 -3t-83.5 -2.5q-16 -40 -34.5 -87t-39.5 -96q61 -12 122 -26t118 -21z" />
    <glyph glyph-name="hbar" unicode="&#x127;" horiz-adv-x="455" 
d="M48 -13q-8 0 -4 7q2 6 10.5 30t20.5 58t25 69.5t24 63.5q-7 -9 -21.5 -26t-30.5 -36t-30 -33q-3 -3 -4 -3q-3 0 -3 6q0 12 6 22q22 28 42.5 52.5t37.5 46.5q-10 6 -10 15q0 14 14 14q6 0 9 -2q1 -1 2 -1t2 -2q5 7 8.5 13t6.5 13q6 11 25.5 51.5t48.5 88.5
q-19 -1 -35.5 -2t-27.5 -1q-13 0 -18 2t-5 8q0 19 27.5 24t67.5 5h14q24 35 51.5 65.5t57 49.5t60.5 19q4 0 8 -0.5t8 -1.5q25 -5 35 -17.5t10 -29.5q0 -12 -4.5 -25.5t-12.5 -26.5q-20 -35 -53 -70.5t-73.5 -70t-81 -67t-75.5 -61.5q-24 -51 -37 -90.5t-20 -63.5
q11 14 33 40t50 56t58 57.5t57 45t46 17.5q24 0 24 -25q0 -24 -17 -53t-28 -49q-14 -29 -22.5 -55.5t-10.5 -43.5q-1 -4 -1 -7.5v-7.5q0 -40 28 -40q15 0 40 18t51 43t47.5 48.5t29.5 35.5q3 3 7 3t6 -3t0 -8q-10 -17 -31 -42.5t-47 -51t-51 -43.5q-13 -10 -33.5 -17.5
t-40.5 -7.5q-16 0 -31 8t-22 30q-3 9 -3 25v10.5t1 11.5q4 32 21.5 67.5t32.5 63.5q4 8 6.5 14t2.5 10q0 8 -7 8t-22 -9t-40 -31q-22 -19 -46.5 -49.5t-48 -62.5t-41 -55t-24.5 -27q-5 -3 -23 -10t-26 -7zM199 279q40 27 87 67.5t88.5 87t63.5 88.5q12 23 12 38q0 17 -15 17
q-7 0 -16 -3.5t-21 -12.5q-26 -20 -48.5 -43t-42.5 -49h14q24 0 38.5 -4.5t15.5 -9.5q0 -6 -12 -9t-24.5 -4.5t-16.5 -2.5q-8 0 -18 -0.5t-20 -1.5q-24 -35 -44.5 -75t-40.5 -83z" />
    <glyph glyph-name="Itilde" unicode="&#x128;" horiz-adv-x="430" 
d="M353 664q-9 0 -9 5v1q19 28 41 52.5t50 24.5q12 0 32.5 -11.5t44 -22.5t42.5 -11q13 0 21 9t14 18t13 9q10 0 10 -5q-12 -25 -32.5 -44t-44.5 -19q-18 0 -37 8.5t-37.5 16.5t-36.5 8q-13 0 -28.5 -9.5t-27.5 -19.5t-15 -10zM52 -9q-21 0 -32.5 3.5t-11.5 16.5q0 5 1 10.5
t4 12.5q5 11 17 16.5t22 5.5t18 -5q14 -10 33 -17.5t40 -7.5q24 0 49 11.5t47 42.5q30 39 56 97.5t47.5 123.5t38.5 126.5t28 106.5q-52 -4 -101 -17.5t-80.5 -38t-31.5 -60.5q0 -20 11 -32.5t25.5 -19.5t23.5 -12q7 -4 7 -7q0 -6 -9 -2q-12 3 -30.5 13.5t-33 28.5t-15.5 41
q0 2 -1.5 6t-1.5 7q-2 38 19.5 64t58 42.5t81 24t89.5 7.5l4 10q2 5 11.5 8.5t19.5 3.5t16.5 -3t6.5 -8t-5 -13q33 -3 60.5 -10t46.5 -17q7 -3 16.5 -12.5t9.5 -15.5q0 -5 -8 -5q-4 0 -10 1t-14 4q-19 7 -49.5 10t-65.5 3q-15 -46 -35.5 -109t-46 -130.5t-55.5 -129
t-63 -103.5q-10 -10 -19.5 -20t-18.5 -18q55 -1 100.5 1t76.5 3h6q11 0 11 -5t-6 -11t-10 -8q-5 -2 -34.5 -4.5t-73 -4t-90.5 -3t-87 -2t-62 -0.5z" />
    <glyph glyph-name="itilde" unicode="&#x129;" horiz-adv-x="226" 
d="M89 -10q-19 0 -37.5 11t-18.5 40q0 20 9 50t22 58l-8.5 -13.5t-19 -26.5t-18.5 -13q-7 0 -7 8q0 3 4 10q26 33 46.5 59t30.5 44q-1 2 -1 4q0 22 9 37t20 22.5t15 7.5q11 0 20.5 -4.5t9.5 -15.5q0 -15 -22 -53q-26 -54 -43 -94t-17 -66q0 -17 6.5 -28.5t19.5 -11.5
q11 0 41 20.5t65.5 53.5t62.5 71q1 4 6 4q8 0 8 -7q0 -4 -1 -5q-11 -21 -33.5 -48.5t-51.5 -53.5t-59.5 -43t-57.5 -17zM63 364q-8 0 -8 4v1q17 23 34.5 43.5t40.5 20.5q10 0 27.5 -9t37 -18.5t35.5 -9.5q10 0 16.5 7.5t11.5 14.5t10 7q9 0 9 -3v-2q-10 -20 -27 -36.5
t-37 -16.5q-15 0 -30.5 7.5t-30.5 15t-31 7.5q-10 0 -23 -8t-22.5 -16.5t-12.5 -8.5z" />
    <glyph glyph-name="Imacron" unicode="&#x12a;" horiz-adv-x="430" 
d="M52 -9q-21 0 -32.5 3.5t-11.5 16.5q0 5 1 10.5t4 12.5q5 11 17 16.5t22 5.5t18 -5q14 -10 33 -17.5t40 -7.5q24 0 49 11.5t47 42.5q30 39 56 97.5t47.5 123.5t38.5 126.5t28 106.5q-52 -4 -101 -17.5t-80.5 -38t-31.5 -60.5q0 -20 11 -32.5t25.5 -19.5t23.5 -12
q7 -4 7 -7q0 -6 -9 -2q-12 3 -30.5 13.5t-33 28.5t-15.5 41q0 2 -1.5 6t-1.5 7q-2 38 19.5 64t58 42.5t81 24t89.5 7.5l4 10q2 5 11.5 8.5t19.5 3.5t16.5 -3t6.5 -8t-5 -13q33 -3 60.5 -10t46.5 -17q7 -3 16.5 -12.5t9.5 -15.5q0 -5 -8 -5q-4 0 -10 1t-14 4q-19 7 -49.5 10
t-65.5 3q-15 -46 -35.5 -109t-46 -130.5t-55.5 -129t-63 -103.5q-10 -10 -19.5 -20t-18.5 -18q55 -1 100.5 1t76.5 3h6q11 0 11 -5t-6 -11t-10 -8q-5 -2 -34.5 -4.5t-73 -4t-90.5 -3t-87 -2t-62 -0.5zM400 668q-25 0 -25 9q0 17 25.5 21.5t64.5 4.5q20 0 43.5 -0.5
t46.5 -0.5q11 0 22 -2t11 -9q1 -6 -8 -9.5t-19 -4.5t-13 -2q-23 -1 -51 -2.5t-54 -3t-43 -1.5z" />
    <glyph glyph-name="imacron" unicode="&#x12b;" horiz-adv-x="226" 
d="M89 -10q-19 0 -37.5 11t-18.5 40q0 20 9 50t22 58l-8.5 -13.5t-19 -26.5t-18.5 -13q-7 0 -7 8q0 3 4 10q26 33 46.5 59t30.5 44q-1 2 -1 4q0 22 9 37t20 22.5t15 7.5q11 0 20.5 -4.5t9.5 -15.5q0 -15 -22 -53q-26 -54 -43 -94t-17 -66q0 -17 6.5 -28.5t19.5 -11.5
q11 0 41 20.5t65.5 53.5t62.5 71q1 4 6 4q8 0 8 -7q0 -4 -1 -5q-11 -21 -33.5 -48.5t-51.5 -53.5t-59.5 -43t-57.5 -17zM84 373q-25 0 -25 9q0 17 25.5 21.5t64.5 4.5q20 0 43.5 -0.5t46.5 -0.5q11 0 22 -2t11 -9q1 -6 -8 -9.5t-19 -4.5t-13 -2q-23 -1 -51 -2.5t-54 -3
t-43 -1.5z" />
    <glyph glyph-name="Ibreve" unicode="&#x12c;" horiz-adv-x="430" 
d="M52 -9q-21 0 -32.5 3.5t-11.5 16.5q0 5 1 10.5t4 12.5q5 11 17 16.5t22 5.5t18 -5q14 -10 33 -17.5t40 -7.5q24 0 49 11.5t47 42.5q30 39 56 97.5t47.5 123.5t38.5 126.5t28 106.5q-52 -4 -101 -17.5t-80.5 -38t-31.5 -60.5q0 -20 11 -32.5t25.5 -19.5t23.5 -12
q7 -4 7 -7q0 -6 -9 -2q-12 3 -30.5 13.5t-33 28.5t-15.5 41q0 2 -1.5 6t-1.5 7q-2 38 19.5 64t58 42.5t81 24t89.5 7.5l4 10q2 5 11.5 8.5t19.5 3.5t16.5 -3t6.5 -8t-5 -13q33 -3 60.5 -10t46.5 -17q7 -3 16.5 -12.5t9.5 -15.5q0 -5 -8 -5q-4 0 -10 1t-14 4q-19 7 -49.5 10
t-65.5 3q-15 -46 -35.5 -109t-46 -130.5t-55.5 -129t-63 -103.5q-10 -10 -19.5 -20t-18.5 -18q55 -1 100.5 1t76.5 3h6q11 0 11 -5t-6 -11t-10 -8q-5 -2 -34.5 -4.5t-73 -4t-90.5 -3t-87 -2t-62 -0.5zM458 671q-30 0 -52 16.5t-22 52.5q0 14 5 22.5t11 8.5q5 0 9.5 -3.5
t4.5 -8.5q0 -33 19 -50t45 -17q21 0 46.5 18.5t38.5 60.5q0 4 7 4q14 0 14 -11q-10 -45 -44.5 -69t-81.5 -24z" />
    </font>
</defs>
</svg>
